<?xml version="1.0" encoding="UTF-8"?> <svg xmlns="http://www.w3.org/2000/svg" width="72" height="72" viewBox="0 0 72 72" fill="none"><path d="M37.2831 0.150375C36.949 0.271088 36.5086 0.43705 36.296 0.542671C35.8404 0.784081 0 36.3166 0 36.5429C0 36.724 1.44273 38.1272 1.62497 38.1272C1.68571 38.1272 3.70553 36.1808 6.10502 33.7969L10.4788 29.4515L19.3326 38.2479L28.1712 47.0292L16.4775 58.647L4.78378 70.2649L5.66461 71.1249L6.53024 72L23.357 55.2824L40.199 38.5496L42.9174 38.3535C44.4057 38.2328 46.0154 38.0668 46.471 37.9612C49.2046 37.3879 51.3156 35.1397 51.8015 32.2881C51.9686 31.3526 51.9534 31.0358 51.6497 29.3912L51.3004 27.5353L54.8085 24.0349C58.8481 19.9913 59 19.7649 59 17.8337C59 16.8077 58.9241 16.5059 58.5748 15.842C58.0736 14.8915 57.2991 14.1069 56.4183 13.6995L55.7804 13.3977L56.1753 12.5981C56.5094 11.9342 56.5701 11.6023 56.5701 10.5914C56.555 9.17307 56.2057 8.31305 55.2641 7.3625C54.2618 6.36668 53.4569 6.06492 51.8319 6.08001C50.7537 6.08001 50.4196 6.03474 50.4196 5.88387C50.4196 5.50666 49.6906 4.26943 49.1894 3.75644C48.9161 3.46976 48.339 3.06239 47.9138 2.85115C47.2759 2.51921 46.957 2.44377 45.9395 2.44377C44.9372 2.44377 44.5879 2.50413 43.9197 2.83607L43.1148 3.22836L42.7655 2.5343C42.2947 1.62901 41.4595 0.814255 40.5634 0.391792C39.713 -0.0155869 38.1336 -0.121208 37.2831 0.150375ZM39.5459 2.57957C40.1686 2.83607 40.6698 3.45467 40.7912 4.13364C40.9735 5.08419 40.6546 5.65754 39.1055 7.19653C38.3158 7.98111 37.6628 8.69025 37.6628 8.78078C37.6628 8.96184 39.0752 10.365 39.2726 10.365C39.3333 10.365 40.6242 9.1429 42.1429 7.66426C44.4664 5.35578 44.9676 4.9484 45.4535 4.85787C46.6837 4.63155 47.8682 5.38596 48.0808 6.53265C48.2631 7.49829 47.9441 8.07164 46.3951 9.61063C45.6054 10.3952 44.9524 11.1194 44.9524 11.21C44.9524 11.3005 45.2106 11.6023 45.5295 11.8889C46.714 12.9602 46.3951 13.0658 48.7946 10.697C50.6018 8.93166 51.0422 8.56955 51.5282 8.47902C52.7583 8.2527 53.9429 9.0071 54.1555 10.1538C54.3529 11.2401 54.0795 11.6324 51.2548 14.4388C49.7969 15.8873 48.5972 17.1245 48.5972 17.1849C48.5972 17.3207 50.0703 18.8144 50.207 18.8144C50.2677 18.8144 51.0118 18.1354 51.8623 17.3207C53.0772 16.1136 53.5024 15.7968 53.9732 15.7213C55.6438 15.4045 57.0106 16.8831 56.5246 18.4824C56.3879 18.92 54.4592 20.9116 47.3822 27.9427L38.4221 36.8447L29.5835 28.0483L20.7297 19.267L29.0064 11.0289C33.5624 6.50248 37.4958 2.70027 37.7387 2.57957C38.331 2.32307 38.9081 2.32307 39.5459 2.57957ZM20.6538 22.6619C22.1269 24.1254 22.218 24.2763 21.9447 24.4272C21.5498 24.6384 15.8852 30.2663 15.6726 30.6586C15.5207 30.9301 15.3689 30.8245 13.8654 29.3459L12.2252 27.7164L15.5663 24.397C17.4039 22.5713 18.9377 21.0776 18.9833 21.0776C19.0288 21.0776 19.7882 21.7867 20.6538 22.6619ZM27.2144 29.1799C29.8265 31.7751 30.0695 32.0617 30.0695 32.5446C30.0695 33.0274 29.8265 33.299 27.2296 35.8941C24.6175 38.4893 24.329 38.7307 23.843 38.7307C23.357 38.7307 23.0837 38.4893 20.4716 35.9092C17.8595 33.3141 17.6165 33.0274 17.6165 32.5446C17.6165 32.0617 17.8595 31.7902 20.4564 29.195C23.0685 26.5998 23.357 26.3584 23.843 26.3584C24.329 26.3584 24.6023 26.5998 27.2144 29.1799ZM49.4172 31.1414C49.4172 33.6913 47.8986 35.366 45.2409 35.7131C44.6183 35.7885 43.8438 35.864 43.5097 35.864H42.9022L46.0154 32.7709C47.9897 30.8094 49.1743 29.7382 49.2654 29.8287C49.3413 29.9041 49.4172 30.5077 49.4172 31.1414ZM34.4736 36.392L36.6757 38.5798L33.2891 41.9294L29.9176 45.294L27.7156 43.1063C26.5006 41.8992 25.5135 40.8883 25.5135 40.8279C25.5135 40.7827 25.6806 40.6469 25.8932 40.5413C26.2577 40.3451 26.3184 40.3904 27.2448 41.2655C28.7331 42.6838 28.7331 42.6838 31.3907 40.0434C34.0484 37.4029 34.0484 37.4029 32.6208 35.9243C31.74 35.0039 31.6945 34.9436 31.8919 34.5815C31.9982 34.3702 32.1349 34.2043 32.1804 34.2043C32.2412 34.2043 33.2587 35.185 34.4736 36.392ZM30.2973 37.071C30.5858 37.3879 30.5707 37.4029 29.6443 38.3233L28.7027 39.2588L28.3686 38.9118L28.0345 38.5798L28.9305 37.6745C29.4317 37.1766 29.8721 36.7692 29.9328 36.7692C29.9784 36.7692 30.1454 36.905 30.2973 37.071Z" fill="white"></path><path d="M43.6984 44.2654C23.4181 64.126 22 65.5457 22 66.0239C22 66.4573 22.1982 66.7263 23.4791 67.9966C24.2873 68.8035 25.0802 69.5059 25.2327 69.5657C25.4004 69.6105 27.3674 69.4013 29.6089 69.0875L33.7108 68.5196L34.9459 69.6553C37.0349 71.5831 39.0629 72.2855 41.4112 71.897C43.6222 71.5234 44.0034 71.2544 49.1116 66.278C54.1588 61.3614 54.479 60.9579 54.479 59.4934C54.479 58.8657 54.2351 58.0588 53.3354 55.6976C52.7102 54.0388 52.2223 52.664 52.2375 52.6341C52.268 52.6191 53.6709 53.0973 55.3635 53.71C57.7727 54.5917 58.5961 54.8308 59.2365 54.8308C60.7309 54.8308 61.1426 54.517 66.1593 49.5705C71.2523 44.5493 71.5572 44.1309 71.9079 41.9939C72.2739 39.6776 71.5572 37.7199 69.6054 35.6875L68.4466 34.477L69.026 30.4571C69.3462 28.2603 69.5597 26.3325 69.5139 26.1681C69.453 26.0187 68.7363 25.2416 67.9129 24.4496C66.6168 23.1943 66.3423 23 65.9001 23C65.4121 23 63.9635 24.3898 43.6984 44.2654ZM66.5253 26.5119L67.0437 27.0349L66.6777 29.6501C66.4795 31.0847 66.2813 32.2653 66.2203 32.2653C66.1746 32.2653 65.3816 31.5331 64.4667 30.6215L62.7894 28.9776L64.3143 27.4832C65.1529 26.6613 65.8696 25.9888 65.9153 25.9888C65.9611 25.9888 66.2355 26.2279 66.5253 26.5119ZM65.0309 34.6115C69.3615 38.9005 69.4987 39.0947 69.4987 40.9329C69.4987 42.8009 69.4377 42.8905 64.3295 47.9117C60.2734 51.9317 59.694 52.4398 59.267 52.4398C59.0078 52.4398 57.4372 51.9317 55.7599 51.319C53.9149 50.6316 52.4968 50.1982 52.146 50.1982C50.8499 50.1982 49.9045 51.0351 49.7825 52.2904C49.7216 52.9031 49.874 53.4261 50.8804 56.0264C51.5209 57.7001 52.0393 59.2692 52.0393 59.5233C52.0393 59.9417 51.5361 60.4946 47.4343 64.4847C42.2651 69.5209 42.2194 69.5507 40.2218 69.5507C38.4225 69.5507 38.0413 69.2817 33.665 64.9928L29.8529 61.2568L45.4063 46.0139C53.9606 37.6302 60.9901 30.7709 61.0359 30.7709C61.0816 30.7709 62.8809 32.5044 65.0309 34.6115ZM29.8529 64.6939C30.7678 65.5906 31.4845 66.3527 31.4387 66.3826C31.4082 66.4125 30.1884 66.6068 28.7398 66.801L26.1018 67.1447L25.5376 66.5918L24.9734 66.0389L26.4983 64.5445C27.3369 63.7226 28.0536 63.0501 28.0994 63.0501C28.1451 63.0501 28.938 63.7823 29.8529 64.6939Z" fill="white"></path><path d="M58.3409 41.5628V46.0942H59.4738H60.6066V41.5628V37.0314H59.4738H58.3409V41.5628Z" fill="white"></path><path d="M53.8095 42.1293V43.8286H54.9424H56.0752V42.1293V40.4301H54.9424H53.8095V42.1293Z" fill="white"></path><path d="M42.481 57.4227V61.9541H43.6139H44.7467V57.4227V52.8913H43.6139H42.481V57.4227Z" fill="white"></path><path d="M37.9496 57.9894V59.6887H39.0825H40.2153V57.9894V56.2902H39.0825H37.9496V57.9894Z" fill="white"></path></svg> 