<?xml version="1.0" encoding="UTF-8"?> <svg xmlns="http://www.w3.org/2000/svg" width="31" height="30" viewBox="0 0 31 30" fill="none"><path d="M16.0016 0.0781542C15.6953 0.178164 15.1703 0.715719 15.0765 1.0345C14.9703 1.40329 14.9703 9.59162 15.0765 9.96041C15.1765 10.3042 15.6953 10.823 16.0391 10.923C16.2141 10.973 16.8517 10.998 18.0268 10.998H19.752L20.4771 11.9669C21.5084 13.3358 21.4959 13.3358 22.5273 11.9669L23.2524 10.998H25.9776C27.9403 10.998 28.7779 10.9793 28.9654 10.923C29.3092 10.823 29.828 10.3042 29.928 9.96041C30.0343 9.59162 30.0343 1.40329 29.928 1.0345C29.828 0.690717 29.3092 0.171914 28.9654 0.0719036C28.6154 -0.0281066 16.3329 -0.021856 16.0016 0.0781542ZM28.8467 1.15326L29.0029 1.30328V5.49746V9.69163L28.8467 9.84165L28.6967 9.99791H25.7651C23.5211 9.99791 22.8148 10.0167 22.7336 10.0729C22.6773 10.1167 22.3898 10.4792 22.096 10.873C21.796 11.2668 21.5334 11.5918 21.5022 11.5918C21.4709 11.5918 21.2084 11.2668 20.9084 10.873C20.6146 10.4792 20.3271 10.1167 20.2708 10.0729C20.1895 10.0167 19.6832 9.99791 18.2393 9.99791H16.3079L16.1579 9.84165L16.0016 9.69163V5.49746V1.30328L16.1579 1.15326L16.3079 0.996998H22.5023H28.6967L28.8467 1.15326Z" fill="white"></path><path d="M18.002 3.49726V3.99731H22.5024H27.0029V3.49726V2.99721H22.5024H18.002V3.49726Z" fill="white"></path><path d="M18.002 5.49751V5.99756H22.5024H27.0029V5.49751V4.99746H22.5024H18.002V5.49751Z" fill="white"></path><path d="M18.002 7.49775V7.9978H22.5024H27.0029V7.49775V6.9977H22.5024H18.002V7.49775Z" fill="white"></path><path d="M5.41305 2.56596C5.02551 2.65972 4.4567 2.991 4.18168 3.29103C4.04416 3.44105 3.83789 3.75358 3.73163 3.98485L3.53161 4.40365L3.51286 5.70378C3.49411 6.8539 3.47535 7.01016 3.38784 7.04141C2.80029 7.22268 2.444 7.49771 2.20022 7.96026C1.9627 8.41655 1.9627 9.07912 2.20022 9.53542C2.45025 10.0167 2.88779 10.3418 3.43785 10.4605C3.56911 10.4855 3.62537 10.5793 3.76913 10.9981C4.00041 11.6419 4.45045 12.3232 4.98176 12.8045C5.20678 13.017 5.4193 13.1858 5.4443 13.1858C5.47556 13.1858 5.50056 13.4046 5.50056 13.6671V14.1546L4.29419 14.5859C3.63787 14.8235 2.82529 15.1422 2.50025 15.2923C1.98145 15.5423 1.83144 15.6485 1.34389 16.1486C0.725074 16.7737 0.431294 17.255 0.175018 18.0613C0.0375038 18.5113 0.0312532 18.6051 0.0312532 20.5678V22.5992L0.256276 23.0493C0.406291 23.3618 0.450046 23.4993 0.39379 23.4993C0.343785 23.4993 0.237524 23.5681 0.156266 23.6556C0 23.8056 0 23.8181 0 24.9995C0 26.1809 0 26.1934 0.156266 26.3434C0.29378 26.4871 0.356286 26.4996 0.906342 26.4996H1.50015V28.0936V29.6937L1.65642 29.8437L1.80643 30H15.0015H28.1966L28.3466 29.8437L28.5029 29.6937V28.0936V26.4996H29.0967C29.6468 26.4996 29.7093 26.4871 29.8468 26.3434C30.0031 26.1934 30.0031 26.1809 30.0031 24.9995C30.0031 23.8181 30.0031 23.8056 29.8468 23.6556C29.728 23.5306 29.6343 23.4993 29.3905 23.4993H29.0842L29.703 19.8615C30.3468 16.0548 30.3843 15.7423 30.1656 15.3235C30.0093 15.0172 29.6405 14.6984 29.3217 14.5922C29.0592 14.5047 28.4904 14.4984 24.6525 14.5109L20.2833 14.5297L19.9708 14.6734C19.6082 14.8422 19.2395 15.1735 19.0332 15.5298C18.8644 15.8111 18.7644 16.3174 18.2456 19.4802L17.9081 21.4991H16.8767H15.8454L15.1328 19.5114C14.3015 17.2049 14.1077 16.7987 13.5951 16.2736C13.1263 15.8048 12.9013 15.6735 11.0199 14.8422L9.50097 14.1734V13.9609C9.50097 13.7608 9.52597 13.7358 9.851 13.5921C10.8449 13.1545 11.7449 12.2169 12.1637 11.1918C12.4825 10.3918 12.5013 10.148 12.5013 6.33509V2.80348L12.345 2.65347L12.195 2.4972L8.92591 2.50345C7.12573 2.5097 5.55056 2.53471 5.41305 2.56596ZM11.5012 4.29739V5.09747L10.7511 5.24123C8.97591 5.57252 8.03832 5.57252 7.06322 5.24748C6.64443 5.10997 6.30064 5.04121 5.89435 5.01621C5.34429 4.97871 5.31929 4.98496 5.16303 5.14122C5.00676 5.29749 5.00051 5.33499 5.00051 5.99756C5.00051 6.64762 4.99426 6.69763 4.84424 6.84139C4.76298 6.9289 4.65047 6.99766 4.59422 6.99766C4.51296 6.99766 4.50046 6.84765 4.50046 5.89755C4.50046 5.20998 4.53171 4.69743 4.57547 4.53491C4.66923 4.21613 5.19428 3.67857 5.50056 3.57856C5.64432 3.53481 6.69443 3.50981 8.61338 3.50356L11.5012 3.4973V4.29739ZM6.93821 6.26009C7.8758 6.55387 9.23844 6.56637 10.6198 6.28509C10.8449 6.23508 11.1386 6.17883 11.2699 6.16008L11.5012 6.11632V7.95401C11.5012 8.97911 11.4699 9.94796 11.4324 10.1605C11.1824 11.5606 9.94476 12.742 8.50712 12.9483C7.00696 13.167 5.52556 12.392 4.88175 11.0418C4.56922 10.3918 4.50046 10.0042 4.50046 8.8916C4.50046 8.10402 4.51296 7.99776 4.60047 7.99776C4.89425 7.99776 5.23803 7.82274 5.53181 7.52896C5.8881 7.17893 6.00061 6.8914 6.00061 6.34759C6.00061 5.93505 5.93185 5.9413 6.93821 6.26009ZM3.50036 8.74784C3.50036 9.12288 3.47535 9.43541 3.45035 9.43541C3.4191 9.43541 3.31909 9.3479 3.21283 9.24164C3.06281 9.08537 3.03156 8.99786 3.03156 8.74784C3.03156 8.49781 3.06281 8.4103 3.21283 8.25404C3.31909 8.14778 3.4191 8.06027 3.45035 8.06027C3.47535 8.06027 3.50036 8.36655 3.50036 8.74784ZM7.16323 13.9046C7.40075 13.9546 7.80079 13.9984 8.05707 13.9984H8.51337L8.48836 14.4359C8.46336 14.8985 8.3696 15.0922 8.03832 15.336C7.79454 15.5173 7.20698 15.5173 6.96321 15.336C6.60692 15.0735 6.53191 14.9047 6.50691 14.2984C6.48816 13.7608 6.49441 13.7358 6.61317 13.7733C6.67568 13.7984 6.9257 13.8546 7.16323 13.9046ZM5.75059 15.436C5.91935 15.7736 6.25064 16.0923 6.64443 16.2924C6.91945 16.4361 7.04447 16.4611 7.50076 16.4611C7.98831 16.4674 8.06332 16.4486 8.42586 16.2549C8.8134 16.0423 9.10718 15.7486 9.25719 15.4173C9.30095 15.3235 9.36345 15.2485 9.39471 15.2485C9.42596 15.2485 10.126 15.5485 10.9511 15.9173C12.6013 16.6486 12.9388 16.8799 13.2701 17.4862C13.4201 17.755 14.7515 21.3241 14.7515 21.4491C14.7515 21.4741 14.364 21.4991 13.8952 21.4991H13.0326L12.47 20.0865C12.1262 19.2114 11.8637 18.6426 11.7887 18.5863C11.5949 18.4488 11.3262 18.4801 11.1574 18.6551L11.0011 18.8051V21.1554V23.4993H10.0073H9.01342L8.97591 23.1618C8.89466 22.543 8.41961 21.7804 7.8883 21.4241C7.75704 21.3366 7.72579 21.2241 7.61327 20.399C7.54452 19.8865 7.48201 19.4614 7.47576 19.4489C7.45701 19.4302 6.55067 19.5552 6.52566 19.5802C6.50691 19.5989 6.60692 20.474 6.65693 20.7928L6.69443 20.9991H5.09427H3.50036V19.749V18.4988H3.00031H2.50025V20.0927V21.6929L2.65652 21.8429C2.80654 21.9992 2.80654 21.9992 4.15667 21.9992H5.50056V22.7493V23.4993H3.9004C2.82529 23.4993 2.21273 23.4743 2.03771 23.4243C1.69392 23.3243 1.17512 22.8055 1.07511 22.4617C0.962598 22.0742 0.975099 19.0989 1.09386 18.5426C1.28138 17.655 1.98145 16.6986 2.75028 16.2799C3.03781 16.1236 5.43805 15.1985 5.57557 15.1922C5.60057 15.186 5.68183 15.2985 5.75059 15.436ZM20.8771 15.5923C20.8771 15.6923 19.652 23.1055 19.5957 23.3556C19.5645 23.4868 19.527 23.4993 19.0957 23.4993C18.7144 23.4993 18.6269 23.4806 18.6269 23.4056C18.6269 23.3493 18.8957 21.6992 19.2207 19.7302C19.6145 17.3987 19.8583 16.0923 19.927 15.9673C20.1145 15.6485 20.8771 15.3485 20.8771 15.5923ZM29.1592 15.6548C29.2467 15.736 29.3155 15.8673 29.3155 15.9423C29.3155 16.0173 29.0467 17.6862 28.7217 19.6489C28.1591 23.0305 28.1154 23.2243 27.9653 23.3556L27.8091 23.4993H24.215C21.0334 23.4993 20.6271 23.4868 20.6271 23.4056C20.6271 23.3056 21.8522 15.8923 21.9085 15.636L21.9397 15.4985H25.4776H29.0092L29.1592 15.6548ZM12.27 22.2805C12.3888 22.5867 12.5075 22.993 12.5263 23.1681L12.5575 23.4993H12.2825H12.0012V22.5805C12.0012 22.0804 12.0137 21.6804 12.0262 21.6929C12.0387 21.7054 12.1512 21.9679 12.27 22.2805ZM6.96321 22.0742C7.45076 22.218 8.00081 22.918 8.00081 23.3993C8.00081 23.4868 7.9008 23.4993 7.25074 23.4993H6.50066V22.7493C6.50066 21.9117 6.48191 21.9367 6.96321 22.0742ZM17.7268 22.6055C17.7143 22.668 17.683 22.843 17.658 22.9993C17.5768 23.5493 17.7831 23.4993 15.6828 23.4993H13.8077L13.6576 23.3431C13.5264 23.2181 13.5014 23.1306 13.5014 22.843V22.4992H15.6328C17.6268 22.4992 17.7581 22.5055 17.7268 22.6055ZM29.003 24.9995V25.4995H15.0015H1.0001V24.9995V24.4994H15.0015H29.003V24.9995ZM27.5028 27.7498V28.9999H15.0015H2.50025V27.7498V26.4996H15.0015H27.5028V27.7498Z" fill="white"></path><path d="M6.50073 8.49775V8.9978H7.00078H7.50083V8.49775V7.9977H7.00078H6.50073V8.49775Z" fill="white"></path><path d="M9.50098 8.49775V8.9978H10.001H10.5011V8.49775V7.9977H10.001H9.50098V8.49775Z" fill="white"></path><path d="M24.5027 18.08C24.1964 18.18 23.6713 18.7176 23.5776 19.0363C23.4026 19.6239 23.5276 20.0927 23.9714 20.5302C24.6027 21.1678 25.4028 21.1678 26.0341 20.5302C26.6466 19.9239 26.6654 19.1426 26.0841 18.4988C25.6778 18.0487 25.0965 17.8925 24.5027 18.08ZM25.3465 19.1551C25.659 19.4614 25.4403 19.9989 25.0027 19.9989C24.7464 19.9989 24.5027 19.7552 24.5027 19.4989C24.5027 19.2426 24.7464 18.9988 25.0027 18.9988C25.1215 18.9988 25.2527 19.0551 25.3465 19.1551Z" fill="white"></path></svg> 