<?xml version="1.0" encoding="UTF-8"?> <svg xmlns="http://www.w3.org/2000/svg" width="85" height="48" viewBox="0 0 85 48" fill="none"><path d="M32.3619 0.319359C31.9189 0.434281 30.7703 0.893971 29.8186 1.33724C27.1604 2.58497 26.5533 3.5536 26.5533 6.64008C26.5533 8.19973 26.5369 8.2654 26.061 8.8236C25.2734 9.71014 23.7967 10.1534 21.6307 10.1534C19.4976 10.137 18.07 9.6773 16.462 8.49525C15.8713 8.05198 15.0837 7.47737 14.7391 7.21469C13.6069 6.36098 11.7527 6.44307 10.6205 7.39528C9.70166 8.1669 9.43912 8.95494 9.32426 11.2205C9.2094 13.6175 8.91405 14.4548 7.56854 16.0637C6.55121 17.2786 5.99331 18.2636 5.61592 19.4293C5.38619 20.1845 5.32056 21.2024 5.25493 25.7171L5.18929 31.1021L3.31871 33.9587C0.447205 38.3914 0.562065 38.1452 0.693334 39.3765C1.05432 42.939 3.53202 45.8614 7.1091 46.9613C8.04439 47.2404 9.48835 47.2568 40.0904 47.2568C70.0689 47.2568 72.1692 47.2404 73.4327 46.9613C78.5522 45.8614 82.5723 42.1346 84.0819 37.078C84.4429 35.8795 84.5249 35.2557 84.5413 33.7124C84.5577 31.9229 84.5249 31.7752 84.0326 30.7245C83.3927 29.3782 82.4082 28.3932 81.0299 27.7365L79.9797 27.244L75.7791 27.129C70.9222 26.9977 68.4281 26.6037 65.0643 25.4873C62.2748 24.5679 59.912 23.353 54.0377 19.889C47.6384 16.1129 46.621 15.3906 44.1761 12.9444C41.5508 10.334 40.435 8.74151 37.7932 3.76702C37.2681 2.78197 36.6282 1.74768 36.3656 1.45216C35.4468 0.401447 33.8223 -0.0582424 32.3619 0.319359ZM34.5279 3.04465C34.6427 3.15958 35.2663 4.25955 35.9226 5.47444C36.579 6.68933 37.3994 8.15048 37.744 8.72509C38.0885 9.28328 38.3675 9.80864 38.3675 9.87431C38.3675 9.93998 37.5635 10.3012 36.579 10.6952L34.8068 11.4011L33.8059 10.8101C32.6245 10.1042 30.8852 9.46387 29.7366 9.33253L28.9161 9.21761L28.9818 7.31319C29.0474 5.11325 29.2115 4.45656 29.7366 4.11179C30.1304 3.84911 31.8041 3.11033 32.7722 2.76556C33.3793 2.55213 34.1669 2.68347 34.5279 3.04465ZM14.3453 9.98923C17.6434 12.6489 21.6635 13.3712 25.5688 12.0086C27.2425 11.4176 30.0647 11.6474 31.6728 12.4683L32.2963 12.7802L28.9654 14.7831C25.4211 16.9338 24.4858 17.3935 22.6973 17.9189C18.9889 19.0024 15.6252 18.8382 10.9323 17.3442L9.99701 17.0487L10.5713 16.1458C11.3917 14.8324 11.6543 13.8638 11.7691 11.5817C11.8512 9.84148 11.9168 9.51313 12.1958 9.31612C12.7373 8.9221 13.1639 9.05344 14.3453 9.98923ZM40.3201 12.4683C40.517 12.7145 40.6647 12.9608 40.6647 13.01C40.6647 13.0757 39.713 14.2906 38.5316 15.7353C36.7594 17.9024 36.3985 18.4442 36.3985 18.8875C36.3985 19.971 37.5963 20.4636 38.3839 19.7084C38.5972 19.5114 39.6145 18.3129 40.6319 17.0652L42.4861 14.816L43.5854 15.8338C44.1925 16.392 44.7012 16.9174 44.734 16.9995C44.7668 17.0652 44.3238 18.5263 43.7659 20.2501L42.7322 23.353L43.0604 23.8127C43.4378 24.3217 44.209 24.4858 44.7504 24.2067C44.9638 24.0754 45.3247 23.2709 45.9155 21.4486C46.3913 20.0203 46.8343 18.789 46.9 18.7069C46.982 18.6412 47.5563 18.8875 48.1962 19.2815L49.3613 20.0039V20.9068C49.3613 21.3994 49.2792 22.762 49.1972 23.9276C49.0659 25.6679 49.0823 26.1112 49.2792 26.4888C49.673 27.244 50.7232 27.3096 51.2975 26.6201C51.3959 26.4888 51.56 25.3395 51.6585 24.0261C51.7569 22.7292 51.8554 21.6292 51.9046 21.5964C51.9374 21.5471 52.5938 21.8755 53.3321 22.3352L54.6941 23.1396L54.8581 25.5366C54.9894 27.4738 55.0879 27.9992 55.3176 28.2619C55.7278 28.7051 56.1052 28.7872 56.7123 28.5245C57.3687 28.2619 57.4835 27.8186 57.3358 26.0619L57.2374 24.6993L59.2721 25.7171L61.3067 26.735L61.4216 27.8678C61.5529 29.1812 61.881 29.6081 62.7015 29.6081C63.3742 29.6081 63.7352 29.2469 63.8829 28.4096C63.9485 28.0813 64.047 27.8022 64.0962 27.8022C64.1454 27.8022 64.7853 27.9828 65.5073 28.1962C68.6906 29.1484 72.1692 29.6081 76.337 29.6081C77.781 29.6081 79.2577 29.6902 79.6023 29.7887C80.6853 30.0842 82.0144 31.5125 82.0144 32.3826C82.0144 33.0722 78.1912 35.0751 75.5002 35.7975C73.9578 36.2079 73.6624 36.2243 68.0999 36.3228L62.2912 36.4213L61.9795 36.8153C61.5693 37.3079 61.5857 38.0631 61.9959 38.4735C62.3076 38.7854 62.5374 38.8019 67.542 38.8019C73.4491 38.8019 74.7782 38.6541 77.5841 37.7183C78.5358 37.4064 79.8484 36.8482 80.5048 36.487C81.1775 36.1422 81.7518 35.8467 81.7847 35.8467C82.0636 35.8467 81.1611 38.0795 80.4063 39.278C78.8803 41.7242 76.4683 43.5465 73.6132 44.4166L72.4153 44.7942L41.0749 44.8435C19.3827 44.8763 9.37349 44.8271 8.58587 44.7121C6.45275 44.3838 4.64781 43.054 3.74533 41.166C2.84286 39.3108 2.89209 39.163 5.14007 35.6497L7.1091 32.5796L12.6552 32.5632C19.8094 32.5632 19.8914 32.5796 23.0419 35.4034C24.6663 36.8646 26.0282 37.669 27.8332 38.2929L29.0966 38.7198L43.5526 38.769C57.9266 38.8183 57.9922 38.8183 58.3039 38.4735C58.7142 38.0138 58.6813 37.2258 58.2383 36.7825L57.8773 36.4213L43.6511 36.3392C30.7211 36.2571 29.3428 36.2243 28.6044 35.9616C28.1613 35.8139 27.6855 35.6169 27.5706 35.5512C27.423 35.4527 27.7183 34.4676 28.8505 31.4797C29.6545 29.329 30.3273 27.3753 30.3273 27.1619C30.3273 26.1604 28.9818 25.6351 28.3254 26.3738C28.1449 26.5709 27.423 28.2619 26.7338 30.1006C26.0446 31.9558 25.4211 33.5975 25.3555 33.7617C25.257 34.0244 25.0765 33.9259 24.1084 33.0229C21.8112 30.9379 20.2032 30.2484 17.3153 30.1334C15.7072 30.0678 15.3462 30.0185 15.2806 29.7887C14.9524 28.7708 14.1484 27.4246 13.492 26.8171C12.327 25.75 11.1784 25.2903 9.32426 25.1918L7.76544 25.0933L7.78185 22.8769C7.78185 21.1695 7.86389 20.48 8.07721 19.9054L8.37256 19.1502L9.61962 19.5442C12.9177 20.5785 14.6242 20.9233 16.8066 21.0218C21.6307 21.2352 24.7483 20.2994 29.9827 17.0652C30.7539 16.589 31.5579 16.1129 31.7548 15.998L32.1158 15.8174L31.7056 16.9174C29.9991 21.4158 29.6709 22.3844 29.6709 22.762C29.6709 23.2545 30.3437 23.862 30.9016 23.862C31.1149 23.862 31.4267 23.7306 31.6071 23.5665C31.8205 23.4023 32.6409 21.4322 33.7403 18.5263L35.5288 13.7652L37.6455 12.9115C38.8105 12.4354 39.8114 12.0578 39.8771 12.0414C39.9427 12.0414 40.1396 12.2384 40.3201 12.4683ZM11.0472 28.0648C11.6543 28.3768 12.7701 29.6081 12.7701 29.9528C12.7701 30.0514 11.7691 30.0842 10.276 30.0678L7.76544 30.0185L7.71622 28.8036L7.66699 27.6052L9.02891 27.6544C9.99701 27.7037 10.5713 27.8186 11.0472 28.0648Z" fill="white"></path><path d="M9.59582 36.7659C9.25288 36.9218 8.90994 37.4986 8.90994 37.8883C8.90994 37.9974 9.05024 38.278 9.23729 38.5118C9.64258 39.0262 10.4688 39.073 10.9364 38.6053C11.404 38.1377 11.3573 37.3115 10.8429 36.9062C10.3908 36.5477 10.0946 36.5165 9.59582 36.7659Z" fill="white"></path><path d="M14.2879 36.7504C13.3058 37.296 13.3682 38.5118 14.3814 38.9015C14.849 39.073 15.6752 38.7768 15.8311 38.3715C16.2208 37.3271 15.2076 36.236 14.2879 36.7504Z" fill="white"></path><path d="M18.8865 36.688C18.0915 36.9842 17.8265 38.013 18.4188 38.6053C18.8865 39.073 19.7126 39.0262 20.1179 38.5118C20.305 38.278 20.4453 37.9974 20.4453 37.8883C20.4453 37.483 20.0867 36.9218 19.7126 36.7503C19.3073 36.5633 19.245 36.5633 18.8865 36.688Z" fill="white"></path></svg> 