<?xml version="1.0" encoding="UTF-8"?> <svg xmlns="http://www.w3.org/2000/svg" width="30" height="30" viewBox="0 0 30 30" fill="none"><path d="M1.45249 0.0363129C0.907807 0.169458 0.411539 0.580997 0.151301 1.10147L0 1.40408V11.1176V20.8311L0.163405 21.1398C0.405487 21.5998 0.587049 21.7874 1.01069 22.0173L1.39197 22.2231L6.24571 22.2413L11.1055 22.2594V24.184V26.1146L10.3672 26.1388C9.7438 26.163 9.57434 26.1872 9.32015 26.3143C8.93282 26.4959 8.5697 26.859 8.38209 27.2463C8.24894 27.5247 8.23078 27.6336 8.21263 28.6201L8.18842 29.6913L8.34577 29.8426L8.49707 30H14.9788H21.4606L21.6119 29.8426L21.7692 29.6913L21.745 28.6201C21.7269 27.5973 21.7147 27.5368 21.5634 27.2403C21.3214 26.7803 21.1398 26.5927 20.7162 26.3688C20.353 26.1751 20.2986 26.163 19.5965 26.1388L18.8521 26.1146V24.184V22.2594L23.7119 22.2413L28.5657 22.2231L28.8743 22.0597C29.3343 21.8176 29.5219 21.6361 29.7519 21.2124L29.9576 20.8311V11.1176V1.40408L29.7519 1.0228C29.5219 0.599153 29.3343 0.417592 28.8743 0.17551L28.5657 0.0121047L15.0999 6.42147e-07C7.69215 6.42147e-07 1.55538 0.0121047 1.45249 0.0363129ZM28.5717 1.10753C28.6625 1.1741 28.7956 1.30724 28.8622 1.39802L28.9893 1.56143V11.1176V20.6738L28.8622 20.8372C28.7956 20.928 28.6625 21.0611 28.5717 21.1277L28.4083 21.2548H14.9788H1.54932L1.38592 21.1277C1.29514 21.0611 1.16199 20.928 1.09542 20.8372C0.968328 20.6738 0.968328 20.6556 0.950171 11.281C0.944119 6.11257 0.950171 1.80351 0.968328 1.69457C1.01069 1.45249 1.26488 1.14384 1.51301 1.0349C1.66431 0.968328 4.03672 0.956224 15.0514 0.968328L28.4083 0.980432L28.5717 1.10753ZM17.8838 24.19V26.1267H14.9788H12.0738V24.19V22.2534H14.9788H17.8838V24.19ZM20.3409 27.2524C20.7041 27.5187 20.7585 27.6579 20.7767 28.372L20.8009 29.0317H14.9849H9.16885V28.4628C9.16885 27.8455 9.22332 27.6336 9.42909 27.4037C9.71959 27.089 9.54408 27.095 15.0514 27.1132C20.1231 27.1253 20.1775 27.1253 20.3409 27.2524Z" fill="white"></path><path d="M2.0578 2.06986L1.90649 2.21511V10.1493V18.0836L2.0578 18.2288L2.20304 18.3801H14.9789H27.7548L27.9 18.2288L28.0513 18.0836V10.1493V2.21511L27.9 2.06986L27.7548 1.91856H14.9789H2.20304L2.0578 2.06986ZM27.083 10.1493V17.4118H14.9789H2.87482V10.1493V2.88689H14.9789H27.083V10.1493Z" fill="white"></path><path d="M3.99432 4.0065L3.84302 4.15175V6.76018V9.36861L3.99432 9.51386L4.13957 9.66516H6.748H9.35643L9.50168 9.51386L9.65298 9.36861V6.76018V4.15175L9.50168 4.0065L9.35643 3.8552H6.748H4.13957L3.99432 4.0065ZM8.68466 5.30769V5.79185H6.748H4.81135V5.30769V4.82352H6.748H8.68466V5.30769ZM8.68466 7.72851V8.69683H6.748H4.81135V7.72851V6.76018H6.748H8.68466V7.72851Z" fill="white"></path><path d="M10.7726 4.0065L10.6213 4.15175V6.76018V9.36861L10.7726 9.51386L10.9179 9.66516H13.5263H16.1348L16.28 9.51386L16.4313 9.36861V6.76018V4.15175L16.28 4.0065L16.1348 3.8552H13.5263H10.9179L10.7726 4.0065ZM15.463 5.30769V5.79185H13.5263H11.5897V5.30769V4.82352H13.5263H15.463V5.30769ZM15.463 7.72851V8.69683H13.5263H11.5897V7.72851V6.76018H13.5263H15.463V7.72851Z" fill="white"></path><path d="M17.551 4.0065L17.3997 4.15175V6.76018V9.36861L17.551 9.51386L17.6962 9.66516H19.2455H20.7888V9.181V8.69683H19.5784H18.368V7.72851V6.76018H19.0942H19.8205V6.27601V5.79185H19.0942H18.368V5.30769V4.82352H18.8521H19.3363V4.33936V3.8552H18.5193C17.7265 3.8552 17.6902 3.86125 17.551 4.0065Z" fill="white"></path><path d="M20.456 4.0065C20.3713 4.08517 20.3047 4.20621 20.3047 4.27279C20.3047 4.33936 20.6436 5.53766 21.0612 6.92358C21.8601 9.60464 21.8843 9.66516 22.2413 9.66516C22.3321 9.66516 22.4653 9.61674 22.5318 9.55622C22.6045 9.50176 22.8647 8.93286 23.1189 8.29135L23.5788 7.12935L24.7408 6.6694C25.3824 6.41521 25.9512 6.15497 26.0118 6.08235C26.0662 6.01578 26.1147 5.88263 26.1147 5.79185C26.1147 5.43478 26.0481 5.41057 23.3912 4.6117C22.0114 4.19411 20.8191 3.8552 20.7404 3.8552C20.6618 3.8552 20.5347 3.92177 20.456 4.0065ZM22.8465 5.45899C23.4639 5.6466 24.0085 5.81001 24.057 5.82816C24.1114 5.84632 23.8875 5.96736 23.5425 6.10656C23.2097 6.23365 22.9071 6.3789 22.8647 6.41521C22.8284 6.45758 22.6831 6.76018 22.556 7.09304C22.4108 7.45011 22.2958 7.66193 22.2777 7.60746C22.2595 7.55905 22.09 7.01436 21.9085 6.39706C21.7209 5.77975 21.5575 5.22901 21.5393 5.16849C21.509 5.07771 21.5272 5.05955 21.618 5.08981C21.6785 5.10797 22.2292 5.27743 22.8465 5.45899Z" fill="white"></path><path d="M3.99432 10.7847L3.84302 10.9299V13.5384V16.1468L3.99432 16.2921L4.13957 16.4434H6.748H9.35643L9.50168 16.2921L9.65298 16.1468V13.5384V10.9299L9.50168 10.7847L9.35643 10.6334H6.748H4.13957L3.99432 10.7847ZM8.68466 12.0859V12.57H6.748H4.81135V12.0859V11.6017H6.748H8.68466V12.0859ZM8.68466 14.5067V15.475H6.748H4.81135V14.5067V13.5384H6.748H8.68466V14.5067Z" fill="white"></path><path d="M10.7726 10.7847L10.6213 10.9299V13.5384V16.1468L10.7726 16.2921L10.9179 16.4434H13.5263H16.1348L16.28 16.2921L16.4313 16.1468V13.5384V10.9299L16.28 10.7847L16.1348 10.6334H13.5263H10.9179L10.7726 10.7847ZM15.463 12.0859V12.57H13.5263H11.5897V12.0859V11.6017H13.5263H15.463V12.0859ZM15.463 14.5067V15.475H13.5263H11.5897V14.5067V13.5384H13.5263H15.463V14.5067Z" fill="white"></path><path d="M17.551 10.7847L17.3997 10.9299V13.5384V16.1468L17.551 16.2921L17.6962 16.4434H20.3046H22.9131L23.0583 16.2921L23.2096 16.1468V13.5384V10.9299L23.0583 10.7847L22.9131 10.6334H20.3046H17.6962L17.551 10.7847ZM22.2413 12.0859V12.57H20.3046H18.368V12.0859V11.6017H20.3046H22.2413V12.0859ZM22.2413 14.5067V15.475H20.3046H18.368V14.5067V13.5384H20.3046H22.2413V14.5067Z" fill="white"></path><path d="M25.1462 19.8326V20.3168H25.6304H26.1146V19.8326V19.3484H25.6304H25.1462V19.8326Z" fill="white"></path><path d="M27.083 19.8326V20.3168H27.5672H28.0513V19.8326V19.3484H27.5672H27.083V19.8326Z" fill="white"></path></svg> 