<?xml version="1.0" encoding="UTF-8"?> <svg xmlns="http://www.w3.org/2000/svg" width="26" height="30" viewBox="0 0 26 30" fill="none"><path d="M11.8661 0.0651332C11.4029 0.170661 10.8753 0.387581 10.4532 0.633814C10.1249 0.833145 9.42133 1.47218 9.25132 1.73014C9.16338 1.85911 9.0344 1.8767 6.26721 2.21088C4.67256 2.39848 3.32414 2.57436 3.26552 2.59195C3.20689 2.6154 3.12481 2.7092 3.07791 2.80301C3.00169 2.94957 3.01342 3.13718 3.19516 4.68493C3.30655 5.62882 3.40036 6.4496 3.40036 6.50236C3.40036 6.5903 3.34759 6.60789 3.1424 6.60789C2.98411 6.60789 2.83754 6.64893 2.76132 6.70755C2.69097 6.76618 2.27472 7.40521 1.83502 8.13219L1.0377 9.45129L0.521779 19.3885C0.24037 24.8526 0.00586268 29.402 0 29.4899C0 29.6013 0.0586268 29.7186 0.170018 29.83L0.340036 30H12.722H25.104L25.274 29.83C25.3854 29.7186 25.4441 29.6013 25.4441 29.4899C25.4382 29.402 25.2037 24.8526 24.9223 19.3885L24.4064 9.45129L23.609 8.13219C23.1693 7.40521 22.7531 6.76618 22.6827 6.70755C22.5831 6.63134 22.4482 6.60789 22.032 6.60789C21.563 6.60789 21.5102 6.59616 21.5395 6.50236C21.645 6.1506 21.8678 5.10118 21.8678 4.94289C21.8678 4.79632 21.7037 4.50905 21.6157 4.49732C21.6099 4.49732 20.5604 4.25109 19.2882 3.95209L16.9725 3.40686L16.8494 3.01993C16.4038 1.64806 15.3368 0.6045 13.9239 0.158936C13.3962 -0.00521904 12.3761 -0.0521205 11.8661 0.0651332ZM13.5956 1.13214C14.1584 1.29043 14.6039 1.56012 15.0436 1.99982C15.4013 2.35744 15.7706 2.90854 15.7706 3.07855C15.7706 3.10787 15.5127 3.07269 15.2019 2.99648C14.1232 2.73852 14.0529 2.77956 13.8125 3.82311C13.4373 5.44708 13.4783 5.33569 13.2262 5.39431C13.1031 5.42363 12.9858 5.42949 12.9624 5.40018C12.9389 5.37086 12.8276 4.5794 12.722 3.64723C12.6165 2.7092 12.4934 1.8767 12.4523 1.79463C12.3292 1.54839 12.1123 1.50735 11.4205 1.60116C11.0922 1.6422 10.7932 1.67737 10.758 1.67737C10.6349 1.68323 11.2446 1.3432 11.5847 1.22008C12.2647 0.967987 12.9155 0.944536 13.5956 1.13214ZM11.7488 4.06935C11.8368 4.87253 11.9247 5.56433 11.9364 5.6171C11.954 5.69331 11.5378 5.81056 9.54445 6.28544C7.40457 6.80136 7.10557 6.8893 6.96487 7.02414C6.87107 7.11208 6.80071 7.2352 6.80071 7.29382C6.80071 7.35831 6.89452 7.78043 7.00591 8.24358C7.1173 8.70087 7.2111 9.0878 7.2111 9.10539C7.2111 9.11712 6.66001 9.12884 5.9858 9.12884H4.7605L4.73119 8.93537C4.62566 8.36083 4.09215 3.55343 4.12147 3.51825C4.16251 3.48308 11.0336 2.63885 11.4088 2.62713L11.5847 2.62126L11.7488 4.06935ZM17.8108 4.64975C19.4172 5.02496 20.7363 5.34155 20.7422 5.34741C20.7539 5.35914 20.5663 6.20923 20.3259 7.2352L19.8921 9.09953L18.4206 9.11712L16.949 9.12884L16.8904 8.91192C16.8552 8.78881 16.6442 7.9094 16.4155 6.95965C16.1869 6.0099 15.9582 5.17153 15.9113 5.09532C15.7648 4.86667 15.583 4.83736 15.0671 4.96047C14.5277 5.08359 14.5512 5.1129 14.6919 4.50905C14.8091 3.99899 14.8209 3.96968 14.8678 3.96968C14.8854 3.96968 16.2103 4.27454 17.8108 4.64975ZM15.4833 7.44625C15.6651 8.21426 15.8351 8.90606 15.8527 8.98228L15.8879 9.12884H12.083H8.27225L8.21362 8.90606C8.17844 8.78881 8.10223 8.47222 8.0436 8.2084L7.93221 7.72766L9.63825 7.31141C10.5763 7.08863 12.1475 6.70169 13.1324 6.46718C14.1173 6.22681 14.9733 6.03335 15.0378 6.03921C15.1375 6.05093 15.1961 6.22681 15.4833 7.44625ZM3.61728 8.22013C3.65245 8.54257 3.68763 8.87675 3.68763 8.96469L3.69349 9.12884H3.07791C2.73787 9.12884 2.46233 9.11712 2.46233 9.10539C2.46233 9.0878 2.66166 8.74191 2.90789 8.33738C3.46485 7.41108 3.51761 7.40521 3.61728 8.22013ZM22.5362 8.34324C22.7824 8.74777 22.9817 9.0878 22.9817 9.10539C22.9817 9.11712 22.5186 9.12884 21.9499 9.12884C21.0001 9.12884 20.9239 9.12298 20.9532 9.02332C20.9708 8.97055 21.0529 8.62465 21.135 8.26117L21.2933 7.60455H21.6919H22.0965L22.5362 8.34324ZM23.4507 10.3717C23.4507 10.4773 23.6618 14.6691 23.9198 19.6817C24.1777 24.6943 24.3888 28.8451 24.3888 28.8978C24.3888 28.9975 23.7966 29.0033 12.722 29.0033C1.64741 29.0033 1.05528 28.9975 1.05528 28.8978C1.05528 28.8451 1.26634 24.6943 1.5243 19.6817C1.78226 14.6691 1.99331 10.4773 1.99331 10.3717V10.1841H12.722H23.4507V10.3717Z" fill="white"></path><path d="M8.325 11.298C7.52768 11.6732 7.17005 12.5644 7.52768 13.3206C7.66252 13.6196 8.04359 14.0124 8.25465 14.0769C8.36604 14.1121 8.3719 14.1825 8.40121 15.4195C8.43053 16.8324 8.47743 17.1138 8.79988 17.7997C9.39201 19.0719 10.4942 19.9513 11.8543 20.2328C14.0822 20.69 16.2396 19.3709 16.8904 17.149C16.9959 16.7855 17.0194 16.5217 17.0428 15.4195C17.0721 14.1825 17.078 14.1121 17.1894 14.0769C17.3828 14.0183 17.7639 13.6431 17.8929 13.3851C18.4205 12.3533 17.5705 11.0928 16.4272 11.1984C15.6651 11.2628 15.1023 11.8139 15.026 12.5585C14.9674 13.1272 15.2957 13.7545 15.7941 14.0242L16.0051 14.1414V15.314C16.0051 16.6389 15.9582 16.9321 15.6182 17.5711C15.2371 18.2981 14.516 18.8961 13.7069 19.1599C12.2413 19.6348 10.547 18.943 9.82585 17.5711C9.48581 16.9321 9.43891 16.6389 9.43891 15.314V14.1414L9.64997 14.0242C9.9431 13.8659 10.2362 13.5024 10.3535 13.1565C10.5821 12.4647 10.2538 11.6908 9.58548 11.3449C9.23372 11.1632 8.65917 11.1456 8.325 11.298ZM9.13991 12.2654C9.32166 12.3592 9.45064 12.6289 9.39787 12.8165C9.36856 12.9396 9.36856 12.9396 9.22199 12.8223C9.02852 12.6699 8.79401 12.6758 8.60055 12.8223C8.45398 12.9396 8.44812 12.9396 8.41294 12.8282C8.35431 12.6347 8.44812 12.4061 8.64158 12.2888C8.8585 12.154 8.92886 12.154 9.13991 12.2654ZM16.7614 12.2654C16.9549 12.3592 17.0897 12.6406 17.0311 12.8165L16.9959 12.9396L16.8435 12.8223C16.6676 12.6816 16.3745 12.6699 16.1986 12.793C16.0931 12.8692 16.0696 12.8692 16.0403 12.793C15.9875 12.6523 16.1282 12.3533 16.2924 12.2654C16.4859 12.1598 16.5621 12.1598 16.7614 12.2654Z" fill="white"></path></svg> 