<?xml version="1.0" encoding="UTF-8"?> <svg xmlns="http://www.w3.org/2000/svg" width="30" height="31" viewBox="0 0 30 31" fill="none"><path d="M2.38076 1.0802C1.29593 1.34408 0.345973 2.2999 0.0879592 3.40233C0.0117279 3.72484 0 5.41366 0 15.8984C0 27.1161 0.00586395 28.0426 0.0996871 28.1951C0.152463 28.2889 0.258014 28.3886 0.334245 28.4238C0.433932 28.4707 2.63878 28.4883 7.73455 28.4883H14.9941L15.0234 29.0571C15.0703 29.9367 15.3459 30.4117 16.0203 30.7811L16.3897 30.9805H22.5176H28.6454L29.0148 30.7811C29.4253 30.5583 29.6012 30.3765 29.8358 29.9308L29.9941 29.6318V21.6275V13.6232L29.7947 13.2538C29.5777 12.8491 29.3315 12.6146 28.9093 12.4093L28.6454 12.2745L24.9687 12.2569L21.2861 12.2393V9.75298V7.2608H23.4851C25.9069 7.2608 26.0066 7.24908 26.1767 6.91483C26.3115 6.66268 26.3115 3.95354 26.1825 3.39646C25.9186 2.28231 24.9687 1.33822 23.8545 1.07434C23.3151 0.945333 2.90852 0.951197 2.38076 1.0802ZM20.43 2.55205C20.0195 3.23814 19.9961 3.51961 19.9961 8.29872V12.2393L18.1958 12.2569C16.4073 12.2745 16.3839 12.2745 16.0965 12.4211C15.7212 12.6029 15.3694 12.9547 15.1876 13.33L15.041 13.6232L15.0234 20.4371L15.0117 27.2569H8.12157H1.23143L1.24316 15.4821L1.26075 3.71312L1.42494 3.36128C1.5129 3.16777 1.67122 2.92148 1.77678 2.81593C1.98788 2.5931 2.41008 2.35854 2.73846 2.28231C2.86161 2.25299 6.90187 2.22954 11.7983 2.22367L20.6352 2.21781L20.43 2.55205ZM23.9366 2.43478C24.3412 2.61656 24.6403 2.92735 24.8573 3.38473C25.0039 3.69552 25.0097 3.76589 25.0273 4.83899L25.0508 5.97074H23.1685H21.2861V4.85659C21.2861 3.90663 21.3037 3.70139 21.3975 3.44924C21.7904 2.41718 22.9104 1.97152 23.9366 2.43478ZM28.4108 13.5704C28.8154 13.7639 28.792 13.2303 28.792 21.6275C28.792 28.4062 28.7803 29.2213 28.6982 29.3972C28.5105 29.796 28.8389 29.7784 22.5176 29.7784C16.1962 29.7784 16.5246 29.796 16.337 29.3972C16.2549 29.2213 16.2431 28.4062 16.2431 21.6275C16.2431 14.8605 16.2549 14.0278 16.337 13.8577C16.5246 13.459 16.1904 13.4766 22.5058 13.4766C27.5899 13.4766 28.2408 13.4883 28.4108 13.5704Z" fill="white"></path><path d="M4.16353 6.65679C3.68855 6.83271 3.63577 7.57743 4.08143 7.78266C4.18698 7.82958 6.04585 7.84717 10.6666 7.84717C17.0349 7.84717 17.1111 7.84717 17.2577 7.72989C17.4806 7.55397 17.5626 7.26077 17.4512 7.00862C17.2812 6.59228 17.721 6.61574 10.6315 6.6216C7.12482 6.6216 4.21044 6.63919 4.16353 6.65679Z" fill="white"></path><path d="M4.12236 9.81155C3.92885 9.89365 3.75293 10.1575 3.75293 10.3686C3.75293 10.5856 3.92885 10.8436 4.13409 10.9316C4.30414 11.0019 5.32447 11.0137 10.6489 11.0137C17.6446 11.0137 17.2517 11.0371 17.4394 10.6325C17.5567 10.3921 17.5567 10.3452 17.4394 10.1048C17.2517 9.70014 17.6446 9.72359 10.6313 9.72359C5.37724 9.72946 4.28068 9.74119 4.12236 9.81155Z" fill="white"></path><path d="M4.06376 12.9606C3.72952 13.1248 3.67088 13.676 3.96408 13.9517L4.11654 14.0924L8.68455 14.11C13.7745 14.1276 13.5282 14.1452 13.6982 13.7288C13.8096 13.4767 13.7275 13.1835 13.5047 13.0076C13.3581 12.8903 13.2819 12.8903 8.77251 12.8961C5.72912 12.8961 4.15172 12.9196 4.06376 12.9606Z" fill="white"></path><path d="M4.16353 16.0391C3.68855 16.215 3.63577 16.9598 4.08143 17.165C4.18698 17.2119 5.55328 17.2295 8.79018 17.2295C13.2761 17.2295 13.3582 17.2295 13.5048 17.1122C13.7276 16.9363 13.8097 16.6431 13.6983 16.3909C13.5283 15.9805 13.7628 15.9981 8.755 16.0039C6.28041 16.0039 4.21044 16.0215 4.16353 16.0391Z" fill="white"></path><path d="M4.12236 19.1938C3.92885 19.2759 3.75293 19.5398 3.75293 19.7509C3.75293 19.9679 3.92885 20.2259 4.13409 20.3139C4.30414 20.3842 5.07232 20.396 8.77247 20.396C13.6865 20.396 13.4988 20.4077 13.6865 20.0148C13.7392 19.9093 13.7803 19.792 13.7803 19.7509C13.7803 19.7099 13.7392 19.5926 13.6865 19.487C13.4988 19.0883 13.6923 19.1059 8.75488 19.1059C5.10164 19.1118 4.27482 19.1235 4.12236 19.1938Z" fill="white"></path><path d="M4.06376 22.343C3.72952 22.5072 3.67088 23.0584 3.96408 23.334L4.11654 23.4747L8.68455 23.4923C13.7745 23.5099 13.5282 23.5275 13.6982 23.1111C13.8096 22.859 13.7275 22.5658 13.5047 22.3899C13.3581 22.2726 13.2819 22.2726 8.77251 22.2785C5.72912 22.2785 4.15172 22.3019 4.06376 22.343Z" fill="white"></path><path d="M17.7033 14.9367L17.5332 15.1067V17.8745V20.6423L17.7033 20.8124L17.8733 20.9824H22.5176H27.1618L27.3319 20.8124L27.5019 20.6423V17.8745V15.1067L27.3319 14.9367L27.1618 14.7666H22.5176H17.8733L17.7033 14.9367ZM26.2705 17.8745V19.751H22.5176H18.7646V17.8745V15.9981H22.5176H26.2705V17.8745Z" fill="white"></path><path d="M17.7031 22.4425C17.4275 22.724 17.4862 23.2048 17.8263 23.4042C18.0667 23.5508 19.4623 23.5508 19.7027 23.4042C20.0429 23.2048 20.1015 22.724 19.8259 22.4425L19.6558 22.2725H18.7645H17.8732L17.7031 22.4425Z" fill="white"></path><path d="M21.4561 22.4425C21.1805 22.724 21.2391 23.2048 21.5792 23.4042C21.8196 23.5508 23.2153 23.5508 23.4557 23.4042C23.7958 23.2048 23.8544 22.724 23.5788 22.4425L23.4088 22.2725H22.5174H21.6261L21.4561 22.4425Z" fill="white"></path><path d="M25.209 22.4425C24.9334 22.724 24.992 23.2048 25.3321 23.4042C25.5726 23.5508 26.9682 23.5508 27.2086 23.4042C27.5487 23.2048 27.6074 22.724 27.3317 22.4425L27.1617 22.2725H26.2704H25.3791L25.209 22.4425Z" fill="white"></path><path d="M17.9085 24.8174C17.6681 24.923 17.5332 25.1223 17.5332 25.3804C17.5332 25.8612 17.844 26.0254 18.7646 26.0254C19.6853 26.0254 19.9961 25.8612 19.9961 25.3804C19.9961 25.1165 19.8612 24.923 19.609 24.8174C19.3452 24.706 18.1606 24.7119 17.9085 24.8174Z" fill="white"></path><path d="M21.6614 24.8174C21.421 24.923 21.2861 25.1223 21.2861 25.3804C21.2861 25.8612 21.5969 26.0254 22.5176 26.0254C23.4382 26.0254 23.749 25.8612 23.749 25.3804C23.749 25.1165 23.6141 24.923 23.362 24.8174C23.0981 24.706 21.9136 24.7119 21.6614 24.8174Z" fill="white"></path><path d="M25.4144 24.8174C25.1739 24.923 25.0391 25.1223 25.0391 25.3804C25.0391 25.8612 25.3499 26.0254 26.2705 26.0254C27.1911 26.0254 27.5019 25.8612 27.5019 25.3804C27.5019 25.1165 27.367 24.923 27.1149 24.8174C26.851 24.706 25.6665 24.7119 25.4144 24.8174Z" fill="white"></path><path d="M17.8147 27.3565C17.4864 27.5618 17.4277 28.0426 17.7033 28.3182L17.8734 28.4883H18.7647H19.656L19.8261 28.3182C20.0196 28.1247 20.0548 27.8315 19.914 27.5559C19.7792 27.3038 19.5974 27.2569 18.7471 27.2569C18.1314 27.2569 17.9438 27.2803 17.8147 27.3565Z" fill="white"></path><path d="M21.5677 27.3565C21.2393 27.5618 21.1807 28.0426 21.4563 28.3182L21.6263 28.4883H22.5176H23.409L23.579 28.3182C23.7725 28.1247 23.8077 27.8315 23.667 27.5559C23.5321 27.3038 23.3503 27.2569 22.5 27.2569C21.8843 27.2569 21.6967 27.2803 21.5677 27.3565Z" fill="white"></path><path d="M25.3206 27.3565C24.9922 27.5618 24.9336 28.0426 25.2092 28.3182L25.3792 28.4883H26.2706H27.1619L27.3319 28.3182C27.5254 28.1247 27.5606 27.8315 27.4199 27.5559C27.285 27.3038 27.1032 27.2569 26.253 27.2569C25.6373 27.2569 25.4496 27.2803 25.3206 27.3565Z" fill="white"></path></svg> 