<?xml version="1.0" encoding="UTF-8"?> <svg xmlns="http://www.w3.org/2000/svg" width="86" height="78" viewBox="0 0 86 78" fill="none"><mask id="path-1-inside-1_4465_1220" fill="white"><path d="M4.33802 28.3651C6.89625 26.58 11.0597 25.3803 14.6992 25.3803C16.2403 25.3803 17.621 25.5899 18.8033 26.0033C19.0145 26.0769 19.197 26.2148 19.3253 26.3967L20.5509 28.1326C24.0862 25.6925 26.7189 22.9506 28.301 20.0741C26.3134 20.1069 24.5031 19.7754 22.8809 19.0826C20.4104 18.0273 18.5114 16.1325 17.5338 13.7472C16.0069 10.0208 17.0792 5.97513 20.0279 4.3367C23.6679 2.31433 28.0719 3.71227 30.4995 7.66091C32.2131 10.4493 32.6225 14.0126 31.6525 17.529C32.0108 17.4516 32.3773 17.3635 32.7521 17.2627C35.7004 16.4705 40.0256 15.3088 43.8221 15.0758V9.88486C43.8221 9.29559 44.3027 8.81836 44.8949 8.81836H52.4749C53.0676 8.81836 53.5477 9.29606 53.5477 9.88486V22.0735H54.3988C54.9916 22.0735 55.4717 22.5512 55.4717 23.14V36.9876C60.4033 38.5581 64.8916 41.8401 68.1808 46.3016C71.6312 50.982 73.5316 56.6431 73.5316 62.2419C73.5316 67.8407 71.1323 71.8864 68.2336 75.9457C68.2298 75.9513 68.2251 75.956 68.2209 75.9611C68.2148 75.9691 68.21 75.9775 68.2039 75.9855C67.1221 77.3595 65.8135 77.9999 64.0853 77.9999H33.2836C31.5553 77.9999 30.2467 77.3595 29.165 75.9855C29.1588 75.978 29.1541 75.9696 29.148 75.9621C29.1437 75.9564 29.139 75.9513 29.1348 75.9457C26.2361 71.8864 23.8367 68.0531 23.8367 62.2419C23.8367 56.4308 25.7372 50.982 29.1876 46.3016C32.4768 41.8401 36.9656 38.5581 41.8967 36.9876V23.14C41.8967 22.5507 42.3773 22.0735 42.9695 22.0735H43.8207V17.2135C40.2755 17.4512 36.138 18.5631 33.3105 19.3226C32.4513 19.5537 31.6157 19.7314 30.8041 19.8561C29.1617 23.4836 26.0795 26.9119 21.7831 29.8798L23.0134 31.6223C23.1417 31.8042 23.21 32.0217 23.2081 32.2439C23.1695 36.8967 19.4809 42.5789 16.0602 44.9665C14.3333 46.1717 12.3093 46.8083 10.2062 46.8083C6.88117 46.8083 3.75705 45.1952 1.84863 42.4931C-1.38347 37.9163 -0.267279 31.5787 4.33661 28.3656L4.33802 28.3651ZM44.0438 24.2065V36.6801H53.326V24.2065H44.0438ZM33.2841 75.8664H64.0857C65.1501 75.8664 65.8296 75.5345 66.503 74.6846C68.9834 71.2094 70.938 68.1304 71.3181 63.8021H26.0517C26.4318 68.1304 28.3869 71.2099 30.8678 74.6855C31.5412 75.5345 32.2202 75.8664 33.2841 75.8664ZM25.9913 61.6686H71.3785C71.1177 51.2764 63.7943 41.5222 54.1348 38.8136H43.2355C33.5755 41.5222 26.2526 51.2764 25.9918 61.6686H25.9913ZM51.4021 22.073V10.9514H45.9682V22.073H51.4021ZM29.4154 17.5215C30.433 14.3909 30.1609 11.2022 28.6679 8.77382C26.835 5.79183 23.7132 4.7333 21.0748 6.19921C19.0702 7.31306 18.4024 10.2121 19.521 12.9428C20.6966 15.8123 23.8363 18.3358 29.2909 17.8862C29.3342 17.7648 29.3757 17.6434 29.4149 17.522L29.4154 17.5215ZM3.60662 41.2672C5.11327 43.4012 7.58097 44.6749 10.2076 44.6749C11.867 44.6749 13.4647 44.1719 14.8284 43.2202C17.6621 41.2424 20.8442 36.3407 21.0531 32.5571L17.7743 27.9137C16.8887 27.6483 15.8565 27.5143 14.6997 27.5143C11.5166 27.5143 7.76299 28.5826 5.57163 30.1118C1.93634 32.6489 1.05498 37.6533 3.60709 41.2677L3.60662 41.2672Z"></path></mask><path d="M4.33802 28.3651C6.89625 26.58 11.0597 25.3803 14.6992 25.3803C16.2403 25.3803 17.621 25.5899 18.8033 26.0033C19.0145 26.0769 19.197 26.2148 19.3253 26.3967L20.5509 28.1326C24.0862 25.6925 26.7189 22.9506 28.301 20.0741C26.3134 20.1069 24.5031 19.7754 22.8809 19.0826C20.4104 18.0273 18.5114 16.1325 17.5338 13.7472C16.0069 10.0208 17.0792 5.97513 20.0279 4.3367C23.6679 2.31433 28.0719 3.71227 30.4995 7.66091C32.2131 10.4493 32.6225 14.0126 31.6525 17.529C32.0108 17.4516 32.3773 17.3635 32.7521 17.2627C35.7004 16.4705 40.0256 15.3088 43.8221 15.0758V9.88486C43.8221 9.29559 44.3027 8.81836 44.8949 8.81836H52.4749C53.0676 8.81836 53.5477 9.29606 53.5477 9.88486V22.0735H54.3988C54.9916 22.0735 55.4717 22.5512 55.4717 23.14V36.9876C60.4033 38.5581 64.8916 41.8401 68.1808 46.3016C71.6312 50.982 73.5316 56.6431 73.5316 62.2419C73.5316 67.8407 71.1323 71.8864 68.2336 75.9457C68.2298 75.9513 68.2251 75.956 68.2209 75.9611C68.2148 75.9691 68.21 75.9775 68.2039 75.9855C67.1221 77.3595 65.8135 77.9999 64.0853 77.9999H33.2836C31.5553 77.9999 30.2467 77.3595 29.165 75.9855C29.1588 75.978 29.1541 75.9696 29.148 75.9621C29.1437 75.9564 29.139 75.9513 29.1348 75.9457C26.2361 71.8864 23.8367 68.0531 23.8367 62.2419C23.8367 56.4308 25.7372 50.982 29.1876 46.3016C32.4768 41.8401 36.9656 38.5581 41.8967 36.9876V23.14C41.8967 22.5507 42.3773 22.0735 42.9695 22.0735H43.8207V17.2135C40.2755 17.4512 36.138 18.5631 33.3105 19.3226C32.4513 19.5537 31.6157 19.7314 30.8041 19.8561C29.1617 23.4836 26.0795 26.9119 21.7831 29.8798L23.0134 31.6223C23.1417 31.8042 23.21 32.0217 23.2081 32.2439C23.1695 36.8967 19.4809 42.5789 16.0602 44.9665C14.3333 46.1717 12.3093 46.8083 10.2062 46.8083C6.88117 46.8083 3.75705 45.1952 1.84863 42.4931C-1.38347 37.9163 -0.267279 31.5787 4.33661 28.3656L4.33802 28.3651ZM44.0438 24.2065V36.6801H53.326V24.2065H44.0438ZM33.2841 75.8664H64.0857C65.1501 75.8664 65.8296 75.5345 66.503 74.6846C68.9834 71.2094 70.938 68.1304 71.3181 63.8021H26.0517C26.4318 68.1304 28.3869 71.2099 30.8678 74.6855C31.5412 75.5345 32.2202 75.8664 33.2841 75.8664ZM25.9913 61.6686H71.3785C71.1177 51.2764 63.7943 41.5222 54.1348 38.8136H43.2355C33.5755 41.5222 26.2526 51.2764 25.9918 61.6686H25.9913ZM51.4021 22.073V10.9514H45.9682V22.073H51.4021ZM29.4154 17.5215C30.433 14.3909 30.1609 11.2022 28.6679 8.77382C26.835 5.79183 23.7132 4.7333 21.0748 6.19921C19.0702 7.31306 18.4024 10.2121 19.521 12.9428C20.6966 15.8123 23.8363 18.3358 29.2909 17.8862C29.3342 17.7648 29.3757 17.6434 29.4149 17.522L29.4154 17.5215ZM3.60662 41.2672C5.11327 43.4012 7.58097 44.6749 10.2076 44.6749C11.867 44.6749 13.4647 44.1719 14.8284 43.2202C17.6621 41.2424 20.8442 36.3407 21.0531 32.5571L17.7743 27.9137C16.8887 27.6483 15.8565 27.5143 14.6997 27.5143C11.5166 27.5143 7.76299 28.5826 5.57163 30.1118C1.93634 32.6489 1.05498 37.6533 3.60709 41.2677L3.60662 41.2672Z" fill="white"></path><path d="M4.33802 28.3651L5.48252 30.0053L5.24466 30.1713L4.96943 30.2628L4.33802 28.3651ZM18.8033 26.0033L18.1453 27.892L18.143 27.8912L18.8033 26.0033ZM19.3253 26.3967L17.6915 27.5502L17.6908 27.5493L19.3253 26.3967ZM20.5509 28.1326L21.687 29.7786L20.0584 30.9027L18.917 29.2861L20.5509 28.1326ZM28.301 20.0741L28.268 18.0743L31.7148 18.0174L30.0535 21.0379L28.301 20.0741ZM22.8809 19.0826L22.0953 20.9218L22.0953 20.9218L22.8809 19.0826ZM17.5338 13.7472L15.6832 14.5057L15.6832 14.5056L17.5338 13.7472ZM20.0279 4.3367L19.0565 2.58845L19.0566 2.58842L20.0279 4.3367ZM30.4995 7.66091L32.2032 6.61344L32.2034 6.61371L30.4995 7.66091ZM31.6525 17.529L32.0744 19.484L28.8463 20.1807L29.7245 16.9971L31.6525 17.529ZM32.7521 17.2627L32.2329 15.3313L32.2331 15.3312L32.7521 17.2627ZM43.8221 15.0758H45.8221V16.9568L43.9446 17.072L43.8221 15.0758ZM53.5477 22.0735V24.0735H51.5477V22.0735H53.5477ZM55.4717 36.9876L54.8648 38.8933L53.4717 38.4497V36.9876H55.4717ZM68.1808 46.3016L69.7906 45.1148L69.7906 45.1148L68.1808 46.3016ZM68.2336 75.9457L66.5725 74.8317L66.5889 74.8073L66.606 74.7834L68.2336 75.9457ZM68.2209 75.9611L66.6356 74.7417L66.6557 74.7156L66.6766 74.6902L68.2209 75.9611ZM68.2039 75.9855L69.7892 77.2049L69.7823 77.2138L69.7753 77.2227L68.2039 75.9855ZM29.165 75.9855L30.7135 74.7198L30.7251 74.734L30.7364 74.7483L29.165 75.9855ZM29.148 75.9621L27.5994 77.2277L27.5748 77.1976L27.5514 77.1666L29.148 75.9621ZM29.1348 75.9457L27.5382 77.1502L27.5224 77.1293L27.5072 77.1079L29.1348 75.9457ZM29.1876 46.3016L27.5778 45.1148L27.5778 45.1148L29.1876 46.3016ZM41.8967 36.9876H43.8967V38.4496L42.5036 38.8933L41.8967 36.9876ZM43.8207 22.0735H45.8207V24.0735H43.8207V22.0735ZM43.8207 17.2135L43.6869 15.218L45.8207 15.0749V17.2135H43.8207ZM33.3105 19.3226L32.791 17.3912L32.7917 17.391L33.3105 19.3226ZM30.8041 19.8561L28.9822 19.0311L29.4292 18.0439L30.5004 17.8793L30.8041 19.8561ZM21.7831 29.8798L20.1493 31.0333L18.9838 29.3827L20.6464 28.2342L21.7831 29.8798ZM23.0134 31.6223L24.6472 30.4687L24.6479 30.4697L23.0134 31.6223ZM23.2081 32.2439L21.2082 32.2273L21.2082 32.2269L23.2081 32.2439ZM16.0602 44.9665L17.2049 46.6065L17.2048 46.6065L16.0602 44.9665ZM1.84863 42.4931L0.214993 43.6469L0.214931 43.6468L1.84863 42.4931ZM4.33661 28.3656L3.19198 26.7255L3.4299 26.5595L3.70519 26.4679L4.33661 28.3656ZM44.0438 24.2065H42.0438V22.2065H44.0438V24.2065ZM44.0438 36.6801V38.6801H42.0438V36.6801H44.0438ZM53.326 36.6801H55.326V38.6801H53.326V36.6801ZM53.326 24.2065V22.2065H55.326V24.2065H53.326ZM66.503 74.6846L68.1308 75.8465L68.1017 75.8873L68.0706 75.9266L66.503 74.6846ZM71.3181 63.8021V61.8021H73.5014L73.3105 63.977L71.3181 63.8021ZM26.0517 63.8021L24.0594 63.977L23.8684 61.8021H26.0517V63.8021ZM30.8678 74.6855L29.3008 75.9284L29.2694 75.8887L29.2399 75.8475L30.8678 74.6855ZM71.3785 61.6686L73.3778 61.6184L73.4293 63.6686H71.3785V61.6686ZM54.1348 38.8136V36.8136H54.4099L54.6748 36.8878L54.1348 38.8136ZM43.2355 38.8136L42.6955 36.8878L42.9604 36.8136H43.2355V38.8136ZM25.9918 61.6686L27.9912 61.7188L27.9422 63.6686H25.9918V61.6686ZM51.4021 22.073H53.4021V24.073H51.4021V22.073ZM51.4021 10.9514V8.95136H53.4021V10.9514H51.4021ZM45.9682 10.9514H43.9682V8.95136H45.9682V10.9514ZM45.9682 22.073V24.073H43.9682V22.073H45.9682ZM29.4154 17.5215L31.3174 18.1398L31.1675 18.6008L30.8232 18.942L29.4154 17.5215ZM28.6679 8.77382L26.9642 9.82131L26.9641 9.82115L28.6679 8.77382ZM21.0748 6.19921L20.1034 4.45096L20.1034 4.45094L21.0748 6.19921ZM19.521 12.9428L17.6703 13.701L17.6702 13.7009L19.521 12.9428ZM29.2909 17.8862L31.1742 18.5592L30.7403 19.7735L29.4551 19.8794L29.2909 17.8862ZM29.4149 17.522L27.5113 16.9083L27.6609 16.4445L28.007 16.1014L29.4149 17.522ZM3.60662 41.2672L1.97281 42.4208L5.01666 39.8488L3.60662 41.2672ZM14.8284 43.2202L15.9732 44.8602L15.973 44.8604L14.8284 43.2202ZM21.0531 32.5571L22.6869 31.4034L23.0884 31.9722L23.0501 32.6673L21.0531 32.5571ZM17.7743 27.9137L18.3483 25.9978L19.0098 26.196L19.4081 26.76L17.7743 27.9137ZM5.57163 30.1118L4.42701 28.4718L4.4271 28.4717L5.57163 30.1118ZM3.60709 41.2677L5.24086 40.1141L2.19706 42.6861L3.60709 41.2677ZM3.19351 26.725C6.14062 24.6684 10.7204 23.3803 14.6992 23.3803V27.3803C11.399 27.3803 7.65189 28.4915 5.48252 30.0053L3.19351 26.725ZM14.6992 23.3803C16.4151 23.3803 18.0265 23.6129 19.4635 24.1155L18.143 27.8912C17.2156 27.5668 16.0655 27.3803 14.6992 27.3803V23.3803ZM19.4612 24.1147C20.0671 24.3257 20.591 24.7211 20.9598 25.2441L17.6908 27.5493C17.8031 27.7085 17.962 27.8281 18.1453 27.892L19.4612 24.1147ZM20.9591 25.2431L22.1847 26.9791L18.917 29.2861L17.6915 27.5502L20.9591 25.2431ZM19.4148 26.4866C22.7688 24.1717 25.1544 21.6452 26.5486 19.1102L30.0535 21.0379C28.2835 24.2559 25.4036 27.2134 21.687 29.7786L19.4148 26.4866ZM28.3341 22.0738C26.1007 22.1107 24.0067 21.7382 22.0953 20.9218L23.6665 17.2433C24.9994 17.8126 26.5261 18.1031 28.268 18.0743L28.3341 22.0738ZM22.0953 20.9218C19.1642 19.6698 16.8692 17.3994 15.6832 14.5057L19.3844 12.9888C20.1536 14.8655 21.6565 16.3848 23.6665 17.2433L22.0953 20.9218ZM15.6832 14.5056C13.8825 10.111 14.989 4.84854 19.0565 2.58845L20.9993 6.08495C19.1694 7.10172 18.1313 9.93062 19.3845 12.9889L15.6832 14.5056ZM19.0566 2.58842C23.7927 -0.0429738 29.3166 1.91814 32.2032 6.61344L28.7957 8.70838C26.8271 5.5064 23.5431 4.67164 20.9993 6.08499L19.0566 2.58842ZM32.2034 6.61371C34.2447 9.93512 34.6779 14.0823 33.5805 18.0608L29.7245 16.9971C30.567 13.9428 30.1816 10.9635 28.7955 8.7081L32.2034 6.61371ZM31.2305 15.574C31.5574 15.5035 31.8913 15.4231 32.2329 15.3313L33.2714 19.1941C32.8632 19.3039 32.4643 19.3998 32.0744 19.484L31.2305 15.574ZM32.2331 15.3312C35.1408 14.5499 39.6655 13.3271 43.6996 13.0796L43.9446 17.072C40.3857 17.2904 36.26 18.391 33.2712 19.1942L32.2331 15.3312ZM41.8221 15.0758V9.88486H45.8221V15.0758H41.8221ZM41.8221 9.88486C41.8221 8.17934 43.2098 6.81836 44.8949 6.81836V10.8184C45.3955 10.8184 45.8221 10.4118 45.8221 9.88486H41.8221ZM44.8949 6.81836H52.4749V10.8184H44.8949V6.81836ZM52.4749 6.81836C54.1616 6.81836 55.5477 8.18095 55.5477 9.88486H51.5477C51.5477 10.4112 51.9736 10.8184 52.4749 10.8184V6.81836ZM55.5477 9.88486V22.0735H51.5477V9.88486H55.5477ZM53.5477 20.0735H54.3988V24.0735H53.5477V20.0735ZM54.3988 20.0735C56.0856 20.0735 57.4717 21.4361 57.4717 23.14H53.4717C53.4717 23.6663 53.8976 24.0735 54.3988 24.0735V20.0735ZM57.4717 23.14V36.9876H53.4717V23.14H57.4717ZM56.0785 35.0819C61.4388 36.7889 66.2686 40.3374 69.7906 45.1148L66.571 47.4884C63.5147 43.3427 59.3677 40.3273 54.8648 38.8933L56.0785 35.0819ZM69.7906 45.1148C73.484 50.1248 75.5316 56.1987 75.5316 62.2419H71.5316C71.5316 57.0876 69.7784 51.8392 66.571 47.4884L69.7906 45.1148ZM75.5316 62.2419C75.5316 68.4917 72.8162 72.9699 69.8612 77.1079L66.606 74.7834C69.4485 70.8028 71.5316 67.1897 71.5316 62.2419H75.5316ZM69.8947 77.0596C69.8243 77.1646 69.7591 77.2399 69.7394 77.2627C69.7338 77.2692 69.7292 77.2745 69.7276 77.2763C69.7241 77.2802 69.7273 77.2766 69.728 77.2758C69.7312 77.2721 69.7463 77.255 69.7651 77.2321L66.6766 74.6902C66.6976 74.6647 66.7148 74.645 66.7202 74.6389C66.722 74.6368 66.7263 74.632 66.724 74.6346C66.7235 74.6352 66.72 74.6391 66.7154 74.6444C66.7001 74.6622 66.6392 74.7324 66.5725 74.8317L69.8947 77.0596ZM69.8061 77.1805C69.8327 77.146 69.8528 77.1174 69.8646 77.1002C69.8706 77.0914 69.8753 77.0845 69.8779 77.0806C69.8801 77.0772 69.882 77.0744 69.8809 77.0761C69.8806 77.0765 69.8774 77.0813 69.8738 77.0868C69.8699 77.0927 69.8638 77.1017 69.8564 77.1124C69.8417 77.1338 69.8188 77.1664 69.7892 77.2049L66.6187 74.7661C66.5921 74.8006 66.572 74.8292 66.5601 74.8465C66.5541 74.8552 66.5495 74.8621 66.5469 74.866C66.5446 74.8694 66.5428 74.8722 66.5439 74.8705C66.5442 74.8701 66.5474 74.8653 66.551 74.8598C66.5549 74.854 66.561 74.845 66.5684 74.8342C66.5831 74.8128 66.606 74.7802 66.6356 74.7417L69.8061 77.1805ZM69.7753 77.2227C68.3199 79.0714 66.4355 79.9999 64.0853 79.9999V75.9999C65.1916 75.9999 65.9244 75.6477 66.6325 74.7483L69.7753 77.2227ZM64.0853 79.9999H33.2836V75.9999H64.0853V79.9999ZM33.2836 79.9999C30.9334 79.9999 29.049 79.0714 27.5935 77.2227L30.7364 74.7483C31.4445 75.6477 32.1772 75.9999 33.2836 75.9999V79.9999ZM27.6164 77.2512C27.5788 77.2052 27.5502 77.1661 27.5324 77.1412C27.5234 77.1286 27.5161 77.1181 27.5115 77.1113C27.5071 77.1051 27.5034 77.0995 27.5032 77.0993C27.502 77.0975 27.5044 77.1011 27.5074 77.1054C27.5107 77.1101 27.5166 77.1187 27.5242 77.1293C27.5391 77.1503 27.5649 77.1855 27.5994 77.2277L30.6966 74.6964C30.7341 74.7423 30.7628 74.7815 30.7805 74.8063C30.7895 74.819 30.7968 74.8295 30.8015 74.8362C30.8058 74.8425 30.8095 74.848 30.8097 74.8483C30.8109 74.85 30.8085 74.8465 30.8056 74.8422C30.8023 74.8374 30.7963 74.8289 30.7887 74.8182C30.7738 74.7973 30.748 74.762 30.7135 74.7198L27.6164 77.2512ZM27.5514 77.1666C27.5687 77.1895 27.583 77.2074 27.5913 77.2177C27.5956 77.223 27.599 77.2271 27.6008 77.2293C27.6025 77.2313 27.6038 77.2328 27.6029 77.2318C27.6027 77.2315 27.6002 77.2286 27.5975 77.2252C27.5945 77.2217 27.59 77.2162 27.5847 77.2096C27.5741 77.1965 27.5576 77.1759 27.5382 77.1502L30.7314 74.7411C30.7141 74.7182 30.6998 74.7004 30.6914 74.69C30.6871 74.6848 30.6838 74.6807 30.6819 74.6784C30.6803 74.6765 30.679 74.6749 30.6798 74.6759C30.6801 74.6762 30.6825 74.6792 30.6853 74.6825C30.6882 74.6861 30.6927 74.6915 30.6981 74.6982C30.7087 74.7112 30.7252 74.7318 30.7446 74.7575L27.5514 77.1666ZM27.5072 77.1079C24.5616 72.9831 21.8367 68.7124 21.8367 62.2419H25.8367C25.8367 67.3937 27.9105 70.7897 30.7624 74.7834L27.5072 77.1079ZM21.8367 62.2419C21.8367 55.9781 23.8895 50.1179 27.5778 45.1148L30.7974 47.4884C27.5848 51.8461 25.8367 56.8834 25.8367 62.2419H21.8367ZM27.5778 45.1148C31.0998 40.3374 35.93 36.7889 41.2898 35.0819L42.5036 38.8933C38.0011 40.3273 33.8537 43.3428 30.7974 47.4884L27.5778 45.1148ZM39.8967 36.9876V23.14H43.8967V36.9876H39.8967ZM39.8967 23.14C39.8967 21.4344 41.2844 20.0735 42.9695 20.0735V24.0735C43.4701 24.0735 43.8967 23.6669 43.8967 23.14H39.8967ZM42.9695 20.0735H43.8207V24.0735H42.9695V20.0735ZM41.8207 22.0735V17.2135H45.8207V22.0735H41.8207ZM43.9545 19.209C40.6412 19.4311 36.7002 20.483 33.8293 21.2541L32.7917 17.391C35.5758 16.6433 39.9098 15.4712 43.6869 15.218L43.9545 19.209ZM33.83 21.2539C32.9052 21.5027 31.9974 21.6962 31.1078 21.8329L30.5004 17.8793C31.2339 17.7666 31.9974 17.6047 32.791 17.3912L33.83 21.2539ZM32.6261 20.681C30.7945 24.7261 27.4252 28.4131 22.9198 31.5253L20.6464 28.2342C24.7338 25.4106 27.5288 22.2411 28.9822 19.0311L32.6261 20.681ZM23.4169 28.7262L24.6472 30.4687L21.3796 32.7758L20.1493 31.0333L23.4169 28.7262ZM24.6479 30.4697C25.0157 30.9913 25.2135 31.6173 25.2081 32.2609L21.2082 32.2269C21.2065 32.426 21.2676 32.6171 21.3789 32.7749L24.6479 30.4697ZM25.2081 32.2605C25.1848 35.061 24.0837 37.9933 22.6259 40.4694C21.1631 42.9538 19.2047 45.2106 17.2049 46.6065L14.9155 43.3264C16.3363 42.3347 17.9327 40.5566 19.179 38.4399C20.4303 36.3147 21.1928 34.0796 21.2082 32.2273L25.2081 32.2605ZM17.2048 46.6065C15.1426 48.0459 12.7191 48.8083 10.2062 48.8083V44.8083C11.8996 44.8083 13.5241 44.2976 14.9155 43.3264L17.2048 46.6065ZM10.2062 48.8083C6.23544 48.8083 2.50047 46.8829 0.214993 43.6469L3.48227 41.3393C5.01364 43.5076 7.52689 44.8083 10.2062 44.8083V48.8083ZM0.214931 43.6468C-3.65908 38.161 -2.31807 30.571 3.19198 26.7255L5.48123 30.0057C1.78351 32.5863 0.892124 37.6716 3.48233 41.3394L0.214931 43.6468ZM3.70519 26.4679L3.7066 26.4674L4.96943 30.2628L4.96802 30.2633L3.70519 26.4679ZM46.0438 24.2065V36.6801H42.0438V24.2065H46.0438ZM44.0438 34.6801H53.326V38.6801H44.0438V34.6801ZM51.326 36.6801V24.2065H55.326V36.6801H51.326ZM53.326 26.2065H44.0438V22.2065H53.326V26.2065ZM33.2841 73.8664H64.0857V77.8664H33.2841V73.8664ZM64.0857 73.8664C64.4058 73.8664 64.5214 73.8176 64.5626 73.7974C64.6064 73.776 64.7242 73.7091 64.9354 73.4426L68.0706 75.9266C67.6084 76.51 67.0496 77.034 66.3193 77.3911C65.5863 77.7493 64.83 77.8664 64.0857 77.8664V73.8664ZM64.8751 73.5227C67.3329 70.0792 68.9963 67.3794 69.3258 63.6271L73.3105 63.977C72.8798 68.8815 70.6339 72.3397 68.1308 75.8465L64.8751 73.5227ZM71.3181 65.8021H26.0517V61.8021H71.3181V65.8021ZM28.044 63.6271C28.3735 67.3793 30.0373 70.0795 32.4956 73.5236L29.2399 75.8475C26.7365 72.3403 24.49 68.8815 24.0594 63.977L28.044 63.6271ZM32.4347 73.4427C32.646 73.7091 32.7638 73.776 32.8077 73.7975C32.8489 73.8176 32.9644 73.8664 33.2841 73.8664V77.8664C32.5399 77.8664 31.7839 77.7493 31.0513 77.3912C30.3214 77.0345 29.7629 76.511 29.3008 75.9284L32.4347 73.4427ZM25.9913 59.6686H71.3785V63.6686H25.9913V59.6686ZM69.3791 61.7188C69.139 52.1521 62.3597 43.1971 53.5948 40.7393L54.6748 36.8878C65.2289 39.8474 73.0964 50.4007 73.3778 61.6184L69.3791 61.7188ZM54.1348 40.8136H43.2355V36.8136H54.1348V40.8136ZM43.7755 40.7393C35.0102 43.1971 28.2312 52.1521 27.9912 61.7188L23.9924 61.6184C24.2739 50.4007 32.1408 39.8474 42.6955 36.8878L43.7755 40.7393ZM25.9918 63.6686H25.9913V59.6686H25.9918V63.6686ZM49.4021 22.073V10.9514H53.4021V22.073H49.4021ZM51.4021 12.9514H45.9682V8.95136H51.4021V12.9514ZM47.9682 10.9514V22.073H43.9682V10.9514H47.9682ZM45.9682 20.073H51.4021V24.073H45.9682V20.073ZM27.5133 16.9032C28.381 14.2338 28.1008 11.67 26.9642 9.82131L30.3717 7.72633C32.221 10.7343 32.4849 14.548 31.3174 18.1398L27.5133 16.9032ZM26.9641 9.82115C25.5501 7.52085 23.5296 7.12329 22.0461 7.94749L20.1034 4.45094C23.8968 2.34331 28.1198 4.06281 30.3718 7.7265L26.9641 9.82115ZM22.0462 7.94746C21.2509 8.38934 20.4781 10.0031 21.3717 12.1847L17.6702 13.7009C16.3267 10.421 16.8894 6.23679 20.1034 4.45096L22.0462 7.94746ZM21.3717 12.1846C22.1853 14.1706 24.4557 16.2779 29.1266 15.893L29.4551 19.8794C23.2168 20.3936 19.2079 17.454 17.6703 13.701L21.3717 12.1846ZM27.4075 17.2132C27.4447 17.109 27.4794 17.0075 27.5113 16.9083L31.3184 18.1356C31.2721 18.2792 31.2238 18.4205 31.1742 18.5592L27.4075 17.2132ZM28.007 16.1014L28.0075 16.101L30.8232 18.942L30.8228 18.9425L28.007 16.1014ZM5.24044 40.1137C6.36975 41.7132 8.22629 42.6749 10.2076 42.6749V46.6749C6.93565 46.6749 3.85678 45.0891 1.97281 42.4208L5.24044 40.1137ZM10.2076 42.6749C11.4567 42.6749 12.655 42.298 13.6839 41.5801L15.973 44.8604C14.2743 46.0457 12.2774 46.6749 10.2076 46.6749V42.6749ZM13.6837 41.5802C14.8059 40.797 16.1342 39.317 17.2134 37.5313C18.2973 35.7378 18.9765 33.8895 19.0561 32.4468L23.0501 32.6673C22.9208 35.0082 21.9045 37.5026 20.6367 39.6003C19.3642 41.7058 17.6847 43.6656 15.9732 44.8602L13.6837 41.5802ZM19.4193 33.7107L16.1406 29.0673L19.4081 26.76L22.6869 31.4034L19.4193 33.7107ZM17.2003 29.8295C16.5408 29.6319 15.7086 29.5143 14.6997 29.5143V25.5143C16.0043 25.5143 17.2366 25.6647 18.3483 25.9978L17.2003 29.8295ZM14.6997 29.5143C11.8461 29.5143 8.51181 30.4989 6.71617 31.752L4.4271 28.4717C7.01417 26.6664 11.1872 25.5143 14.6997 25.5143V29.5143ZM6.71625 31.7519C3.98721 33.6565 3.33049 37.4085 5.24086 40.1141L1.97332 42.4213C-1.22052 37.8981 -0.114536 31.6413 4.42701 28.4718L6.71625 31.7519ZM2.19706 42.6861L2.19658 42.6856L5.01666 39.8488L5.01713 39.8493L2.19706 42.6861Z" fill="white" mask="url(#path-1-inside-1_4465_1220)"></path><path d="M54.4131 43.1379L54.4223 43.1417C54.6505 43.237 61.2928 46.0809 64.1547 53.4796L54.4131 43.1379ZM54.4131 43.1379C54.3754 43.1275 54.3375 43.148 54.3248 43.1782L54.3245 43.1787C54.3126 43.207 54.3233 43.2464 54.3628 43.263L54.3628 43.263L54.3672 43.2648C54.5086 43.325 61.1924 46.2198 64.0173 53.5237L64.0175 53.5242C64.0226 53.5375 64.0304 53.5472 64.0423 53.5552C64.0559 53.5642 64.0718 53.5689 64.0862 53.5689C64.0935 53.5689 64.1028 53.5677 64.1146 53.5633C64.1534 53.5481 64.1661 53.5093 64.1547 53.4796L54.4131 43.1379Z" fill="white" stroke="white" stroke-width="2"></path><path d="M79.5872 22.6032L79.5868 22.6034C79.5579 22.6177 79.5456 22.6459 79.5495 22.6711L78.562 22.8216L79.5493 22.6703C79.6006 23.0046 79.626 23.3449 79.626 23.6829C79.626 27.3802 76.6036 30.3769 72.8983 30.3769C72.856 30.3769 72.8298 30.407 72.826 30.4361V30.4438C72.826 30.4751 72.8531 30.5103 72.8988 30.5103C76.6938 30.5103 79.7725 27.4413 79.7725 23.6829C79.7725 23.5602 79.7689 23.4354 79.7621 23.3082L79.7304 22.7089L80.2444 22.399C82.5808 20.9903 84.0015 18.5039 84.0015 15.7552C84.0015 13.0064 82.5808 10.5201 80.2444 9.11134L79.7284 8.80021L79.7623 8.19862C79.7692 8.07651 79.7725 7.95236 79.7725 7.82789C79.7725 4.06948 76.6937 1 72.8988 1C72.8531 1 72.8255 1.03572 72.8255 1.06697C72.8255 1.09822 72.8526 1.13347 72.8983 1.13347C76.6032 1.13347 79.626 4.13014 79.626 7.82789C79.626 8.16654 79.5999 8.50634 79.5496 8.83844L79.5495 8.83924C79.5457 8.86384 79.5579 8.89259 79.5872 8.9071L79.5874 8.90718C82.2143 10.2075 83.8549 12.8333 83.8549 15.7552C83.8549 18.6769 82.2143 21.3033 79.5872 22.6032Z" fill="white" stroke="white" stroke-width="2"></path><path d="M65.9607 15.6887C65.9148 15.6887 65.8879 15.7241 65.8879 15.7552C65.8879 15.7865 65.9149 15.8217 65.9607 15.8217H75.1859C75.2315 15.8217 75.2587 15.7862 75.2587 15.7552C75.2587 15.724 75.2316 15.6887 75.1859 15.6887H65.9607Z" fill="white" stroke="white" stroke-width="2"></path><path d="M72.9106 7.58053L72.9111 7.58028C72.9514 7.56241 72.9954 7.58264 73.0102 7.61561C73.0231 7.64443 73.0128 7.68359 72.9741 7.70081C72.9741 7.70082 72.974 7.70083 72.974 7.70083L64.6218 11.4012C64.6217 11.4012 64.6217 11.4013 64.6216 11.4013C64.6088 11.4069 64.5984 11.4085 64.5903 11.4085C64.5758 11.4085 64.5603 11.4041 64.5474 11.3959L72.9106 7.58053ZM72.9106 7.58053L64.558 11.2811C64.558 11.2811 64.558 11.2811 64.558 11.2811M72.9106 7.58053L64.558 11.2811M64.558 11.2811C64.5193 11.2983 64.509 11.3373 64.5217 11.3661L64.558 11.2811Z" fill="white" stroke="white" stroke-width="2"></path><path d="M64.5221 20.1428L64.5218 20.1435C64.5089 20.1723 64.5192 20.2114 64.5579 20.2287C64.5579 20.2287 64.558 20.2287 64.558 20.2287L72.9102 23.9291C72.9231 23.9348 72.9336 23.9364 72.9417 23.9364C72.9563 23.9364 72.9719 23.9319 72.9849 23.9237C72.9962 23.9165 73.0042 23.9076 73.0099 23.8948L73.0102 23.8942C73.0231 23.8653 73.0128 23.8261 72.974 23.8089L64.6218 20.1086C64.6218 20.1086 64.6218 20.1086 64.6217 20.1085C64.5793 20.0898 64.536 20.1118 64.5221 20.1428Z" fill="white" stroke="white" stroke-width="2"></path></svg> 