<?xml version="1.0" encoding="UTF-8"?> <svg xmlns="http://www.w3.org/2000/svg" width="48" height="85" viewBox="0 0 48 85" fill="none"><path d="M27.0001 84.0016H15.0005C14.4867 84.0016 14.0067 83.7392 13.733 83.3042C13.538 82.9967 9.00062 75.7181 9.00062 67.5021C9.00062 64.1422 10.5793 61.911 12.1018 59.7548C13.5905 57.6473 15.0005 55.6599 15.0005 52.5025C15.0005 49.7238 12.5743 47.6839 12.548 47.6614C12.0605 47.2564 11.8768 46.5889 12.0905 45.9964C12.3043 45.4039 12.8668 45.0027 13.5005 45.0027H28.5001C29.1338 45.0027 29.7001 45.4039 29.9138 46.0002C30.1276 46.5964 29.9401 47.2676 29.4451 47.6651C29.4263 47.6801 27.0001 49.7201 27.0001 52.5025C27.0001 55.6562 28.4064 57.6473 29.8988 59.7548C31.425 61.911 33 64.1422 33 67.5021C33 75.7181 28.4626 82.9967 28.2676 83.3042C27.9939 83.7392 27.5139 84.0016 27.0001 84.0016ZM15.8629 81.0017H26.1377C27.2026 79.078 30.0001 73.4644 30.0001 67.5021C30.0001 65.0946 28.8188 63.4222 27.4464 61.4872C25.8302 59.2036 24.0002 56.6124 24.0002 52.5025C24.0002 50.7213 24.6077 49.1876 25.3202 48.0026H16.6842C17.3966 49.1876 18.0041 50.7213 18.0041 52.5025C18.0041 56.6124 16.1742 59.1998 14.558 61.4872C13.1893 63.4222 12.0043 65.0946 12.0043 67.5021C12.0043 73.4644 14.8017 79.078 15.8667 81.0017H15.8629Z" fill="white"></path><path d="M33.0975 24.1007C31.7063 24.1007 30.1875 23.7857 28.5901 23.1669C28.4101 23.0957 28.2451 22.9944 28.1026 22.8595C22.0203 17.1409 24.8064 12.3822 27.2664 8.1861C28.5338 6.0224 29.8426 3.78746 30.0001 1.40253C30.0413 0.783793 30.4575 0.255057 31.05 0.0675624C31.6425 -0.116183 32.2875 0.082562 32.6737 0.570049C32.8687 0.817542 36.6486 5.66616 36.5586 10.7773C38.2048 10.0873 40.376 9.41606 42.5772 9.41606C44.3847 9.41606 45.9821 9.86605 47.3246 10.751C47.8196 11.0773 48.0746 11.6623 47.9808 12.2435C47.8871 12.8247 47.4596 13.301 46.8859 13.451C45.3409 13.8634 44.0397 15.6596 42.656 17.5608C40.541 20.4745 37.9123 24.1007 33.0975 24.1007ZM29.9476 20.4745C31.095 20.8908 32.1525 21.1007 33.0975 21.1007C36.3824 21.1007 38.2498 18.5246 40.226 15.7984C41.0885 14.6097 41.966 13.4022 42.9822 12.4272C42.8472 12.4197 42.7122 12.416 42.5772 12.416C39.0486 12.416 35.3399 14.7447 35.3024 14.7672C34.7474 15.1197 34.0312 15.0709 33.5287 14.6472C33.0262 14.2234 32.8612 13.526 33.1162 12.9185C34.1662 10.4285 33.1912 7.47361 32.115 5.33617C31.4963 6.91113 30.645 8.35859 29.8576 9.70481C27.4651 13.7847 25.8752 16.5034 29.9476 20.4745Z" fill="white"></path><path d="M42.0147 12.4499C41.8572 12.4499 41.696 12.4236 41.5385 12.3711C40.7548 12.1087 40.3273 11.2612 40.5898 10.4737C41.5722 7.53378 41.2573 5.61383 40.9423 4.66885C37.3911 4.9876 35.0512 7.03504 35.0287 7.05754C34.4099 7.60503 33.465 7.55628 32.9137 6.94129C32.3625 6.32631 32.4075 5.38509 33.0187 4.8301C33.1612 4.69885 36.6149 1.62769 41.8722 1.62769C42.356 1.62769 42.8097 1.86018 43.091 2.25392C43.3272 2.58766 45.3559 5.66633 43.4322 11.4224C43.2222 12.0487 42.6372 12.4461 42.011 12.4461L42.0147 12.4499Z" fill="white"></path><path d="M21.0003 48.0025C20.2691 48.0025 19.6316 47.47 19.5191 46.7275C18.0829 37.2253 21.2815 27.5018 28.0726 20.7107C28.6576 20.1257 29.6101 20.1257 30.195 20.7107C30.78 21.2957 30.78 22.2482 30.195 22.8332C24.0715 28.953 21.1915 37.7165 22.4853 46.2813C22.609 47.0988 22.0465 47.8637 21.2253 47.9875C21.1503 47.9987 21.0753 48.0062 21.0003 48.0062V48.0025Z" fill="white"></path><path d="M20.8878 40.2514C20.8653 40.2514 20.8391 40.2514 20.8166 40.2514C10.8231 39.764 2.2808 32.6054 0.0383601 22.8369C-0.0591373 22.4132 0.0308603 21.9669 0.289603 21.6182C0.544597 21.2657 0.942086 21.0444 1.37707 21.007C1.91331 20.962 2.4533 20.9395 2.98953 20.9395C12.9305 20.9395 21.4503 28.7017 22.3803 38.609C22.4215 39.0402 22.2715 39.4715 21.9715 39.7864C21.6865 40.0827 21.2965 40.2514 20.8878 40.2514ZM3.46202 23.9469C5.77571 30.9029 11.8768 36.0178 19.1179 37.0715C17.5729 29.7292 11.0556 24.1681 3.46202 23.9469Z" fill="white"></path></svg> 