<?xml version="1.0" encoding="UTF-8"?> <svg xmlns="http://www.w3.org/2000/svg" width="31" height="30" viewBox="0 0 31 30" fill="none"><path d="M1.87616 0.0658393C1.0085 0.312066 0.31086 1.01557 0.082221 1.88323C0.017733 2.12946 0.000145352 4.13445 0.000145352 13.7314C0.000145352 26.3769 -0.0174423 25.6383 0.33431 26.248C0.574675 26.6525 0.990915 27.0336 1.44233 27.2505L1.84685 27.4498L6.93554 27.4674L12.0184 27.4791V28.5578C12.0184 29.1558 12.036 29.6834 12.0535 29.7362C12.1591 30 12.1063 30 17.5585 30H22.6941L22.8348 29.8593C22.911 29.7831 22.993 29.6307 23.0106 29.5251C23.0282 29.4137 23.0399 28.6458 23.0282 27.8191C23.0106 26.3359 23.0106 26.3066 22.8758 26.1776C22.7761 26.078 22.653 26.0369 22.3775 26.0135L22.014 25.9842L22.0316 25.7907C22.0375 25.6793 22.143 25.4448 22.272 25.2631C22.5768 24.8116 22.7761 24.4071 22.8992 23.985C22.9872 23.686 23.0048 23.2698 23.0224 20.8075L23.0517 17.9818H26.3523C28.1697 17.9818 29.6998 17.9642 29.7526 17.9466C30.0222 17.8411 30.0164 17.9642 30.0164 11.4509V5.32454L29.8757 5.16039L29.735 4.99624L23.8666 4.97865L17.9982 4.96693V3.53647C17.9982 2.27016 17.9864 2.06497 17.8809 1.72494C17.664 1.02143 17.1188 0.446905 16.3566 0.124465C16.1046 0.018939 15.8466 0.0130764 9.1164 0.00135133C3.65251 -0.00451121 2.08135 0.00721388 1.87616 0.0658393ZM16.1573 1.13869C16.4739 1.3087 16.8432 1.7308 16.9312 2.02393C16.9722 2.15291 17.0015 2.41672 17.0015 2.61605V2.97366H8.99329H0.97919L1.0085 2.51638C1.02609 2.24671 1.07885 1.98289 1.13748 1.85978C1.33681 1.47285 1.70028 1.16214 2.11066 1.03316C2.19274 1.00971 5.3292 0.992122 9.08709 0.997984L15.917 1.00971L16.1573 1.13869ZM17.0015 4.46275V4.96107L16.1456 4.97865C15.2897 4.99624 15.2897 4.99624 15.149 5.16039L15.0083 5.32454V8.2265C15.0083 10.6301 14.9965 11.1226 14.9262 11.1226C14.7972 11.1226 14.3106 11.5916 14.1699 11.8496C14.0409 12.0841 14.0409 12.1427 14.0234 14.5287L14.0058 16.9676L13.5543 16.9969C13.0502 17.0262 12.7395 17.1552 12.4405 17.46C12.0477 17.8645 12.0477 17.8352 12.0301 20.2858L12.0125 22.4959H6.50757H0.996778V13.2331V3.9703H8.99915H17.0015V4.46275ZM29.0197 11.4744V16.9851H25.9771H22.9344L22.782 16.7213C22.5944 16.4048 22.3423 16.2054 21.9671 16.0823C21.6447 15.9768 21.4512 15.9651 21.1757 16.0413C20.9998 16.094 20.9822 16.0882 20.8943 15.9123C20.5308 15.1912 19.798 14.8512 19.0886 15.074L18.8013 15.1619L18.5199 14.9098C18.1858 14.6108 17.8457 14.4994 17.3591 14.5346L17.0074 14.5581L16.9898 13.2917L16.9722 12.0196L16.7963 11.7323C16.6849 11.5564 16.4973 11.3688 16.3097 11.2399L16.0049 11.0405V8.50204V5.96356H22.5123H29.0197V11.4744ZM15.8525 12.1544L16.0049 12.3127V15.4433C16.0049 18.7498 16.0108 18.8436 16.2687 18.9432C16.4504 19.0136 16.6967 18.9784 16.8315 18.867C16.9722 18.7556 16.9722 18.7439 17.0015 17.249C17.0308 15.754 17.0308 15.7423 17.1715 15.6309C17.365 15.4726 17.6757 15.4843 17.8516 15.6661L17.9982 15.8068V17.1903C17.9982 18.5973 18.0157 18.7439 18.2268 18.9022C18.3851 19.0253 18.6899 18.9901 18.8482 18.8318C18.9948 18.6911 18.9948 18.6794 18.9948 17.5597C18.9948 16.3461 19.0241 16.2054 19.2938 16.053C19.4521 15.9651 19.6573 15.9885 19.8449 16.1292C19.9562 16.2054 19.9621 16.2992 19.9914 17.4424C20.0207 18.6501 20.0266 18.6794 20.1614 18.826C20.3549 19.0312 20.648 19.0312 20.8415 18.8318C20.9763 18.7029 20.9881 18.6501 20.9881 18.099C20.9881 17.718 21.0174 17.4366 21.076 17.3076C21.2108 16.9676 21.6036 16.8972 21.8674 17.161C21.9788 17.2724 21.9847 17.3721 21.9847 20.403C21.9847 23.9616 21.9964 23.8326 21.504 24.583C21.1463 25.1399 21.0701 25.3041 21.0174 25.7028L20.9763 26.0135H17.494H14.0116V25.82C14.0116 25.4976 13.8944 25.181 13.5954 24.7237C13.0033 23.8033 13.0443 24.0671 13.0267 21.0127L13.0091 18.3277L13.185 18.1577C13.3374 18.0052 13.4019 17.9818 13.6833 17.9818H14.0116V19.3302V20.6844L14.1582 20.8251C14.3517 21.0244 14.6682 21.0244 14.8617 20.8251L15.0083 20.6844V16.5161V12.342L15.1783 12.172C15.4011 11.9551 15.6414 11.9492 15.8525 12.1544ZM12.1122 23.8795C12.1884 24.2664 12.417 24.753 12.7805 25.3158C12.9153 25.521 13.015 25.7497 13.015 25.8493C13.015 26.0135 13.0091 26.0135 12.6632 26.0135C12.3643 26.0135 12.2822 26.0369 12.1649 26.16C12.0829 26.2362 12.0184 26.3418 12.0184 26.3945C12.0184 26.4707 11.4966 26.4825 7.11141 26.4825C3.26558 26.4766 2.1517 26.459 1.98755 26.4004C1.65925 26.2831 1.38371 26.0428 1.1961 25.7086C1.03195 25.4096 1.02609 25.3686 1.0085 24.4423L0.985053 23.4926L6.51343 23.5043L12.036 23.5219L12.1122 23.8795ZM21.9847 28.0067V29.0034H17.4998H13.015V28.0067V27.0101H17.4998H21.9847V28.0067Z" fill="white"></path><path d="M7.16398 1.64282C6.99396 1.8187 6.9881 2.16459 7.15225 2.32874C7.30468 2.48116 7.49814 2.5222 7.89679 2.49289C8.16647 2.46944 8.25441 2.43426 8.3658 2.30529C8.54167 2.09424 8.54167 1.83628 8.35407 1.65455C8.23096 1.52557 8.16061 1.50798 7.75023 1.50798C7.34572 1.50798 7.27536 1.52557 7.16398 1.64282Z" fill="white"></path><path d="M9.67328 1.62524C9.42705 1.87147 9.48568 2.27598 9.79053 2.42841C9.98986 2.52807 10.5234 2.52221 10.7227 2.41668C10.9572 2.29943 11.0568 2.02976 10.963 1.80112C10.8634 1.55489 10.7461 1.50799 10.2361 1.50799C9.87261 1.50799 9.76708 1.53144 9.67328 1.62524Z" fill="white"></path><path d="M5.37623 6.24495C4.57306 6.45014 4.2389 6.56153 4.1451 6.65533C4.02198 6.77845 4.01612 6.83707 3.99853 7.91578C3.98095 9.13519 4.0044 9.2583 4.29166 9.41659C4.43822 9.49867 4.50858 9.4928 5.14173 9.34038C5.5228 9.24658 5.86282 9.15864 5.90386 9.14691C5.95662 9.12346 5.98007 9.65109 5.9918 11.4157L6.00939 13.7138L6.17354 13.8545L6.33769 13.9952H8.99928H11.6609L11.825 13.8545L11.9892 13.7138L12.0068 11.4157C12.0185 9.28175 12.0302 9.12346 12.124 9.15278C12.5168 9.27003 13.4431 9.48108 13.5545 9.48108C13.7128 9.47522 13.8476 9.38142 13.9414 9.20554C13.9883 9.12346 14.0118 8.6955 14.0118 7.95682V6.83121L13.8476 6.67292C13.7128 6.53222 13.5076 6.46773 12.552 6.23323C11.5319 5.98114 11.3678 5.95183 10.8753 5.97528C10.2187 5.99873 10.0604 6.09253 10.0018 6.52636C9.89625 7.29435 9.21034 7.693 8.55959 7.35884C8.27819 7.21814 8.03196 6.90742 8.03196 6.70223C8.03196 6.63188 8.00265 6.47946 7.96748 6.35634C7.8854 6.05149 7.66262 5.96355 6.99429 5.96355C6.57805 5.96941 6.26734 6.02218 5.37623 6.24495ZM7.17017 7.27676C7.3695 7.70473 7.72125 8.07407 8.13163 8.28512C8.43062 8.43755 8.53028 8.45513 8.99928 8.45513C9.41553 8.45513 9.58554 8.42582 9.80245 8.32616C10.2128 8.13856 10.6291 7.72232 10.8108 7.31194C11.0043 6.87811 10.9984 6.87811 12.1651 7.17124L13.0151 7.38229V7.84543C13.0151 8.39065 13.062 8.37306 12.253 8.16201C11.5143 7.96854 11.2974 7.9744 11.145 8.16787C11.0277 8.3203 11.0219 8.38478 11.0219 10.6595V12.9986L9.01687 12.9869L7.00602 12.9693L6.98843 10.6301C6.97671 8.3203 6.97084 8.28512 6.84773 8.15028C6.68358 7.9744 6.4608 7.98027 5.74557 8.16201C4.93654 8.37306 4.98344 8.39065 4.98344 7.84543V7.38229L5.79247 7.1771C6.23216 7.06571 6.6953 6.96605 6.81256 6.96605C7.01774 6.96018 7.03533 6.97777 7.17017 7.27676Z" fill="white"></path><path d="M3.1658 15.6367C2.77887 16.0237 3.10131 16.5161 3.75205 16.5161C4.4028 16.5161 4.72524 16.0237 4.33831 15.6367C4.23864 15.5371 4.13898 15.5195 3.75205 15.5195C3.36512 15.5195 3.26546 15.5371 3.1658 15.6367Z" fill="white"></path><path d="M5.65756 15.6661C5.46995 15.8478 5.46995 16.1058 5.65169 16.3227L5.79239 16.4868H8.48917H11.1859L11.3384 16.3461C11.526 16.1702 11.5377 15.8888 11.3677 15.6719L11.2504 15.5195H8.52434H5.79826L5.65756 15.6661Z" fill="white"></path><path d="M3.16597 17.63C3.00769 17.7883 2.96665 18.0052 3.06045 18.1928C3.16597 18.4156 3.3653 18.5094 3.75223 18.5094C4.13916 18.5094 4.33848 18.4156 4.44401 18.1928C4.54367 17.9994 4.49677 17.7883 4.32676 17.63C4.13916 17.46 3.33599 17.46 3.16597 17.63Z" fill="white"></path><path d="M5.65756 17.6593C5.46995 17.8411 5.46995 18.099 5.65169 18.3159L5.79239 18.4801L7.96154 18.4977L10.1307 18.5153L10.3124 18.357C10.5469 18.1635 10.5645 17.8704 10.3476 17.6593L10.2069 17.5128H8.00257H5.79826L5.65756 17.6593Z" fill="white"></path><path d="M3.13658 19.6937C2.94897 19.9164 2.96656 20.1685 3.20106 20.3678C3.32418 20.4792 3.41798 20.5027 3.75214 20.5027C4.08631 20.5027 4.18011 20.4792 4.30322 20.3678C4.53772 20.1685 4.55531 19.9164 4.36771 19.6937C4.21528 19.5119 4.1977 19.5061 3.75214 19.5061C3.30659 19.5061 3.289 19.5119 3.13658 19.6937Z" fill="white"></path><path d="M5.65734 19.6526C5.45215 19.8519 5.46387 20.1099 5.68079 20.3327L5.8508 20.5027H7.97304C10.1363 20.5027 10.2536 20.491 10.4177 20.274C10.5408 20.1158 10.5057 19.8109 10.3474 19.6526L10.2067 19.5061H8.00235H5.79804L5.65734 19.6526Z" fill="white"></path><path d="M19.1942 7.62851C19.0711 7.73403 19.03 7.81611 19.03 7.98026C19.03 8.31442 19.2059 8.44926 19.6808 8.48444L20.0736 8.51375L20.2963 10.2725C20.4136 11.2398 20.5133 12.0665 20.5133 12.1075C20.5191 12.1485 20.5836 12.2482 20.6657 12.3244C20.7712 12.4358 20.8709 12.471 21.0585 12.471L21.3106 12.4768L21.0995 12.5882C20.5133 12.8989 20.3432 13.5849 20.7243 14.089C20.9295 14.3587 21.1581 14.4642 21.5333 14.4642C22.571 14.4642 22.87 13.0807 21.9379 12.5882L21.7209 12.4768L22.7762 12.471H23.8315L23.5794 12.5941C23.2276 12.77 23.0752 13.0045 23.0517 13.4383C23.0341 13.7314 23.0517 13.8252 23.169 13.9952C23.38 14.3118 23.6556 14.4642 23.9897 14.4642C24.3767 14.4642 24.6581 14.3235 24.8457 14.0363C25.174 13.5438 24.9805 12.8638 24.4353 12.5941L24.1832 12.471H24.4412C24.8691 12.471 24.9102 12.4006 25.5023 10.6184C26.0709 8.9124 26.0827 8.8186 25.813 8.60169C25.6664 8.4903 25.5668 8.48444 23.3566 8.48444H21.0467V8.29097C21.0467 7.99198 20.9354 7.67541 20.7947 7.57574C20.7009 7.51125 20.5074 7.4878 20.0091 7.4878C19.4052 7.4878 19.3407 7.49953 19.1942 7.62851ZM24.7988 9.52797C24.7988 9.55142 24.6581 9.99111 24.4881 10.507L24.1715 11.445L22.8172 11.4626L21.463 11.4743L21.4337 11.2867C21.3809 10.9702 21.2226 9.69798 21.2226 9.5866C21.2226 9.48693 21.3281 9.48107 23.0107 9.48107C23.9956 9.48107 24.7988 9.49866 24.7988 9.52797Z" fill="white"></path><path d="M7.67416 24.6592C7.58036 24.753 7.50415 24.8879 7.50415 24.9582C7.50415 25.1282 7.65658 25.4038 7.76796 25.4507C7.82073 25.4683 8.38939 25.4858 9.03427 25.4858C10.2009 25.4858 10.2068 25.4858 10.3475 25.3393C10.5058 25.181 10.5409 24.8761 10.4178 24.7178C10.2595 24.5127 10.1013 24.4892 8.96979 24.4892H7.84418L7.67416 24.6592Z" fill="white"></path></svg> 