<?xml version="1.0" encoding="UTF-8"?> <svg xmlns="http://www.w3.org/2000/svg" width="30" height="30" viewBox="0 0 30 30" fill="none"><path d="M7.17786 3.02657C2.2941 5.20808 0.274448 6.14401 0.161854 6.27068L0 6.45365V14.9967V23.5398L0.154817 23.7157C0.267411 23.8353 2.51929 24.8698 7.00194 26.8613C10.6823 28.4939 13.8209 29.8802 13.9898 29.9365C14.2924 30.0421 14.2924 30.0421 14.9046 29.7324C15.6576 29.3524 15.8335 29.1202 15.6998 28.6769C15.6083 28.3672 15.2917 28.1209 14.9961 28.1209C14.8976 28.1209 14.6865 28.1843 14.5246 28.2687L14.222 28.4095L7.84639 25.5805L1.4778 22.7516V15.3415C1.4778 11.26 1.49891 7.9244 1.52002 7.9244C1.54817 7.9244 4.38413 9.17701 7.83232 10.7111C12.885 12.9559 14.1446 13.4908 14.3205 13.4626C14.4402 13.4415 17.2902 12.203 20.6539 10.7041C24.0247 9.20516 26.8325 7.95959 26.9029 7.94552C27.0155 7.91033 27.0225 8.10033 27.0225 11.2037C27.0225 14.2226 27.0366 14.5182 27.1492 14.6519C27.4588 15.0389 27.9163 15.0671 28.2611 14.7223L28.5003 14.483V10.5141C28.5003 6.75624 28.4933 6.53809 28.3666 6.33401C28.247 6.14401 27.48 5.78512 21.3858 3.06879C17.6139 1.39396 14.4191 0.0146817 14.2854 0.000607425C14.0813 -0.0205039 12.8498 0.500241 7.17786 3.02657ZM18.6624 3.56843C18.6061 3.62472 7.33268 8.63515 7.16379 8.67738C7.0512 8.71256 2.67411 6.8055 2.67411 6.72809C2.67411 6.70698 5.27784 5.53178 8.45862 4.11732L14.2431 1.54877L16.4739 2.53397C17.7054 3.08286 18.6836 3.54731 18.6624 3.56843ZM23.2366 5.54586C24.6651 6.1792 25.8262 6.70698 25.8262 6.72809C25.8262 6.74921 23.2225 7.91737 20.0347 9.33887L14.2431 11.9074L11.6253 10.7463C10.1827 10.1059 9.00751 9.56405 9.00751 9.54294C9.01455 9.49368 20.4147 4.41992 20.5484 4.41288C20.6047 4.40584 21.8151 4.91955 23.2366 5.54586Z" fill="white"></path><path d="M21.6391 15.0389C18.022 15.4681 15.2212 18.4378 15.0101 22.076C14.8624 24.6938 16.1361 27.2624 18.3105 28.705C23.3139 32.0335 29.9781 28.4798 29.9781 22.4912C29.9781 18.67 27.1562 15.5104 23.328 15.0389C22.6243 14.9544 22.3569 14.9544 21.6391 15.0389ZM24.1232 16.7137C26.1077 17.2908 27.6558 18.8319 28.261 20.8375C28.4299 21.4004 28.451 21.5834 28.451 22.4912C28.451 23.399 28.4299 23.5819 28.261 24.1449C27.6558 26.1505 26.1077 27.6916 24.1232 28.2687C23.3913 28.4798 22.0965 28.529 21.3365 28.3742C20.0909 28.1209 19.2324 27.6494 18.2613 26.6783C17.635 26.059 17.5083 25.8901 17.1846 25.2357C16.6709 24.2082 16.5231 23.589 16.5231 22.4912C16.5231 21.4567 16.6639 20.8093 17.0931 19.9086C17.4309 19.2049 17.7898 18.7193 18.3739 18.1563C19.2535 17.3259 20.0698 16.8896 21.2872 16.6082C21.9135 16.4674 23.4617 16.5237 24.1232 16.7137Z" fill="white"></path><path d="M25.1224 20.352C25.0239 20.4153 24.2287 21.1823 23.3491 22.0549L21.7516 23.6453L20.9776 22.8924C20.2246 22.1535 20.1964 22.1394 19.8798 22.1394C19.6124 22.1394 19.5138 22.1746 19.3449 22.3435C19.1761 22.5124 19.1409 22.6109 19.1409 22.8853V23.2231L20.2527 24.3279C21.4561 25.5313 21.6109 25.6228 22.0472 25.4117C22.1739 25.3554 23.1591 24.4265 24.2217 23.3498C25.8684 21.7031 26.171 21.3583 26.2132 21.1472C26.3258 20.5209 25.6291 20.0142 25.1224 20.352Z" fill="white"></path></svg> 