<?xml version="1.0" encoding="UTF-8"?> <svg xmlns="http://www.w3.org/2000/svg" width="30" height="30" viewBox="0 0 30 30" fill="none"><path d="M16.7944 0.016608C16.7476 0.0283114 16.5077 0.0692732 16.2678 0.104383C14.7581 0.350154 13.26 1.28057 12.2828 2.57965C11.8322 3.17652 11.3933 4.07768 11.1944 4.81499C11.0539 5.34165 11.0364 5.49964 11.0364 6.42421C11.0364 7.34878 11.0539 7.50677 11.1944 8.03342C11.6742 9.82989 12.9206 11.363 14.5708 12.1998C15.0623 12.4515 15.8816 12.7148 16.455 12.8026C17.1104 12.9079 18.392 12.8494 19.0181 12.6855C20.1416 12.3871 21.0428 11.8838 21.8971 11.0587C22.7573 10.2337 23.3717 9.18621 23.6819 8.03342C23.8223 7.50677 23.8399 7.34878 23.8399 6.42421C23.8399 5.50549 23.8223 5.34165 23.6819 4.83255C23.044 2.44506 21.1598 0.642739 18.7606 0.12779C18.3802 0.0458665 16.9993 -0.0360572 16.7944 0.016608ZM18.7548 1.33324C20.996 1.91256 22.5759 3.86702 22.6871 6.19014C22.8685 10.0054 19.0825 12.7148 15.4954 11.3338C13.8979 10.7135 12.6339 9.21547 12.2828 7.50677C11.6859 4.62189 13.5819 1.79552 16.4843 1.24546C17.0987 1.12843 18.1345 1.16939 18.7548 1.33324Z" fill="white"></path><path d="M17.0167 2.4275C16.8002 2.56209 16.7359 2.73764 16.7359 3.19992C16.7359 3.59198 16.73 3.60369 16.5545 3.67391C16.455 3.71487 16.2502 3.87286 16.098 4.02501C15.2378 4.85595 15.466 6.28961 16.5428 6.82797C16.6773 6.89234 16.9699 6.97426 17.1864 7.00937C17.52 7.05033 17.6136 7.09129 17.7482 7.24344C17.9238 7.4424 17.9472 7.6355 17.8184 7.88712C17.6078 8.29674 17.0694 8.27919 16.6773 7.85787C16.3438 7.50091 15.9517 7.4541 15.6767 7.74668C15.4777 7.95735 15.4895 8.26748 15.706 8.54837C15.8757 8.77073 16.5135 9.23301 16.6481 9.23301C16.7008 9.23301 16.73 9.37345 16.7417 9.73626C16.7651 10.1985 16.7768 10.2454 16.929 10.3799C17.0402 10.4736 17.163 10.5204 17.321 10.5204C17.479 10.5204 17.6019 10.4736 17.7131 10.3799C17.8652 10.2512 17.8769 10.1985 17.8945 9.74211C17.9179 9.27983 17.9296 9.23887 18.0466 9.20961C18.1227 9.19205 18.3041 9.06917 18.4563 8.93458C19.5915 7.93394 19.0648 6.11406 17.5727 5.88585C17.0753 5.80977 16.9231 5.73955 16.8178 5.53474C16.6832 5.27727 16.7183 5.08416 16.9348 4.86765C17.2216 4.58092 17.5258 4.61603 17.9823 4.99639C18.3977 5.34164 19.0473 4.96128 18.9302 4.43463C18.8834 4.22982 18.5265 3.89042 18.1695 3.72072L17.9062 3.59198V3.18822C17.9062 2.74349 17.8067 2.49772 17.5727 2.39239C17.3795 2.30461 17.204 2.31631 17.0167 2.4275Z" fill="white"></path><path d="M26.9119 12.5568C26.4555 12.709 26.1571 12.9313 25.4841 13.6335C25.1623 13.9612 24.3372 14.8097 23.6525 15.5119L22.4061 16.7934L22.1428 16.5477C21.8034 16.2317 21.3353 16.021 20.8437 15.9567C20.6272 15.9332 19.0063 15.9098 17.2391 15.904H14.0265L13.4823 15.7284C12.6572 15.4651 12.0194 15.3715 11.0597 15.3715C9.40952 15.3715 8.08119 15.7518 6.79967 16.5828C6.14428 17.01 5.26067 17.8936 4.83935 18.5431L4.51165 19.0463L4.10204 19.0756C3.40568 19.1283 3.2945 19.2102 1.56825 20.9364L0 22.4988V22.7739V23.0548L3.37057 26.4604C5.22556 28.3271 6.79967 29.8895 6.86989 29.9305C7.03373 30.0241 7.22684 30.0241 7.41994 29.9246C7.50772 29.8778 8.28014 29.1347 9.13449 28.2686C10.9134 26.478 10.9134 26.4721 10.8783 25.6295L10.8549 25.1789L11.2996 24.7693C12.0077 24.1081 11.639 24.1549 16.4433 24.1549C18.977 24.1549 20.7618 24.1315 21.0602 24.0964C22.0433 23.9676 23.044 23.5404 23.7988 22.9143C24.2319 22.5574 29.592 16.1264 29.7617 15.7577C29.8846 15.5061 29.9021 15.3715 29.9021 14.7922C29.9021 14.1719 29.8904 14.09 29.7383 13.7681C29.5101 13.2941 29.1122 12.8962 28.6265 12.668C28.1232 12.4339 27.4269 12.3871 26.9119 12.5568ZM28.17 13.7564C28.5504 13.9729 28.7494 14.2714 28.7786 14.6634C28.7962 14.8858 28.7728 15.0731 28.7142 15.2135C28.6031 15.4768 23.6701 21.4046 23.1434 21.9078C22.7163 22.3174 22.1721 22.6217 21.5342 22.8148C21.1012 22.9494 21.0602 22.9494 16.531 22.9845C13.3711 23.0079 11.9082 23.0372 11.7795 23.084C11.3757 23.2245 10.8841 23.5346 10.4921 23.8915L10.0825 24.2661L7.79445 21.9722L5.50059 19.6783L5.78147 19.2395C6.905 17.4957 8.76583 16.5418 11.048 16.5418C11.9433 16.5418 12.5051 16.6296 13.2014 16.8812L13.6637 17.0451L17.2625 17.0743C20.8496 17.1036 20.8613 17.1036 21.107 17.2323C21.9497 17.6829 21.9497 18.8649 21.107 19.3155C20.8671 19.4443 20.8203 19.4443 18.1812 19.4735L15.4953 19.5028L15.3548 19.6666C15.1559 19.9007 15.1676 20.1816 15.3841 20.4215L15.5538 20.6146L17.994 20.6322C20.6038 20.6497 21.0602 20.6205 21.5576 20.3922C22.371 20.0177 23.003 18.9937 22.9328 18.1627C22.9152 17.9696 23.0088 17.8585 24.8872 15.9215C26.0517 14.7278 26.9646 13.8325 27.105 13.7506C27.4269 13.575 27.8599 13.575 28.17 13.7564ZM7.09225 22.9085L9.71381 25.53V25.7933V26.0567L8.46155 27.2972C7.77105 27.9819 7.18588 28.5436 7.15662 28.5436C7.13321 28.5436 5.81658 27.2504 4.24248 25.6763L1.37515 22.809L2.67422 21.5099L3.9733 20.2167L4.21907 20.2518C4.45899 20.2811 4.59358 20.4098 7.09225 22.9085Z" fill="white"></path><path d="M13.0435 19.4442C12.7333 19.6139 12.6865 20.0587 12.944 20.3337C13.1956 20.6029 13.6754 20.5502 13.8393 20.2283C14.126 19.6724 13.5877 19.1458 13.0435 19.4442Z" fill="white"></path></svg> 