<?xml version="1.0" encoding="UTF-8"?> <svg xmlns="http://www.w3.org/2000/svg" width="31" height="30" viewBox="0 0 31 30" fill="none"><path d="M6.85644 0.0521769C5.92774 0.190031 4.86118 0.930093 4.41134 1.76447C3.96875 2.56983 3.99052 2.04018 3.99052 13.0758V23.1682L3.2432 23.2044C2.5757 23.2335 2.4451 23.2625 1.95898 23.4947C0.732805 24.0896 0 25.236 0 26.5565C0.00725549 28.3196 1.23343 29.7054 3.01103 29.9375C3.40282 29.9883 6.70407 30.0101 13.0599 29.9956L22.5283 29.9738L22.9926 29.8069C23.9649 29.4587 24.5743 28.9073 25.0242 27.9786L25.2854 27.4344L25.3217 17.4581L25.3579 7.4818L27.9917 7.44552L30.6327 7.40925L30.7705 7.23511C30.9011 7.07549 30.9084 6.92313 30.9084 4.98591C30.9084 2.75122 30.8794 2.51179 30.5093 1.78624C30.1393 1.06795 29.4573 0.494762 28.5794 0.17552L28.115 0.00864393L17.7034 0.00138844C11.9788 -0.00586705 7.09587 0.0158994 6.85644 0.0521769ZM24.8138 1.27836C24.8138 1.32189 24.734 1.48151 24.6324 1.62662C24.5308 1.77899 24.3784 2.09823 24.2841 2.33766L24.1245 2.76573L24.0882 14.9912L24.052 27.2167L23.8343 27.6013C23.5876 28.0584 23.3191 28.3051 22.804 28.5372C21.8971 28.9508 20.7434 28.6316 20.1848 27.8117C19.8946 27.3836 19.8075 27.0934 19.8075 26.5275C19.8075 26.1284 19.851 25.9615 20.0324 25.5988C20.3807 24.895 20.8958 24.5467 21.7447 24.4234C22.1365 24.3726 22.2744 24.3218 22.405 24.1694C22.6154 23.9155 22.6154 23.5962 22.3832 23.3713L22.2091 23.1899H13.7129H5.22395L5.23846 13.0105L5.26023 2.83829L5.42711 2.50453C5.74635 1.84428 6.37758 1.37993 7.0741 1.27836C7.6618 1.19129 24.8138 1.19129 24.8138 1.27836ZM28.5939 1.53955C28.9639 1.74271 29.2541 2.05469 29.5008 2.51179C29.6242 2.73671 29.6387 2.96889 29.6604 4.48528L29.6822 6.21209H27.5056H25.3217V4.84806C25.3217 3.3244 25.3942 2.76573 25.6482 2.32315C26.2359 1.31463 27.5346 0.96637 28.5939 1.53955ZM19.0892 24.7354C18.7627 25.2142 18.5595 25.8962 18.5595 26.5347C18.5523 27.3111 18.7337 27.8842 19.1908 28.588L19.3214 28.7839L11.1299 28.7622L2.93847 28.7404L2.53942 28.5517C1.70504 28.1599 1.30599 27.5868 1.24794 26.7161C1.21167 26.0341 1.40031 25.5189 1.86466 25.0546C2.53217 24.3798 1.81387 24.4306 11.1154 24.4306L19.2923 24.4234L19.0892 24.7354Z" fill="white"></path><path d="M11.3475 3.95558C10.6655 4.35463 10.3027 5.03665 10.3027 5.9581C10.3027 7.22781 11.1008 8.17102 12.1674 8.17102C13.8797 8.17102 14.6705 5.72592 13.4153 4.29659C12.9075 3.70889 12.0295 3.57104 11.3475 3.95558ZM12.4141 5.05116C12.7623 5.2398 12.9002 6.10321 12.6608 6.57481C12.298 7.27134 11.5362 6.87229 11.5362 5.97986C11.5362 5.23255 11.9425 4.80447 12.4141 5.05116Z" fill="white"></path><path d="M16.6586 4.5941C16.4772 4.82627 15.2365 6.5168 13.9015 8.35244C11.7756 11.2619 11.4636 11.719 11.4636 11.9512C11.4636 12.4953 12.1094 12.7348 12.4939 12.3212C12.7188 12.089 17.58 5.43574 17.7904 5.08022C18.0516 4.63763 17.7904 4.18054 17.268 4.18054C16.9996 4.18054 16.956 4.20956 16.6586 4.5941Z" fill="white"></path><path d="M16.4989 8.67172C15.3018 9.21588 14.9245 11.008 15.7516 12.2124C16.0636 12.6695 16.6078 12.9597 17.1447 12.9597C17.3769 12.9597 17.6743 12.9162 17.8049 12.8581C18.2112 12.6913 18.6103 12.2704 18.828 11.7843C19.227 10.8992 19.0746 9.82535 18.4362 9.0998C17.9718 8.56289 17.1374 8.3815 16.4989 8.67172ZM17.522 9.94143C17.6163 10.0358 17.7324 10.2462 17.7759 10.413C17.9791 11.1749 17.4494 11.9439 16.9198 11.661C16.6005 11.4941 16.4264 10.638 16.6223 10.2534C16.8762 9.76005 17.2245 9.64396 17.522 9.94143Z" fill="white"></path><path d="M7.55303 15.4701C7.26281 15.7095 7.24104 16.0723 7.5095 16.3335L7.68363 16.5149H14.6416C21.5706 16.5149 21.5997 16.5149 21.7956 16.3625C21.9842 16.2102 22.0495 15.8909 21.9407 15.608C21.8101 15.2742 21.9116 15.2815 14.6271 15.2815H7.77795L7.55303 15.4701Z" fill="white"></path><path d="M7.78522 19.4678C7.56756 19.5114 7.32812 19.8234 7.32812 20.0773C7.32812 20.1861 7.40794 20.3748 7.50226 20.4836L7.67639 20.6868H14.6417H21.6069L21.7956 20.5126C22.0568 20.2659 22.0568 19.8742 21.7956 19.6275L21.6069 19.4533L14.7795 19.4461C11.0212 19.4388 7.87229 19.4533 7.78522 19.4678Z" fill="white"></path></svg> 