<?xml version="1.0" encoding="UTF-8"?> <svg xmlns="http://www.w3.org/2000/svg" width="65" height="65" viewBox="0 0 65 65" fill="none"><path d="M20.8164 0.0403128C16.5631 0.564918 13.8326 1.52232 12.1523 3.05679C11.1677 3.97485 10.7608 4.65684 10.4326 5.92901C9.60556 9.23402 7.41328 12.421 4.42023 14.6375C3.84262 15.0571 2.66115 15.7785 1.78161 16.2244C0.705166 16.7621 0.140687 17.1293 0.0487947 17.3392C-0.0562247 17.5884 -0.00371501 18.1654 0.324471 19.9884C1.17775 24.7492 1.79474 26.9919 3.05497 29.851C4.78779 33.8249 7.01946 37.0775 10.17 40.2251C12.4936 42.5465 15.0534 44.4744 17.7577 45.9433L18.8473 46.5466V49.5368V52.5271L18.3616 52.6058C18.0859 52.6451 17.482 52.7107 17.0094 52.75C14.5809 52.973 11.5747 53.6943 10.2882 54.337C9.52679 54.7304 8.79166 55.36 8.52911 55.8452C8.30594 56.2911 8.26656 60.8421 8.48973 61.4323C8.80479 62.2585 9.86811 63.0323 11.4959 63.5963C14.7121 64.6979 21.2627 65.2619 26.7237 64.8815C33.1955 64.4356 36.9237 63.2553 37.6064 61.4323C37.8295 60.8421 37.7901 56.2911 37.567 55.8452C37.3044 55.36 36.5693 54.7304 35.8079 54.337C34.5214 53.6943 31.5152 52.973 29.0867 52.75C28.6141 52.7107 28.0102 52.6451 27.7477 52.6058L27.2488 52.5271V49.5368V46.5335L28.2728 45.9826C29.6774 45.2088 31.9616 43.6875 33.2874 42.6383C34.889 41.3661 37.5145 38.6775 38.7484 37.0512L39.8249 35.6479L39.9037 36.1725C40.0743 37.248 40.4944 37.7594 44.3932 41.6678L48.2527 45.5367V49.104V52.6582L47.3732 52.8025C43.9338 53.3796 41.6233 54.4812 41.072 55.7928C40.7963 56.4616 40.8357 61.0913 41.1114 61.6815C41.7809 63.0717 44.1176 64.1209 47.9114 64.7111C49.9461 65.0258 54.9608 65.0258 56.9956 64.7111C60.7894 64.1209 63.1261 63.0717 63.7956 61.6815C64.0712 61.0913 64.1106 56.4616 63.8349 55.7928C63.2836 54.4812 60.9732 53.3796 57.5469 52.8025L56.6542 52.6582V49.104V45.5367L60.5137 41.6678C62.9948 39.189 64.4782 37.5889 64.6751 37.2086C65.1083 36.3692 65.1083 34.9003 64.6751 34.061C64.4782 33.6675 62.7322 31.8183 59.5554 28.6444C54.16 23.241 54.0156 23.123 52.4666 23.123C50.9176 23.1361 50.76 23.241 46.1786 27.8051L42.0566 31.897L42.5423 30.9265C43.9206 28.1461 44.7871 25.287 45.6272 20.7098C46.0867 18.2572 46.1654 17.6015 46.0473 17.3392C45.9423 17.1162 45.4566 16.7883 44.4851 16.3031C41.4264 14.7686 39.3786 12.985 37.6589 10.3882C36.8318 9.14222 36.123 7.59463 35.7029 6.11262C35.2697 4.55192 34.9415 3.98797 33.9438 3.05679C32.5786 1.79774 30.2025 0.814107 27.2488 0.302617C26.0411 0.0796593 21.8272 -0.0777235 20.8164 0.0403128ZM25.516 2.19119C28.9423 2.57153 32.0666 3.79124 33.1299 5.18145C33.6287 5.82409 33.6287 6.68969 33.1299 7.33233C32.6704 7.92251 31.5152 8.6963 30.36 9.16845C24.9515 11.3718 16.2087 10.5849 13.255 7.62086C12.2967 6.67657 12.3361 5.78474 13.3337 4.81422C15.3948 2.82072 20.6851 1.6797 25.516 2.19119ZM12.2573 9.54879C13.6094 10.7292 15.8542 11.6472 18.6766 12.1849C20.7507 12.5784 25.1616 12.6046 27.1832 12.2374C30.0843 11.7128 32.4473 10.7554 33.7994 9.57502C34.2457 9.18156 34.5345 9.01107 34.5739 9.11599C34.9021 10.0996 36.5036 12.5522 37.6195 13.7719L38.3809 14.5981L38.0133 15.4375C37.4488 16.7883 36.3724 18.4933 35.3091 19.7655C34.3376 20.9327 34.3245 20.9458 33.7206 20.9458C32.1191 20.9458 30.8063 21.9819 30.4782 23.5164C30.3994 23.8836 30.2419 23.9886 29.1129 24.5263C27.1963 25.4312 27.2226 25.4181 26.5137 24.6312C24.6496 22.559 21.3809 22.5852 19.5036 24.7099C18.8866 25.4181 18.8735 25.4181 16.9832 24.5263C15.8542 23.9886 15.6967 23.8836 15.6179 23.5164C15.4735 22.8607 15.0928 22.1918 14.5677 21.7459C13.9507 21.195 13.5963 21.0639 12.5461 20.959L11.7059 20.8803L10.8658 19.8966C9.85498 18.69 8.69977 16.8802 8.13529 15.5818L7.71521 14.5981L8.50286 13.7456C9.40865 12.762 10.6164 10.9783 11.1809 9.81109C11.3909 9.36517 11.5878 9.01107 11.6009 9.01107C11.6272 9.01107 11.9291 9.24714 12.2573 9.54879ZM6.61251 17.2474C7.30826 18.6376 8.35845 20.2114 9.31676 21.3131L10.0388 22.1262L9.72371 22.8213C9.17235 24.0017 9.38239 25.3263 10.2751 26.2444C10.892 26.8739 11.3515 27.11 12.1523 27.2018C13.0449 27.3067 13.8851 27.0444 14.5546 26.4542L15.106 25.9558L15.828 26.3099C16.2218 26.5067 16.8913 26.8083 17.3114 26.9788C17.9677 27.2411 18.0727 27.3198 18.0071 27.5559C17.8102 28.2379 17.7708 29.7461 17.9283 30.6248C18.2565 32.5921 19.5955 34.4807 21.1708 35.2151C21.8141 35.5036 22.116 35.5692 23.048 35.5692C23.9801 35.5692 24.282 35.5036 24.9253 35.2151C26.5006 34.4807 27.8396 32.5921 28.1677 30.6248C28.3253 29.7461 28.2859 28.2379 28.089 27.5559C28.0233 27.3067 28.1415 27.228 29.0473 26.8608C29.6118 26.6247 30.2813 26.3362 30.5307 26.1919L30.9901 25.9558L31.5415 26.4542C32.933 27.7395 35.2172 27.3854 36.2411 25.746C36.5824 25.182 36.6349 24.9722 36.6349 24.1722C36.6349 23.4639 36.5693 23.1098 36.3461 22.6902L36.0573 22.1393L36.7793 21.3131C37.7245 20.2245 38.7747 18.6507 39.4573 17.2736C39.7593 16.6572 40.0218 16.1457 40.0481 16.1195C40.0612 16.1064 40.56 16.4211 41.1639 16.8277C41.7677 17.2211 42.621 17.7326 43.0542 17.9556C43.5006 18.1785 43.8681 18.3622 43.8813 18.3753C43.9469 18.4408 43.1067 22.8869 42.8048 24.0935C41.4133 29.5625 38.7747 34.2839 34.7971 38.3759C32.9855 40.2382 31.804 41.2218 29.6905 42.6514C28.1677 43.6744 24.7809 45.458 23.5469 45.8777C22.9168 46.1007 22.6936 46.022 19.9631 44.6842C16.5368 42.9924 14.0426 41.1825 11.2859 38.3759C7.3739 34.3626 4.66965 29.5363 3.29127 24.0935C2.96308 22.7951 2.13606 18.4409 2.20169 18.3884C2.22795 18.3753 2.67428 18.1392 3.18625 17.8638C3.71135 17.6015 4.53837 17.09 5.02409 16.749C5.52293 16.3949 5.94301 16.1195 5.98239 16.1064C6.02177 16.1064 6.31058 16.6047 6.61251 17.2474ZM13.2681 23.3721C13.9245 24.0148 13.465 25.1427 12.5461 25.1427C12.0079 25.1427 11.4959 24.6312 11.4959 24.0935C11.4959 23.5558 12.0079 23.0443 12.5461 23.0443C12.7955 23.0443 13.0712 23.1623 13.2681 23.3721ZM34.272 23.3721C34.482 23.5689 34.6002 23.8443 34.6002 24.0935C34.6002 24.3427 34.482 24.6181 34.272 24.8148C34.0751 25.0246 33.7994 25.1427 33.55 25.1427C33.3006 25.1427 33.0249 25.0246 32.828 24.8148C32.6179 24.6181 32.4998 24.3427 32.4998 24.0935C32.4998 23.8443 32.6179 23.5689 32.828 23.3721C33.0249 23.1623 33.3006 23.0443 33.55 23.0443C33.7994 23.0443 34.0751 23.1623 34.272 23.3721ZM24.0326 25.3919C24.7415 25.7066 25.6079 26.7034 25.8967 27.5428C26.2118 28.4608 26.2118 30.2182 25.8967 31.1363C25.7654 31.5035 25.411 32.0937 25.109 32.4347C23.8357 33.8774 22.2604 33.8774 20.987 32.4347C20.2519 31.5953 19.9631 30.7297 19.9631 29.3395C19.9631 27.9493 20.2519 27.0837 20.987 26.2444C21.906 25.1951 22.9693 24.9066 24.0326 25.3919ZM58.0195 30.1133L62.8898 34.979V35.6348V36.2906L58.0326 41.13C54.8164 44.3432 53.0573 46.0089 52.821 46.0613C52.611 46.1138 52.2959 46.1138 52.099 46.0613C51.8496 46.0089 50.0905 44.3432 46.8743 41.13L42.0172 36.2906V35.6348V34.979L46.8087 30.1789C49.4473 27.5428 51.7183 25.3263 51.8627 25.2607C52.0071 25.1951 52.3616 25.1689 52.6373 25.1951C53.123 25.2476 53.4905 25.5886 58.0195 30.1133ZM22.2341 47.9761L23.048 48.2778L23.8751 47.9761C24.3214 47.8056 24.794 47.6483 24.9253 47.6089C25.1353 47.5433 25.1484 47.7532 25.1484 50.8221V54.1009L24.6233 54.3107C24.2951 54.4419 23.7044 54.5206 23.048 54.5206C22.3917 54.5206 21.8009 54.4419 21.4728 54.3107L20.9477 54.1009V50.8221C20.9477 47.7532 20.9608 47.5433 21.1839 47.6089C21.3021 47.6483 21.7747 47.8056 22.2341 47.9761ZM52.4535 48.1597C53.2149 48.1597 53.5562 48.0942 54.0025 47.8581L54.5539 47.5696V50.8352V54.1009L54.0288 54.3107C53.7006 54.4419 53.1098 54.5206 52.4535 54.5206C51.7971 54.5206 51.2064 54.4419 50.8782 54.3107L50.3531 54.1009V50.8352V47.5696L50.9176 47.8581C51.3508 48.0942 51.6921 48.1597 52.4535 48.1597ZM18.9654 54.9534C19.1098 55.3206 19.8318 55.8846 20.6589 56.2649C21.1971 56.5141 21.499 56.5534 23.048 56.5534C24.5971 56.5534 24.899 56.5141 25.4372 56.2649C26.2643 55.8846 26.9863 55.3206 27.1307 54.9534C27.2488 54.6255 27.3407 54.6255 30.0318 54.9927C32.6179 55.36 35.5191 56.2124 35.5191 56.619C35.5191 56.842 34.167 57.3928 32.7361 57.7338C27.3276 59.0453 18.7685 59.0453 13.36 57.7338C11.9291 57.3928 10.577 56.842 10.577 56.619C10.577 56.0551 15.2635 54.914 18.6241 54.6649C18.7554 54.6649 18.8998 54.7829 18.9654 54.9534ZM48.4496 55.0321C48.5415 55.3468 49.2635 55.8977 50.0643 56.2649C50.6025 56.5141 50.9044 56.5534 52.4535 56.5534C54.0944 56.5534 54.2782 56.5272 54.9477 56.2124C55.6828 55.8714 56.4311 55.2682 56.5361 54.9272C56.5886 54.7829 56.7724 54.7829 57.7044 54.9665C59.8705 55.3993 61.8396 56.1862 61.8396 56.619C61.8396 57.1174 59.0041 58.1141 56.5886 58.4551C53.8056 58.8617 49.5392 58.7437 46.7824 58.1797C44.577 57.7469 42.7917 56.9338 43.0674 56.4879C43.2511 56.1993 44.9971 55.478 46.2179 55.1895C48.3315 54.7042 48.3446 54.7042 48.4496 55.0321ZM14.6465 60.147C17.5214 60.6191 19.2148 60.7372 23.048 60.7372C28.1021 60.7372 31.6728 60.3306 34.377 59.4519L35.6635 59.0322L35.6241 59.9503L35.5847 60.8814L35.0334 61.1831C33.3006 62.1405 27.9052 62.9143 23.048 62.9143C18.1909 62.9143 12.7955 62.1405 11.0627 61.1831L10.5114 60.8814L10.472 59.9503L10.4326 59.0322L11.7191 59.4519C12.428 59.688 13.7407 60.0027 14.6465 60.147ZM44.3801 59.7011C48.6728 61.1437 56.011 61.17 60.3299 59.7666C60.9469 59.5568 61.5508 59.3601 61.682 59.3076C61.8921 59.2158 61.9183 59.2814 61.879 60.1076L61.8396 61.0126L60.8944 61.4847C58.9253 62.4552 56.4048 62.8487 52.3222 62.8356C48.2921 62.8225 45.6535 62.3897 43.8419 61.4192L43.0674 61.0126L43.028 60.1076C42.9886 59.2814 43.0149 59.2158 43.2249 59.3076C43.3562 59.347 43.8813 59.5306 44.3801 59.7011Z" fill="white"></path><path d="M48.1547 32.5875V34.1875L47.4894 34.7125C47.082 35.0375 46.6747 35.525 46.4438 35.95C45.697 37.3625 45.9143 39.5625 46.9327 40.8375C47.4215 41.45 48.5213 42 49.241 42C49.9606 42 51.0605 41.45 51.5493 40.8375C51.7801 40.55 52.0788 39.9875 52.201 39.6C52.3233 39.2 52.459 38.875 52.4998 38.875C52.5405 38.875 52.6763 39.2 52.7985 39.6C53.1108 40.575 53.7218 41.2875 54.5637 41.675C55.4598 42.0875 56.0573 42.0875 56.9534 41.675C58.2977 41.0625 59.0988 39.4625 58.9902 37.625C58.9087 36.375 58.4471 35.45 57.5102 34.7125L56.8448 34.1875V32.5875V31H55.7586H54.6723V32.5875V34.1875L54.007 34.7125C53.3552 35.225 52.6356 36.3125 52.6356 36.775C52.6356 36.9 52.5812 37 52.4998 37C52.4319 37 52.364 36.9 52.364 36.775C52.364 36.3125 51.6443 35.225 50.9926 34.7125L50.3272 34.1875V32.5875V31H49.241H48.1547V32.5875ZM49.8792 36.475C50.2322 36.975 50.3951 37.7875 50.2729 38.55C50.1643 39.2125 49.6755 39.925 49.2953 39.975C48.7386 40.05 48.1683 39.0375 48.1683 38C48.1683 36.9625 48.7386 35.95 49.2953 36.025C49.4447 36.05 49.7026 36.25 49.8792 36.475ZM56.3967 36.475C56.7498 36.975 56.9127 37.7875 56.7905 38.55C56.6819 39.2125 56.1931 39.925 55.8129 39.975C55.2562 40.05 54.6859 39.0375 54.6859 38C54.6859 36.9625 55.2562 35.95 55.8129 36.025C55.9622 36.05 56.2202 36.25 56.3967 36.475Z" fill="white"></path></svg> 