<?xml version="1.0" encoding="UTF-8"?> <svg xmlns="http://www.w3.org/2000/svg" width="24" height="30" viewBox="0 0 24 30" fill="none"><path d="M10.8801 0.0867272C9.98324 0.303627 9.1215 0.977774 8.7346 1.7633L8.54115 2.16193H7.36286C5.73318 2.16193 5.68628 2.19124 5.68628 3.31091V3.92057H4.20902C3.10694 3.92057 2.6321 3.94402 2.35658 4.0085C1.23105 4.27816 0.293107 5.21611 0.0644836 6.31233C0.0175864 6.53509 0 9.68892 0 17.1339C0 27.4395 0 27.6564 0.117243 28.0257C0.41035 28.9695 1.22519 29.6789 2.30382 29.9192C2.679 30.0013 3.69902 30.0071 11.9881 29.9954L21.2503 29.9778L21.6431 29.8254C22.3641 29.544 22.9972 29.0282 23.2727 28.4888C23.5834 27.8733 23.5658 28.5006 23.5658 17.1104C23.5658 5.60301 23.5834 6.3006 23.2317 5.56197C23.0265 5.13404 22.3524 4.46575 21.9127 4.25471C21.3089 3.96747 20.9748 3.92057 19.3627 3.92057H17.8796V3.31091C17.8796 2.59573 17.8327 2.43745 17.5747 2.27917C17.3989 2.17365 17.2758 2.16193 16.1678 2.16193H14.9543L14.7668 1.7633C14.5088 1.22985 13.8874 0.608458 13.354 0.350524C12.6447 0.0163814 11.6246 -0.0949994 10.8801 0.0867272ZM12.545 1.51709C13.1312 1.81606 13.4654 2.21469 13.6412 2.80676C13.8464 3.52195 13.9519 3.56884 15.353 3.56884H16.414V5.00507V6.44129H11.7829H7.15182V5.01093V3.57471L8.23046 3.55712C9.52599 3.53367 9.5553 3.52195 9.79565 2.88883C10.0184 2.2909 10.1063 2.14434 10.4346 1.85123C10.8626 1.46433 11.226 1.33536 11.8122 1.35881C12.1581 1.3764 12.3515 1.41743 12.545 1.51709ZM5.69801 6.33578C5.71559 7.27372 5.72732 7.36165 5.84456 7.53165C5.91491 7.63131 6.04974 7.74855 6.13767 7.78373C6.26077 7.83062 7.77321 7.84821 11.8533 7.83649L17.3989 7.8189L17.5571 7.67235C17.8385 7.41441 17.8796 7.22682 17.8796 6.23026V5.31576L19.392 5.33921L20.8986 5.3568L21.2327 5.52094C21.5903 5.6968 21.7896 5.89611 22.0006 6.28888L22.1296 6.52923L22.1472 16.9345C22.1589 25.0126 22.1472 27.3985 22.0886 27.6037C22.0006 27.9378 21.6313 28.313 21.2444 28.4595C20.9689 28.565 20.6465 28.5709 11.9353 28.5885C2.1221 28.6061 2.52659 28.6178 1.99899 28.2837C1.72347 28.1078 1.55933 27.8909 1.4714 27.5743C1.41864 27.3985 1.40692 24.7019 1.41864 16.9345C1.43623 6.9044 1.44209 6.52336 1.54761 6.32405C1.82899 5.7906 2.20417 5.48577 2.70245 5.39197C2.84314 5.36266 3.57005 5.33921 4.3204 5.33335L5.67456 5.32749L5.69801 6.33578Z" fill="white"></path><path d="M8.2363 10.0993C8.1425 10.1462 7.54456 10.6738 6.91731 11.2717C6.29006 11.8696 5.75661 12.3621 5.73902 12.3621C5.71557 12.3621 5.49281 12.1452 5.24074 11.8755C4.66625 11.2717 4.54901 11.1896 4.23245 11.1896C3.79865 11.1896 3.51727 11.5765 3.6052 12.0514C3.63451 12.2272 3.79865 12.4265 4.49625 13.13C4.96522 13.6048 5.42247 14.0269 5.52212 14.0679C5.86799 14.2086 6.02627 14.1031 7.59146 12.62C9.01596 11.2717 9.26217 10.9962 9.26217 10.75C9.26217 10.5448 9.057 10.2341 8.84596 10.1227C8.61147 9.99961 8.47665 9.99374 8.2363 10.0993Z" fill="white"></path><path d="M10.7512 11.8696C10.5167 11.981 10.376 12.2331 10.376 12.5379C10.376 12.8721 10.6515 13.1534 11.0267 13.2121C11.1674 13.2297 13.1312 13.2414 15.3881 13.2297C19.8551 13.2121 19.6616 13.2238 19.8727 12.8721C20.0896 12.5262 19.9958 12.1452 19.644 11.9107L19.4447 11.7758H15.1888C11.5191 11.7758 10.9094 11.7934 10.7512 11.8696Z" fill="white"></path><path d="M8.17773 15.8325C8.11325 15.8676 7.54462 16.3952 6.91151 17.0049L5.76253 18.107L5.21735 17.5501C4.64872 16.9697 4.41424 16.8349 4.1094 16.9052C3.75181 16.9815 3.5056 17.4094 3.5994 17.7904C3.64043 17.9487 5.18218 19.6018 5.40494 19.7308C5.57494 19.8246 5.91495 19.8246 6.07322 19.7308C6.33116 19.5842 9.13326 16.8642 9.20361 16.6942C9.30327 16.4539 9.19775 16.1139 8.96326 15.9145C8.76981 15.7504 8.39463 15.7094 8.17773 15.8325Z" fill="white"></path><path d="M10.7511 17.5793C10.2704 17.7728 10.2528 18.5935 10.7276 18.8397C10.9856 18.9745 19.3215 18.9745 19.6029 18.8397C19.9546 18.6697 20.0895 18.2359 19.9019 17.8724C19.7143 17.509 19.8902 17.5207 15.1711 17.5266C12.8087 17.5266 10.8156 17.55 10.7511 17.5793Z" fill="white"></path><path d="M8.2363 21.5364C8.1425 21.5774 7.54456 22.105 6.91731 22.7029C6.29006 23.3009 5.75661 23.7933 5.73902 23.7933C5.72144 23.7933 5.49867 23.5764 5.24074 23.3067C4.65452 22.6971 4.54314 22.6209 4.23245 22.6209C3.79865 22.6209 3.51727 23.0078 3.6052 23.4826C3.63451 23.6585 3.79865 23.8578 4.49625 24.5612C4.96522 25.0361 5.42247 25.4581 5.52212 25.4992C5.87385 25.6457 6.02627 25.5343 7.59146 24.0512C9.01596 22.7029 9.26217 22.4274 9.26217 22.1812C9.26217 21.976 9.057 21.6653 8.84596 21.5539C8.61147 21.4308 8.47665 21.425 8.2363 21.5364Z" fill="white"></path><path d="M10.8098 23.2656C10.7453 23.2891 10.6163 23.3946 10.5342 23.5001C10.206 23.887 10.3994 24.4732 10.8918 24.6139C11.2201 24.7018 19.2513 24.6901 19.5209 24.5963C19.6323 24.5553 19.7789 24.438 19.8551 24.3267C20.0895 23.9749 20.0075 23.588 19.644 23.3418L19.4447 23.207L15.1888 23.2129C12.8498 23.2129 10.8801 23.2363 10.8098 23.2656Z" fill="white"></path></svg> 