<?xml version="1.0" encoding="UTF-8"?> <svg xmlns="http://www.w3.org/2000/svg" width="66" height="61" viewBox="0 0 66 61" fill="none"><path d="M47.3077 2H18.6923C16.0583 2 13.9231 4.13526 13.9231 6.76923V30.6154C13.9231 33.2494 16.0583 35.3846 18.6923 35.3846H47.3077C49.9417 35.3846 52.0769 33.2494 52.0769 30.6154V6.76923C52.0769 4.13526 49.9417 2 47.3077 2Z" stroke="white" stroke-width="3" stroke-linecap="round" stroke-linejoin="round"></path><path d="M13.9231 16.3077H6.76923C5.50435 16.3077 4.29128 16.8102 3.39688 17.7046C2.50247 18.599 2 19.8121 2 21.077V42.5385C2 43.8034 2.50247 45.0165 3.39688 45.9109C4.29128 46.8053 5.50435 47.3077 6.76923 47.3077H59.2308C60.4956 47.3077 61.7087 46.8053 62.6031 45.9109C63.4975 45.0165 64 43.8034 64 42.5385V21.077C64 19.8121 63.4975 18.599 62.6031 17.7046C61.7087 16.8102 60.4956 16.3077 59.2308 16.3077H52.0769M18.6923 47.3077L16.3077 59.2308M47.3077 47.3077L49.6923 59.2308" stroke="white" stroke-width="3" stroke-linecap="round" stroke-linejoin="round"></path></svg> 