<?xml version="1.0" encoding="UTF-8"?> <svg xmlns="http://www.w3.org/2000/svg" width="90" height="56" viewBox="0 0 90 56" fill="none"><path d="M39.375 31.6578C36.3188 31.5082 33.9188 29.0758 31.875 28.1777C29.4938 27.1299 27 26.6248 21.3563 26.6248C14.2313 26.6248 8.11875 27.4854 5.9625 28.0655C3.91875 28.6081 1.875 29.0945 1.875 31.6578C1.875 33.8657 2.04375 35.8864 3.675 37.3832C4.40625 39.3104 4.70625 45.9151 7.9125 50.312C10.2 53.4554 12.5438 54.0915 18.75 54.0915C21.7125 54.0915 33.5062 54.8025 38.1187 43.9505C38.6062 42.8092 39.2062 35.5496 39.375 31.6578Z" stroke="white" stroke-width="3" stroke-linecap="round" stroke-linejoin="round"></path><path d="M5.625 22.3028L19.4063 5.36992C23.4375 -0.130913 30.9937 1.12268 33.75 7.35322" stroke="white" stroke-width="3" stroke-linecap="round" stroke-linejoin="round"></path><path d="M48.75 31.6578C51.8062 31.5082 56.0812 29.0758 58.125 28.1777C60.5062 27.1299 63 26.6248 68.6438 26.6248C75.7688 26.6248 81.8812 27.4854 84.0375 28.0655C86.0812 28.6081 88.125 29.0945 88.125 31.6578C88.125 33.8657 87.9563 35.8864 86.325 37.3832C85.5938 39.3104 85.2937 45.9151 82.0875 50.312C79.8 53.4554 77.4562 54.1102 71.25 54.1102C68.2875 54.1102 54.6188 54.8025 50.0063 43.9505C49.5188 42.8092 48.9188 35.5496 48.75 31.6578Z" stroke="white" stroke-width="3" stroke-linecap="round" stroke-linejoin="round"></path><path d="M84.375 22.3027L70.5938 5.35112C66.5625 -0.149711 59.0063 1.10388 56.25 7.33442" stroke="white" stroke-width="3" stroke-linecap="round" stroke-linejoin="round"></path><path d="M39.375 31.658H48.75" stroke="white" stroke-width="3" stroke-linecap="round" stroke-linejoin="round"></path></svg> 