<?xml version="1.0" encoding="UTF-8"?> <svg xmlns="http://www.w3.org/2000/svg" width="32" height="34" viewBox="0 0 32 34" fill="none"><path d="M2 0.269499C1.07097 0.521112 0.348387 1.25014 0.103226 2.19853C0.0129032 2.53402 0 3.81143 0 13.205C0 23.605 0 23.8372 0.129032 24.2437C0.419355 25.1921 1.1871 25.9082 2.12903 26.1082L2.45161 26.1792V29.076V31.9727L2.63226 32.1727C2.89032 32.4566 3.13548 32.4501 3.84516 32.1082L4.41935 31.8372L5.1871 32.1598C5.60645 32.3405 5.99355 32.4889 6.04516 32.4889C6.09677 32.4889 6.47742 32.3405 6.89032 32.1663L7.63226 31.8372L8.39355 32.1663C8.8129 32.3405 9.2 32.4889 9.26452 32.4889C9.32903 32.4889 9.69032 32.3405 10.0645 32.1663L10.7548 31.8437L11.4452 32.1405C12.0774 32.4114 12.1484 32.4308 12.3613 32.3598C12.4968 32.3147 12.6387 32.1985 12.7161 32.076C12.8323 31.8889 12.8387 31.7211 12.8387 29.0308V26.1856L13.2387 26.076C13.7613 25.9276 14.1097 25.7211 14.5032 25.3082C15.0903 24.6824 15.2194 24.2824 15.2839 22.9211L15.3226 21.9598L15.6065 22.4695C15.7613 22.7469 15.9355 23.0243 15.9871 23.0824C16.071 23.1856 16.071 23.263 15.9677 23.7598C15.8387 24.4372 15.8323 24.9147 15.9613 25.2243C16.1097 25.5727 16.5548 26.0179 16.8903 26.1469C17.2903 26.3018 17.8903 26.2889 18.2129 26.1276L18.4581 25.9985L18.7355 26.2695C19.1935 26.7018 19.7871 26.8437 20.4 26.6566L20.6968 26.5727L20.9226 27.1469C21.4645 28.5082 22.3935 29.8566 23.5355 30.9469C24.1355 31.5211 24.2903 31.7147 24.6129 32.2889C24.8194 32.6566 25.0516 33.0114 25.1226 33.076C25.2903 33.2372 25.4903 33.2308 25.7032 33.063C25.9742 32.8501 25.929 32.6308 25.4452 31.7856C25.0645 31.1211 24.9161 30.9405 24.1677 30.1985C23.1806 29.2179 22.6516 28.5082 22.1226 27.4243C21.3677 25.8824 21.1935 25.0695 21.0645 22.5211C20.9226 19.6889 20.9226 19.6824 20.7677 19.3792C20.6903 19.2243 20.2645 18.4695 19.8258 17.6953C18.929 16.134 18.8645 15.9469 19.0968 15.5405C19.2774 15.2179 19.5226 15.0695 19.8903 15.0695C20.3548 15.0695 20.5355 15.2437 21.1355 16.2889C21.4323 16.805 21.7097 17.2437 21.7548 17.276C22.0387 17.4566 22.5161 17.2179 22.5161 16.8953C22.5161 16.6889 21.529 14.9727 21.2323 14.6566C20.671 14.063 19.7806 13.9211 19.0258 14.3147C18.0903 14.7921 17.7484 15.8695 18.2258 16.8179C18.3226 17.0114 18.7548 17.7727 19.1806 18.5211L19.9613 19.876L20.0065 20.7792C20.0516 21.6437 20.0516 21.6889 19.9226 21.7856C19.8516 21.8437 19.3677 22.1276 18.8452 22.4114C18.0581 22.8566 17.8516 22.9405 17.6129 22.9405C17.271 22.9405 16.9871 22.7856 16.7613 22.476C16.671 22.3598 15.7677 20.7985 14.7484 19.005C13.7226 17.2114 12.8323 15.6953 12.7613 15.6308C12.5871 15.4824 12.3806 15.4889 12.1677 15.6566C11.8968 15.8695 11.9419 16.0824 12.4516 16.9469C12.7032 17.3727 12.9032 17.734 12.9032 17.7534C12.9032 17.7727 12.8452 17.7534 12.7806 17.7147C12.7097 17.6824 12.271 17.6501 11.8065 17.6501C10.8645 17.6501 10.6903 17.7018 10.4387 18.0501C10.3032 18.2437 10.2903 18.3276 10.2903 19.0372C10.2903 19.9018 10.3484 20.063 10.729 20.2953C10.9097 20.405 11.0581 20.4243 11.8065 20.4243C12.5548 20.4243 12.7032 20.405 12.8839 20.2953C13.2258 20.0889 13.2968 19.9147 13.3355 19.1985L13.3742 18.5534L13.8516 19.3921L14.3355 20.2372L14.3097 22.0243C14.2903 23.7211 14.2774 23.8308 14.1419 24.134C13.9613 24.5211 13.6774 24.8372 13.3226 25.0243C13.0645 25.1663 13.0581 25.1663 7.74194 25.1856C1.90968 25.205 2.12258 25.2179 1.61935 24.8179C1.49032 24.7147 1.29677 24.476 1.1871 24.2824L1 23.9405L0.980645 13.3082C0.974194 6.19208 0.987097 2.58563 1.03226 2.42434C1.14194 2.01143 1.48387 1.58563 1.87097 1.36627L2.22581 1.16627L7.50968 1.14692C13.4258 1.12756 13.1548 1.10821 13.6968 1.58563C13.8645 1.73402 14.0452 1.97918 14.1355 2.17918C14.2839 2.51466 14.2903 2.55337 14.2903 4.52111V6.51466L13.8258 6.79208L13.3548 7.0695V5.88885C13.3484 4.52111 13.3097 4.26305 13.0323 4.01789L12.8387 3.84369H7.67097C2.00645 3.84369 2.23871 3.83079 2.03226 4.23079C1.95484 4.37918 1.93548 4.67595 1.93548 5.63724C1.93548 6.82434 1.94194 6.8566 2.08387 6.99208C2.29677 7.19208 2.6 7.17918 2.76774 6.96627C2.89032 6.81143 2.90323 6.70821 2.90323 5.80498V4.81143H7.64516H12.3871V6.19853V7.58563L12.1484 7.74047C12.0129 7.82434 11.4839 8.13402 10.9677 8.42434C9.92903 9.01143 9.61935 9.2695 9.36774 9.74692C9.22581 10.0179 9.2 10.1598 9.19355 10.5856C9.19355 10.8695 9.21935 11.1663 9.24516 11.2437L9.29677 11.3921H6.10323H2.90323V9.97918C2.90323 8.69531 2.89032 8.55337 2.78065 8.41789C2.69677 8.30821 2.59355 8.2695 2.41935 8.2695C2.24516 8.2695 2.14194 8.30821 2.05806 8.41789C1.94839 8.55337 1.93548 8.70176 1.93548 10.1598C1.93548 11.6372 1.94194 11.7598 2.06452 11.9598C2.30968 12.3663 2.27097 12.3598 6.23871 12.3598L9.83871 12.3663L10.3871 13.3405C11.071 14.5534 11.1677 14.6824 11.4516 14.6824C11.6903 14.6824 11.9355 14.4437 11.9355 14.2179C11.9355 14.1534 11.5935 13.4953 11.1677 12.7598C10.1871 11.0437 10.129 10.9276 10.129 10.6501C10.129 10.3598 10.2645 10.0437 10.4581 9.8695C10.6903 9.66305 18.4387 5.2566 18.6839 5.18563C18.9484 5.11466 19.329 5.20498 19.5677 5.39208C19.6645 5.4695 21.1613 8.02434 23.071 11.3598L26.4065 17.1985L26.3742 17.5405C26.329 18.0695 26.1871 18.2179 25.0968 18.8372C24.5677 19.1405 24.1097 19.3921 24.0774 19.3921C24.0516 19.3921 23.8839 19.1469 23.7161 18.8501C23.3677 18.2501 23.1871 18.1147 22.8839 18.2243C22.6968 18.2953 22.5806 18.476 22.5806 18.6824C22.5806 18.7534 22.9032 19.3792 23.2968 20.0695C24.0645 21.405 24.1806 21.5276 24.5355 21.3985C24.8516 21.276 24.929 20.9147 24.7097 20.5856C24.6387 20.476 24.5806 20.3598 24.5806 20.3211C24.5806 20.276 25.0065 20.005 25.5355 19.7082C26.0581 19.4114 26.5871 19.076 26.7161 18.9598C27.0903 18.6243 27.3032 18.1534 27.3419 17.6114C27.3806 17.0308 27.3032 16.805 26.7871 15.9082C26.5742 15.5405 26.4065 15.2243 26.4194 15.2114C26.4516 15.1727 28.4323 16.8501 28.8258 17.2501C30.0129 18.4566 30.7032 20.1211 30.7097 21.805C30.7161 22.1276 30.5935 23.6179 30.4452 25.1082L30.1677 27.8243L30.671 28.7082C31.1613 29.5792 31.2839 29.7147 31.5484 29.7147C31.729 29.7147 32 29.4372 32 29.2501C32 29.1727 31.8129 28.7663 31.5806 28.3534L31.1613 27.605L31.4258 25.063C31.7355 22.0372 31.7419 21.0889 31.4645 20.0372C31.1548 18.8824 30.6581 17.9147 29.8903 16.9856C29.5161 16.534 29.1226 16.1856 25.929 13.4953L24.929 12.6501L22.7742 8.87595C20.4 4.72111 20.2839 4.55337 19.6065 4.32111C19.2065 4.18563 18.6581 4.17273 18.3032 4.28885C18.1677 4.33402 17.471 4.70821 16.7613 5.11466C16.0516 5.52111 15.4323 5.8695 15.3806 5.88885C15.3032 5.91466 15.2903 5.69531 15.2903 4.4824C15.2903 3.68885 15.2581 2.82434 15.2258 2.56627C15.0774 1.44369 14.2903 0.546919 13.1935 0.256596C12.6968 0.121112 2.50323 0.134016 2 0.269499ZM12.3871 19.0372V19.4566H11.8065H11.2258V19.0372V18.6179H11.8065H12.3871V19.0372ZM20.1484 23.6308C20.1677 24.0501 20.2387 24.6501 20.2968 24.9663L20.4065 25.5469L20.2581 25.663C19.9419 25.9211 19.3677 25.7147 19.2258 25.3018C19.1613 25.1082 19.1806 24.9405 19.3226 24.2179C19.4129 23.7469 19.5097 23.3082 19.529 23.2437C19.5613 23.1276 19.9097 22.876 20.0387 22.876C20.0839 22.876 20.1226 23.1534 20.1484 23.6308ZM18.3226 24.3211C18.1806 24.9663 18.1032 25.1018 17.8129 25.2372C17.6323 25.3211 17.5484 25.3276 17.3484 25.2695C16.8968 25.134 16.7613 24.7921 16.8774 24.0889L16.9161 23.8501L17.4452 23.8889C17.7419 23.9082 18.0387 23.8953 18.129 23.8566C18.4387 23.7276 18.4452 23.7469 18.3226 24.3211ZM11.871 28.7147V31.263L11.6323 31.1598C11.4968 31.1018 11.2387 30.9921 11.0516 30.9276L10.7226 30.7985L10 31.1276C9.60645 31.3082 9.26452 31.4566 9.23871 31.4566C9.20645 31.4566 8.85161 31.3082 8.44516 31.134C7.93548 30.9082 7.65806 30.8179 7.54839 30.8501C7.45806 30.8695 7.09032 31.0179 6.72258 31.1792L6.05806 31.476L5.36774 31.1856C4.3871 30.7727 4.45161 30.7792 3.94194 30.9985C3.69677 31.1082 3.47742 31.1985 3.45806 31.1985C3.43871 31.1985 3.41935 30.063 3.41935 28.6824V26.1663H7.64516H11.871V28.7147Z" fill="white"></path><path d="M16.7227 8.23725C15.5485 8.41144 14.4969 9.17918 13.9679 10.2502C13.6647 10.8695 13.626 11.1147 13.8066 11.3469C13.9098 11.4695 14.0002 11.5211 14.155 11.5211C14.4131 11.5211 14.5292 11.405 14.7098 10.9469C14.9873 10.2372 15.4582 9.74047 16.155 9.41789C16.6324 9.19854 17.1356 9.13402 17.7614 9.21789C18.2389 9.27596 18.2711 9.27596 18.4195 9.13402C18.7872 8.79209 18.5292 8.34047 17.9292 8.26951C17.2324 8.18563 17.1227 8.17918 16.7227 8.23725Z" fill="white"></path><path d="M16.9097 10.1727C16.3162 10.2888 15.7742 10.7727 15.6001 11.3405C15.5097 11.6437 15.5936 11.8759 15.8388 11.9856C16.071 12.0888 16.3291 11.9856 16.4517 11.7469C16.7097 11.2372 16.871 11.134 17.4065 11.134C17.871 11.134 18.0904 10.9598 18.0517 10.6179C18.013 10.2372 17.5355 10.0501 16.9097 10.1727Z" fill="white"></path><path d="M17.2711 11.9792C17.0711 12.0953 17.0195 12.334 17.1356 12.605C17.2775 12.9469 17.4775 13.134 17.6904 13.134C17.9162 13.134 18.1937 12.876 18.1937 12.676C18.1937 12.5211 17.9678 12.1147 17.8195 11.9856C17.6969 11.8889 17.4324 11.8889 17.2711 11.9792Z" fill="white"></path><path d="M2.39361 14.0889C2.02587 14.2889 1.93555 14.5405 1.93555 15.3469C1.93555 16.1534 2.01942 16.4115 2.3549 16.6179C2.53555 16.7276 2.67103 16.7469 3.45168 16.7469C4.23232 16.7469 4.3678 16.7276 4.54845 16.6179C4.88393 16.4115 4.9678 16.1534 4.9678 15.3599C4.9678 14.6244 4.91619 14.4502 4.61297 14.1663C4.45168 14.0115 4.40006 14.005 3.5291 13.9857C2.73555 13.9728 2.58716 13.9857 2.39361 14.0889ZM4.00006 15.3599V15.7792H3.45168H2.90329V15.3599V14.9405H3.45168H4.00006V15.3599Z" fill="white"></path><path d="M6.5356 14.1017C6.19367 14.3082 6.12915 14.5146 6.12915 15.3727C6.12915 16.0114 6.14851 16.1662 6.25818 16.3404C6.47754 16.7082 6.67109 16.7598 7.7098 16.734C8.59367 16.7146 8.64528 16.7082 8.81302 16.5533C9.08399 16.2953 9.16141 16.0437 9.16141 15.3469C9.16141 14.6179 9.06463 14.3533 8.71625 14.1211C8.51625 13.9856 8.42592 13.9727 7.61947 13.9727C6.86463 13.9727 6.71625 13.9921 6.5356 14.1017ZM8.19367 15.3598V15.7792H7.64528H7.09689V15.3598V14.9404H7.64528H8.19367V15.3598Z" fill="white"></path><path d="M2.39361 17.7663C2.02587 17.9598 1.93555 18.2179 1.93555 19.0243C1.93555 19.8308 2.01942 20.0888 2.3549 20.2953C2.53555 20.405 2.67103 20.4243 3.45168 20.4243C4.23232 20.4243 4.3678 20.405 4.54845 20.2953C4.88393 20.0888 4.9678 19.8308 4.9678 19.0372C4.9678 18.2437 4.84522 17.9211 4.47748 17.7469C4.1549 17.5985 2.69039 17.6114 2.39361 17.7663ZM4.00006 19.0372V19.4566H3.45168H2.90329V19.0372V18.6179H3.45168H4.00006V19.0372Z" fill="white"></path><path d="M6.5356 17.7728C6.19367 17.9857 6.12915 18.1921 6.12915 19.0502C6.12915 19.6889 6.14851 19.8437 6.25818 20.0179C6.47754 20.3857 6.67109 20.4373 7.7098 20.4115C8.59367 20.3921 8.64528 20.3857 8.81302 20.2308C9.08399 19.9792 9.16141 19.7147 9.16141 19.0373C9.16141 18.3599 9.08399 18.0954 8.81302 17.8437C8.64528 17.6889 8.59367 17.6824 7.69044 17.6631C6.83883 17.6502 6.7227 17.6566 6.5356 17.7728ZM8.19367 19.0373V19.4566H7.64528H7.09689V19.0373V18.6179H7.64528H8.19367V19.0373Z" fill="white"></path><path d="M2.3549 21.4566C2.01297 21.676 1.93555 21.9212 1.93555 22.7018C1.93555 23.5083 2.01942 23.7663 2.3549 23.9728C2.53555 24.0825 2.67103 24.1018 3.41942 24.1018C4.3549 24.1018 4.57426 24.0437 4.80651 23.7276C4.92264 23.5728 4.93555 23.4502 4.93555 22.7147C4.93555 21.9792 4.92264 21.8566 4.80651 21.7018C4.57426 21.3857 4.3549 21.3276 3.40651 21.3276C2.65813 21.3276 2.52264 21.347 2.3549 21.4566ZM4.00006 22.7147V23.1341H3.45168H2.90329V22.7147V22.2954H3.45168H4.00006V22.7147Z" fill="white"></path><path d="M6.5356 21.4501C6.19367 21.663 6.12915 21.8695 6.12915 22.7276C6.12915 23.3663 6.14851 23.5211 6.25818 23.6953C6.47754 24.063 6.67109 24.1147 7.7098 24.0888C8.59367 24.0695 8.64528 24.063 8.81302 23.9082C9.08399 23.6566 9.16141 23.3921 9.16141 22.7147C9.16141 22.0372 9.08399 21.7727 8.81302 21.5211C8.64528 21.3663 8.59367 21.3598 7.69044 21.3405C6.83883 21.3276 6.7227 21.334 6.5356 21.4501ZM8.19367 22.7147V23.134H7.64528H7.09689V22.7147V22.2953H7.64528H8.19367V22.7147Z" fill="white"></path><path d="M10.729 21.4566C10.3483 21.6889 10.2903 21.8437 10.2903 22.7147C10.2903 23.5857 10.3483 23.7405 10.729 23.9728C10.9032 24.0825 11.058 24.1018 11.7935 24.1018C12.7483 24.1018 12.9225 24.0502 13.1742 23.7018C13.3096 23.5083 13.3225 23.4244 13.3225 22.7147C13.3225 22.005 13.3096 21.9212 13.1742 21.7276C12.9225 21.3792 12.7483 21.3276 11.7935 21.3276C11.058 21.3276 10.9032 21.347 10.729 21.4566ZM12.3871 22.7147V23.1341H11.8064H11.2258V22.7147V22.2954H11.8064H12.3871V22.7147Z" fill="white"></path></svg> 