<?xml version="1.0" encoding="UTF-8"?> <svg xmlns="http://www.w3.org/2000/svg" width="30" height="30" viewBox="0 0 30 30" fill="none"><path d="M16.8941 0.119017C16.6422 0.236174 16.3903 0.517352 16.3142 0.76924C16.2849 0.851251 16.1853 1.44875 16.0857 2.10483L15.9041 3.29398L15.3008 3.49315C14.9669 3.60445 14.4338 3.83291 14.1116 3.99107L13.5258 4.28396L12.9576 3.85634C11.3877 2.66719 11.2237 2.57932 10.6965 2.70819C10.4329 2.77263 10.3216 2.85464 9.72992 3.42871C9.3433 3.80947 9.02112 4.17852 8.95668 4.31325C8.83367 4.57685 8.81609 4.95762 8.90396 5.19779C8.93911 5.28566 9.29644 5.80115 9.69477 6.34593C10.099 6.88485 10.427 7.34763 10.427 7.37106C10.427 7.39449 10.3567 7.55265 10.2688 7.72253L10.1048 8.033H7.99013C5.93988 8.033 5.86958 8.03885 5.71728 8.15601L5.56497 8.27317V11.3427V14.4122L5.71728 14.5294C5.91059 14.6817 6.09804 14.6875 6.27378 14.5411L6.41437 14.4298L6.43194 11.6707L6.44951 8.91168H7.9667H9.48975V10.4757C9.48975 12.6959 9.4956 12.7017 10.8019 12.2272L11.5341 11.9636L12.325 12.2389C12.981 12.4674 13.1392 12.5025 13.2739 12.4557C13.5727 12.3502 13.5903 12.2389 13.5903 10.505V8.91168H15.1133H16.6363V13.7444V18.5772H11.54H6.44365V17.2006V15.8181L6.29721 15.6775C6.12147 15.5018 5.9223 15.4901 5.71728 15.6541L5.56497 15.7712V17.1771V18.5772H2.92893H0.287036L0.146447 18.7236L0 18.8642V24.2886V29.713L0.146447 29.8536L0.287036 30H1.96239C2.94651 30 3.6846 29.9766 3.74904 29.9414C3.91891 29.8477 3.99507 29.5489 3.89548 29.3556C3.84862 29.2678 3.76661 29.1799 3.71975 29.1565C3.66703 29.1389 3.00509 29.1213 2.24942 29.1213H0.87868V24.2886V19.4558H2.43102H3.98335V21.1253C3.98335 23.2986 3.93649 23.24 5.26037 22.7655L5.9926 22.4961L6.71897 22.7655C7.12317 22.912 7.51564 23.0291 7.5918 23.0291C7.67381 23.0291 7.80268 22.9647 7.87883 22.8827L8.02528 22.7421V21.096V19.4558H9.57761H11.1299V24.2886V29.1213H8.12486H5.11392L4.9909 29.2561C4.80931 29.4494 4.82103 29.7247 5.01434 29.877L5.1725 30H13.9827H22.793L22.9336 29.8536L23.08 29.713V24.8158C23.08 22.127 23.0917 19.9245 23.1093 19.9245C23.1269 19.9245 23.449 20.1529 23.8239 20.4341C24.2047 20.7153 24.603 20.9906 24.7143 21.0492C24.9428 21.1663 25.388 21.1898 25.634 21.0902C25.8215 21.0199 27.0926 19.7897 27.2098 19.573C27.327 19.3387 27.368 19.0048 27.2977 18.7588C27.2625 18.6182 26.9403 18.1202 26.4776 17.5052L25.7219 16.48L26.0089 15.9001C26.1671 15.5838 26.3897 15.0507 26.501 14.711L26.706 14.1017L27.9655 13.9084C29.2425 13.721 29.4534 13.6565 29.6818 13.4105C29.9454 13.1293 29.9923 12.9009 29.9923 11.9168C29.9923 10.8799 29.9278 10.6456 29.5939 10.3644C29.3421 10.1535 29.178 10.1067 28.0299 9.9368C27.4851 9.86065 26.9521 9.77864 26.8525 9.76107C26.6943 9.73178 26.665 9.69663 26.5947 9.42717C26.4893 9.0054 26.1847 8.24974 25.9328 7.76939L25.7219 7.37106L26.4776 6.34007C27.2684 5.27394 27.3972 5.01034 27.327 4.64129C27.2625 4.30153 27.1629 4.1668 26.4366 3.458C25.8683 2.89565 25.6985 2.76092 25.4817 2.70234C25.1127 2.60275 24.7846 2.69648 24.3102 3.04795C24.0993 3.20026 23.6365 3.54001 23.2792 3.80362L22.6348 4.2781L22.1955 4.04965C21.6975 3.7919 20.7896 3.42871 20.4791 3.37013C20.3619 3.35256 20.2682 3.32327 20.2682 3.31155C20.2682 3.18268 19.8992 0.868824 19.8523 0.734093C19.782 0.505636 19.4833 0.218601 19.2021 0.101443C18.8623 -0.0450032 17.2221 -0.0274296 16.8941 0.119017ZM18.9736 0.96255C19.0088 1.00941 19.1318 1.67135 19.249 2.44459C19.4013 3.48729 19.4833 3.87391 19.5594 3.95006C19.618 4.00864 19.9343 4.13166 20.2741 4.23124C20.6548 4.33668 21.2113 4.56514 21.7678 4.84632C22.3888 5.15678 22.6817 5.27394 22.7637 5.24465C22.8223 5.22122 23.2733 4.91075 23.7537 4.55342C25.1771 3.49315 25.1595 3.50486 25.2826 3.5693C25.4407 3.65131 26.4776 4.7233 26.4776 4.79945C26.4776 4.8346 26.1027 5.36767 25.6399 5.99446C25.1771 6.61539 24.7846 7.17775 24.7554 7.24218C24.7261 7.31834 24.8432 7.60537 25.1537 8.23216C25.4349 8.78866 25.6633 9.34516 25.7688 9.72592C25.8683 10.0657 25.9914 10.3879 26.0499 10.4406C26.1319 10.5226 26.4893 10.5987 27.5613 10.7569C28.3345 10.8741 28.9964 10.9971 29.0375 11.0322C29.1488 11.126 29.1429 12.6783 29.0316 12.7954C28.9789 12.8423 28.4517 12.9477 27.6433 13.0708C26.9228 13.1762 26.2491 13.2992 26.1437 13.3402C25.9914 13.3988 25.9445 13.4632 25.8918 13.6683C25.6809 14.5235 25.4114 15.1737 24.7964 16.3102C24.6792 16.5328 24.6968 16.5738 25.429 17.5637C26.2315 18.6357 26.4776 18.9931 26.4776 19.0634C26.4776 19.1805 25.3411 20.2759 25.2181 20.2759C25.1537 20.2759 24.7143 19.9948 24.2516 19.6491C23.7829 19.3035 23.2616 18.9228 23.0859 18.7998L22.7695 18.5772H20.1394H17.515V16.7612V14.9453H18.0657C18.9385 14.9453 19.5887 14.6875 20.1979 14.1076C20.5143 13.803 20.5904 13.6331 20.5025 13.4164C20.4381 13.2641 20.2331 13.1293 20.0632 13.1293C20.0163 13.1293 19.8289 13.2582 19.6531 13.4222C19.4774 13.5804 19.1962 13.7854 19.0264 13.8733C18.751 14.0139 18.6515 14.0315 18.1301 14.0373H17.5443L17.5267 11.9402C17.5092 9.53847 17.4506 9.75521 18.1301 9.76693C18.6807 9.77864 19.1259 9.95438 19.536 10.3234C19.9226 10.6808 20.1335 11.0908 20.2389 11.7C20.2975 12.0398 20.3502 12.1862 20.444 12.2624C20.7427 12.5025 21.1469 12.2682 21.1469 11.8582C21.141 11.0439 20.6548 10.0715 19.987 9.54433C19.4071 9.08155 18.5636 8.81209 17.8841 8.87653L17.515 8.90582V8.58949C17.515 8.32003 17.4916 8.26145 17.3627 8.15601C17.2163 8.03885 17.1343 8.033 15.7459 8.033H14.2873L14.6505 7.68738C14.9727 7.37692 15.0079 7.32419 14.9727 7.17189C14.9493 7.08402 14.879 6.96101 14.8087 6.90243C14.6154 6.73841 14.3986 6.77941 14.0647 7.04302C13.6137 7.40035 13.5492 7.59366 13.7718 7.88069L13.889 8.033H12.5124C11.7509 8.033 11.1299 8.01542 11.1299 7.98613C11.1299 7.9627 11.2002 7.83969 11.2764 7.71081C11.3584 7.58194 11.4228 7.41206 11.4228 7.33005C11.417 7.23633 11.1182 6.77941 10.5735 6.04132C10.1048 5.41453 9.72406 4.85217 9.72406 4.78774C9.72406 4.6823 10.6496 3.6806 10.8546 3.57516C10.9894 3.49901 11.0421 3.53415 12.2195 4.40698C12.776 4.81703 13.2856 5.18607 13.3559 5.22122C13.5141 5.30323 13.6371 5.26222 14.176 4.9459C14.6622 4.66472 15.4413 4.3484 16.1091 4.1668C16.3493 4.10237 16.5778 4.0145 16.6246 3.96764C16.6715 3.92077 16.7887 3.32327 16.9234 2.43873C17.0757 1.46047 17.1753 0.974266 17.228 0.939119C17.3686 0.851251 18.8975 0.874682 18.9736 0.96255ZM12.7116 10.1711C12.7116 10.8623 12.7057 11.4306 12.694 11.4306C12.6823 11.4306 12.4597 11.3485 12.1961 11.2548C11.9266 11.1552 11.6337 11.0791 11.54 11.0791C11.4463 11.0791 11.1592 11.1552 10.8956 11.2548C10.632 11.3485 10.4094 11.4306 10.3919 11.4306C10.3801 11.4306 10.3684 10.8623 10.3684 10.1711V8.91168H11.54H12.7116V10.1711ZM7.1466 20.7094V21.9689L6.56667 21.7697L5.98088 21.5647L5.42439 21.7697L4.86203 21.9747V20.7153V19.4558H6.00431H7.1466V20.7094ZM15.0547 21.0902C15.0547 23.281 15.0313 23.2459 16.3493 22.7655L17.0757 22.5019L17.8665 22.7772C19.1669 23.2224 19.1552 23.24 19.1552 21.0082V19.4558H20.6783H22.2013V24.2886V29.1213H17.105H12.0086V24.2886V19.4558H13.5317H15.0547V21.0902ZM18.2648 20.727C18.2707 21.4124 18.2707 21.9747 18.2648 21.9747C18.2531 21.9747 17.9895 21.881 17.679 21.7697L17.105 21.5647L16.5368 21.7697C16.2204 21.881 15.9568 21.9747 15.951 21.9747C15.9393 21.9747 15.9334 21.4065 15.9334 20.7153V19.4558L17.0933 19.4676L18.2473 19.4851L18.2648 20.727Z" fill="white"></path><path d="M18.0012 5.63125C17.8138 5.7074 17.679 5.94171 17.72 6.11745C17.7845 6.36348 17.9251 6.43963 18.3937 6.48064C18.792 6.51578 18.8506 6.50993 18.997 6.39277C19.2021 6.22875 19.2138 5.94171 19.0263 5.76598C18.874 5.63125 18.2179 5.54338 18.0012 5.63125Z" fill="white"></path><path d="M16.0506 5.92996C15.5292 6.11156 15.3769 6.42788 15.6698 6.71492C15.8455 6.89651 15.9451 6.89651 16.4313 6.73249C16.7359 6.63291 16.8355 6.57433 16.9058 6.43374C16.982 6.29315 16.982 6.23457 16.9234 6.09398C16.8004 5.78352 16.5836 5.74251 16.0506 5.92996Z" fill="white"></path><path d="M20.1041 6.08233C20.0631 6.0999 19.9928 6.18191 19.9459 6.27564C19.7995 6.56268 19.9166 6.76184 20.3618 6.97273C20.807 7.18361 20.9828 7.20118 21.1468 7.03716C21.2932 6.89072 21.305 6.56268 21.1644 6.43966C20.8656 6.17606 20.3208 5.99446 20.1041 6.08233Z" fill="white"></path><path d="M21.8558 7.42375C21.6508 7.6815 21.6976 7.83966 22.0725 8.22042C22.3244 8.46645 22.4592 8.56018 22.5763 8.56018C22.7755 8.56018 23.0215 8.32001 23.0215 8.1267C23.0215 7.98611 22.7169 7.5702 22.4767 7.37689C22.2776 7.21873 21.9964 7.24216 21.8558 7.42375Z" fill="white"></path><path d="M23.1386 9.20456C22.9922 9.351 22.9922 9.5326 23.1386 9.91922C23.2675 10.2531 23.4901 10.4933 23.66 10.4933C23.8592 10.4933 24.0759 10.2648 24.0759 10.0539C24.0759 9.8372 23.8885 9.351 23.742 9.18698C23.6131 9.05225 23.2851 9.05811 23.1386 9.20456Z" fill="white"></path><path d="M23.8415 11.2373C23.5896 11.331 23.5486 11.4365 23.5486 11.9578C23.5486 12.5436 23.6189 12.6608 23.9704 12.6608C24.3042 12.6608 24.398 12.5026 24.398 11.952C24.398 11.5712 24.3804 11.4716 24.2808 11.3779C24.1461 11.249 23.9704 11.1904 23.8415 11.2373Z" fill="white"></path><path d="M23.3846 13.5218C23.2089 13.6741 22.9512 14.3302 22.998 14.506C23.0742 14.8106 23.4784 14.9277 23.7068 14.711C23.8474 14.588 24.0759 14.0198 24.0759 13.8089C24.0759 13.6331 23.8474 13.4223 23.6541 13.4223C23.5721 13.4223 23.4491 13.4691 23.3846 13.5218Z" fill="white"></path><path d="M22.0431 15.6599C21.8791 15.8298 21.7268 16.0289 21.7092 16.0934C21.6272 16.3745 21.967 16.7084 22.2481 16.6206C22.3126 16.5971 22.5 16.439 22.6641 16.2632C22.998 15.9118 23.0507 15.6775 22.8456 15.4724C22.6289 15.2557 22.3829 15.3143 22.0431 15.6599Z" fill="white"></path><path d="M20.356 16.8667C20.1627 16.9604 19.9694 17.0834 19.9225 17.1362C19.7936 17.2943 19.8171 17.5814 19.9694 17.7102C20.1568 17.8567 20.356 17.845 20.7719 17.6458C21.0414 17.5169 21.1468 17.4349 21.1878 17.3119C21.2874 17.0249 21.1 16.7085 20.8246 16.7027C20.7602 16.7027 20.5493 16.7788 20.356 16.8667Z" fill="white"></path><path d="M17.8021 17.5169C17.6029 17.7219 17.5912 17.8625 17.7553 18.0734C17.8666 18.214 17.9076 18.2257 18.3293 18.2257C18.8858 18.2257 19.0967 18.1086 19.0967 17.7922C19.0967 17.47 18.9034 17.347 18.3996 17.347C18.0071 17.347 17.9603 17.3587 17.8021 17.5169Z" fill="white"></path><path d="M13.391 25.4367C13.1977 25.589 13.1802 25.8995 13.3559 26.0752C13.4672 26.1865 13.5492 26.1924 14.5216 26.1924H15.576L15.6932 26.0401C15.8572 25.8351 15.8455 25.6359 15.6698 25.4601C15.5292 25.3137 15.5116 25.3137 14.5392 25.3137C13.6254 25.3137 13.5375 25.3254 13.391 25.4367Z" fill="white"></path><path d="M13.391 27.194C13.1977 27.3463 13.1802 27.6568 13.3559 27.8325C13.4672 27.9438 13.5492 27.9497 15.3769 27.9497C17.2045 27.9497 17.2865 27.9438 17.3978 27.8325C17.5736 27.6568 17.556 27.3463 17.3627 27.194C17.2104 27.0769 17.1401 27.071 15.3769 27.071C13.6136 27.071 13.5434 27.0769 13.391 27.194Z" fill="white"></path><path d="M7.82609 14.8925C7.62692 15.0507 7.61521 15.3436 7.80852 15.5193C7.93739 15.6423 7.99597 15.6482 8.96838 15.6482C9.97007 15.6482 9.99936 15.6423 10.1224 15.5135C10.304 15.3202 10.2923 15.0448 10.0989 14.8925C9.9525 14.7812 9.86463 14.7695 8.96252 14.7695C8.06041 14.7695 7.97254 14.7812 7.82609 14.8925Z" fill="white"></path><path d="M7.92567 16.5855C7.66793 16.691 7.59177 17.0893 7.79094 17.2885C7.90224 17.3998 7.98425 17.4056 9.82948 17.4056C11.6864 17.4056 11.7626 17.3998 11.8622 17.2885C12.0086 17.1245 11.9969 16.8433 11.8387 16.6851C11.7157 16.5562 11.6806 16.5562 9.8822 16.5445C8.8805 16.5387 7.99597 16.5562 7.92567 16.5855Z" fill="white"></path><path d="M2.25519 25.4601C2.07945 25.6359 2.06774 25.8351 2.23176 26.0401L2.34891 26.1924H3.40333C4.37574 26.1924 4.45775 26.1865 4.56905 26.0752C4.74478 25.8995 4.72721 25.589 4.5339 25.4367C4.38745 25.3254 4.29958 25.3137 3.38576 25.3137C2.41335 25.3137 2.39578 25.3137 2.25519 25.4601Z" fill="white"></path><path d="M2.36073 27.1296C2.09127 27.2409 2.02683 27.6158 2.24357 27.8208C2.3783 27.9497 2.40759 27.9497 4.28797 27.9497H6.20349L6.32065 27.7974C6.39094 27.7095 6.44366 27.6041 6.44366 27.5631C6.44366 27.4108 6.30893 27.1999 6.16834 27.1355C5.99846 27.0593 2.55404 27.0535 2.36073 27.1296Z" fill="white"></path></svg> 