<?xml version="1.0" encoding="UTF-8"?> <svg xmlns="http://www.w3.org/2000/svg" width="35" height="30" viewBox="0 0 35 30" fill="none"><path d="M16.76 0.0809304C16.4395 0.261206 16.4261 0.361359 16.4194 2.33771C16.4194 3.53287 16.4461 4.24729 16.4929 4.34745C16.573 4.52772 16.8801 4.72803 17.0804 4.72803C17.3008 4.72803 17.5278 4.59449 17.6413 4.39418C17.7415 4.23394 17.7548 3.96686 17.7548 2.36442C17.7548 1.08246 17.7281 0.474865 17.6747 0.354682C17.5278 0.0341924 17.0871 -0.0993449 16.76 0.0809304Z" fill="white"></path><path d="M10.4033 2.1841C10.0427 2.54466 10.0895 2.68487 11.1511 4.36744C11.6719 5.18869 12.1727 5.92983 12.2661 6.00327C12.5065 6.19022 12.9205 6.14348 13.1275 5.89644C13.4279 5.54924 13.3678 5.38232 12.3396 3.75317C11.8255 2.93191 11.3247 2.19746 11.2312 2.12401C10.9775 1.92371 10.6437 1.95041 10.4033 2.1841Z" fill="white"></path><path d="M22.9425 2.12401C22.849 2.19746 22.3483 2.93191 21.8341 3.75317C20.8059 5.38232 20.7458 5.54924 21.0463 5.89644C21.2533 6.14348 21.6672 6.19022 21.9076 6.00327C22.0011 5.92983 22.5018 5.18869 23.0226 4.36744C23.7905 3.14557 23.9641 2.83176 23.9641 2.62478C23.9641 2.11066 23.3498 1.80352 22.9425 2.12401Z" fill="white"></path><path d="M6.27711 5.85646C6.06345 5.92991 5.8164 6.08347 5.66951 6.23704C5.41579 6.49744 0.261253 15.5112 0.0809772 16.012C-0.0258527 16.3124 -0.0258527 16.693 0.0743003 17.0269C0.221191 17.5143 0.581742 17.8281 1.78358 18.4958C2.85188 19.09 2.91864 19.1167 3.36599 19.1367C3.77996 19.1568 3.88011 19.1367 4.2006 18.9698C4.52777 18.7962 4.8082 18.5091 5.04189 18.1085C5.10866 17.995 5.12869 17.995 5.40912 18.1619C5.7897 18.3889 6.27043 18.8029 6.27043 18.9097C6.27043 18.9565 6.17028 19.1701 6.05677 19.3905C5.85647 19.751 5.83643 19.8311 5.83643 20.3853C5.83643 20.8594 5.86982 21.053 5.98333 21.3C6.25708 21.901 6.91809 22.4551 7.50565 22.582C7.69928 22.6221 7.71263 22.6488 7.78608 23.0828C7.87288 23.6503 8.08654 24.1043 8.4137 24.4315C8.68746 24.7052 9.17487 24.979 9.52874 25.0591C9.72905 25.0992 9.7424 25.1192 9.7424 25.3863C9.7424 26.3077 10.4168 27.189 11.3448 27.4695L11.7121 27.5763L11.7254 27.9368C11.7521 28.6913 12.333 29.5193 13.0675 29.8531C13.3078 29.9599 13.5148 29.9933 13.9488 30C14.69 30 14.9637 29.8665 16.1655 28.8916L17.087 28.1505L17.541 28.5177C18.2955 29.1253 18.4824 29.1988 19.2569 29.1988C19.8712 29.1988 19.9513 29.1854 20.2785 28.9985C20.7325 28.7514 21.1932 28.244 21.3401 27.8367L21.4469 27.5229L22.1213 27.5296C22.7089 27.5296 22.8424 27.5095 23.1295 27.3626C23.8506 27.0088 24.3514 26.281 24.4181 25.5131C24.4449 25.1125 24.4582 25.0992 24.6585 25.0524C24.999 24.979 25.4864 24.7052 25.7602 24.4315C26.094 24.0977 26.2943 23.657 26.3878 23.0961L26.4546 22.6354L26.7283 22.5553C27.1824 22.4218 27.4628 22.2482 27.7633 21.921C28.2106 21.4336 28.3375 21.0931 28.3375 20.3853C28.3375 19.8311 28.3174 19.751 28.1238 19.3905C28.0036 19.1701 27.9035 18.9565 27.9035 18.9097C27.9035 18.8029 28.3842 18.3889 28.7648 18.1619C29.0452 17.995 29.0652 17.995 29.132 18.1085C29.3791 18.5291 29.6461 18.8029 29.9733 18.9698C30.2938 19.1367 30.4006 19.1568 30.8079 19.1367C31.2553 19.1167 31.322 19.09 32.3436 18.5225C32.9311 18.1953 33.512 17.8348 33.6322 17.7212C34.0395 17.3407 34.2331 16.7998 34.153 16.259C34.0996 15.9252 32.851 13.6484 32.6173 13.4614C32.3903 13.2745 32.0031 13.3078 31.7694 13.5349C31.4622 13.842 31.5023 14.049 32.0431 15.0104C32.8043 16.3525 32.8844 16.5328 32.8043 16.6663C32.7108 16.8132 30.9147 17.8147 30.7411 17.8147C30.6677 17.8147 30.5742 17.788 30.5342 17.7613C30.434 17.6945 25.2327 8.48714 25.2327 8.37364C25.2327 8.2401 25.3996 8.12659 26.3945 7.57241C27.1757 7.13842 27.3493 7.06497 27.4695 7.11839C27.5563 7.15845 27.83 7.57241 28.1639 8.15998C28.4643 8.69413 28.7715 9.19489 28.8516 9.26834C29.0719 9.46864 29.5059 9.44861 29.7329 9.22828C30.0467 8.90779 29.9867 8.6741 29.3056 7.47226C28.9317 6.80457 28.6112 6.32384 28.4443 6.17695C28.1105 5.87649 27.563 5.70289 27.1423 5.76298C26.8619 5.80972 25.4731 6.51079 24.6919 7.00488C24.0442 7.41885 23.7505 8.20672 23.9908 8.88108L24.0843 9.1348L23.5368 9.30172C23.243 9.3952 22.8291 9.50203 22.6221 9.54877L22.2482 9.62221L20.7859 9.10809C18.9097 8.45376 18.7094 8.40035 17.9883 8.40035C17.2272 8.40035 14.0356 8.7008 13.408 8.82766C12.8471 8.94785 12.2462 9.20825 11.9992 9.44861L11.8122 9.62221L11.3983 9.5087C11.1646 9.44861 10.7773 9.33511 10.5369 9.26166L10.0963 9.12812L10.1831 8.88108C10.4568 8.11324 10.1096 7.37211 9.23496 6.85799C7.41217 5.78301 6.93812 5.62277 6.27711 5.85646ZM7.78608 7.57241C8.76758 8.11324 8.94118 8.23342 8.94118 8.37364C8.94118 8.48714 3.7399 17.6945 3.63975 17.7613C3.59968 17.788 3.51289 17.8147 3.44612 17.8147C3.29923 17.8147 1.50983 16.8466 1.38964 16.6997C1.32955 16.6262 1.32287 16.5528 1.36961 16.4193C1.50315 16.0787 6.49077 7.29866 6.61763 7.17848C6.69107 7.11839 6.77787 7.06497 6.81126 7.06497C6.84464 7.06497 7.28531 7.29199 7.78608 7.57241ZM20.3586 10.3633C21.9611 10.9376 22.0011 10.9509 22.4618 10.9108C22.7222 10.8908 23.3365 10.7573 23.8306 10.6104C24.3247 10.4635 24.752 10.3633 24.772 10.3901C24.8588 10.4769 28.3241 16.6463 28.3508 16.7464C28.3642 16.8132 28.224 16.9401 27.9369 17.1137C27.6965 17.2605 27.3493 17.5343 27.1623 17.7212L26.8218 18.0684L25.206 16.7932C23.5635 15.4912 21.5738 13.9956 20.5723 13.3145C18.9565 12.2195 17.9216 11.9858 15.9519 12.2729C14.8502 12.4332 14.4229 12.4198 13.8687 12.2062C13.3012 11.9925 12.9473 11.6119 12.7804 11.0511C12.6669 10.6638 12.7136 10.5236 13.0341 10.3633C13.3679 10.1897 13.8286 10.0829 14.6432 10.0028C16.7998 9.78246 17.2472 9.74907 17.9549 9.76243L18.7228 9.78246L20.3586 10.3633ZM10.37 10.6037C10.8841 10.7506 11.3181 10.8908 11.3448 10.9175C11.3649 10.9509 11.425 11.1178 11.465 11.3048C11.7722 12.5333 12.7403 13.408 14.0557 13.6417C14.7634 13.7685 14.9437 13.7685 16.0454 13.6016C18.0417 13.3012 18.5358 13.4681 20.9529 15.2241C22.6822 16.4794 26.488 19.4773 26.8285 19.8378C27.0355 20.0648 27.0889 20.5255 26.942 20.8126C26.7016 21.2733 26.0607 21.4269 25.6267 21.1331C25.4998 21.0463 24.999 20.6591 24.5049 20.2651C23.7371 19.6575 23.5702 19.5507 23.3699 19.5507C22.996 19.5574 22.6955 19.8645 22.6955 20.2451C22.6955 20.4788 22.9092 20.6991 23.9975 21.5738C24.7653 22.1881 24.9456 22.3683 25.0191 22.582C25.1259 22.9158 25.0324 23.263 24.7653 23.5234C24.5851 23.697 24.5049 23.7237 24.1711 23.7237H23.7905L22.6421 22.8023C21.3401 21.7674 21.2133 21.7207 20.8126 22.0812C20.6324 22.2415 20.5923 22.3216 20.5923 22.5419C20.5923 22.8825 20.6324 22.9225 21.8743 23.904C22.9025 24.7186 23.0961 24.9389 23.0961 25.3395C23.0961 25.7735 22.6488 26.2276 22.2148 26.2276C21.9076 26.2276 21.734 26.1274 20.7125 25.3062C20.1583 24.8655 19.6509 24.4716 19.5707 24.4315C19.0099 24.131 18.3889 24.7787 18.7094 25.3329C18.7562 25.413 19.0299 25.6734 19.3237 25.9138C20.0314 26.4813 20.0982 26.5681 20.1383 26.9153C20.1984 27.4561 19.8111 27.8968 19.2703 27.8968C18.9498 27.8968 18.8496 27.8434 18.1753 27.3092C17.6278 26.8819 17.6278 26.8819 17.5877 26.5013C17.5009 25.7869 17.0202 25.0257 16.4593 24.7119C16.3325 24.6452 16.3325 24.6318 16.4794 24.318C16.7865 23.6637 16.7798 22.9359 16.466 22.3083C16.3058 22.0011 15.8651 21.5271 15.5847 21.3735C15.4645 21.3067 15.4645 21.2867 15.6447 20.8928C16.032 20.0314 15.825 19.0232 15.1373 18.3756C14.6699 17.9416 14.296 17.788 13.6817 17.7813C13.408 17.7813 13.0675 17.808 12.9339 17.8414C12.7136 17.8882 12.6802 17.8815 12.6802 17.7747C12.6802 17.5744 12.313 16.9868 12.0392 16.7464C11.6052 16.3658 11.1178 16.1856 10.5436 16.1856C9.84255 16.1856 9.52206 16.3458 8.35361 17.2873L7.37211 18.0684L6.9715 17.6879C6.75116 17.4742 6.39729 17.2005 6.19031 17.0803C5.97665 16.9534 5.80305 16.8199 5.80305 16.7865C5.80305 16.7331 6.43735 15.6047 8.82099 11.3849C9.14816 10.8107 9.42191 10.3366 9.42859 10.3366C9.43526 10.3366 9.86258 10.4568 10.37 10.6037ZM10.9242 17.6077C11.0911 17.6879 11.2447 17.8214 11.3048 17.9416C11.4584 18.2354 11.445 18.6894 11.2714 18.9097C11.1245 19.09 9.02798 20.806 8.56727 21.1198C8.11325 21.4269 7.47894 21.28 7.2319 20.8126C7.09836 20.5456 7.13842 20.0715 7.31202 19.8712C7.55907 19.5974 10.0963 17.5944 10.2699 17.5476C10.5369 17.4675 10.6171 17.4742 10.9242 17.6077ZM14.089 19.2369C14.2092 19.317 14.3494 19.4639 14.3962 19.5507C14.5297 19.8178 14.503 20.3052 14.3428 20.5055C14.2693 20.6057 13.3479 21.3668 12.293 22.2014L10.3834 23.7237H9.99612C9.66895 23.7237 9.58883 23.697 9.40856 23.5234C9.14148 23.263 9.04801 22.9158 9.15484 22.582C9.22828 22.355 9.482 22.128 11.011 20.8928C11.9858 20.1116 12.9139 19.3838 13.0742 19.277C13.4414 19.0366 13.7752 19.0232 14.089 19.2369ZM14.8836 22.5219C15.2041 22.6888 15.351 22.9359 15.351 23.3165C15.351 23.5234 15.3109 23.7237 15.2441 23.8172C15.1039 24.0175 12.5133 26.0874 12.2996 26.1675C11.7388 26.3811 11.0778 25.9405 11.0778 25.3596C11.0778 24.9256 11.2447 24.7386 12.6335 23.6436C13.3746 23.0561 14.0423 22.5419 14.1157 22.5019C14.3027 22.3951 14.6566 22.4017 14.8836 22.5219ZM15.8517 25.9204C16.2323 26.1675 16.3658 26.7617 16.1255 27.1223C15.9719 27.3626 14.3895 28.6179 14.1825 28.6713C13.3546 28.8783 12.6936 27.8367 13.2611 27.2157C13.4547 26.9954 14.8502 25.9004 15.0238 25.827C15.2308 25.7402 15.6447 25.7869 15.8517 25.9204Z" fill="white"></path><path d="M30.2871 10.9243C29.773 11.4584 30.3739 12.273 31.0416 11.9525C31.2953 11.8323 31.4422 11.5185 31.3888 11.2314C31.2953 10.7507 30.6343 10.5637 30.2871 10.9243Z" fill="white"></path></svg> 