<?xml version="1.0" encoding="UTF-8"?> <svg xmlns="http://www.w3.org/2000/svg" width="32" height="31" viewBox="0 0 32 31" fill="none"><path d="M14.7975 0.375386C12.9293 0.566521 10.8823 1.26324 9.31625 2.23741C8.53321 2.7245 7.49738 3.53836 7.35557 3.78499C7.1521 4.13026 7.35557 4.58652 7.74401 4.66051C8.02763 4.70983 8.16327 4.64818 8.74284 4.16726C10.1301 3.02661 11.9798 2.13876 13.7185 1.79348C15.8272 1.37422 17.7077 1.47904 19.7485 2.13876C20.4884 2.37305 20.698 2.37305 20.9015 2.1141C21.0618 1.90447 21.0618 1.54686 20.9015 1.33723C20.8028 1.21391 20.5809 1.11526 20.0198 0.930294C18.3736 0.393883 16.5301 0.202748 14.7975 0.375386Z" fill="white"></path><path d="M22.6588 2.02784C21.9312 2.21898 21.4873 2.79238 21.4873 3.54459C21.4935 4.05018 21.6291 4.37079 21.9867 4.68524C22.3073 4.96269 22.5601 5.05518 23.0102 5.05518C23.5035 5.05518 23.8241 4.9072 24.1447 4.54343C24.6441 3.97619 24.6749 3.17465 24.2125 2.57042C23.9042 2.16965 23.1459 1.89837 22.6588 2.02784ZM23.1952 3.3103C23.4172 3.5076 23.3 3.82205 22.9979 3.82205C22.6834 3.82205 22.5725 3.48294 22.8252 3.30413C22.9979 3.18082 23.0534 3.18082 23.1952 3.3103Z" fill="white"></path><path d="M27.1166 2.23744C26.907 2.32992 21.8388 8.15645 21.7217 8.43391C21.6477 8.61888 21.6477 8.6682 21.7463 8.8655C21.882 9.14296 22.1286 9.27244 22.4122 9.22311C22.5972 9.18612 22.9548 8.79768 25.2238 6.18961C26.6542 4.54339 27.8627 3.11296 27.912 3.01431C28.1463 2.54572 27.5975 2.00931 27.1166 2.23744Z" fill="white"></path><path d="M5.85112 5.48056C5.3887 5.94915 5.87579 6.71986 6.48002 6.47323C6.72665 6.36841 6.85613 6.16495 6.85613 5.87516C6.85613 5.69636 6.81297 5.61004 6.66499 5.4744C6.39987 5.23394 6.09775 5.2401 5.85112 5.48056Z" fill="white"></path><path d="M13.1637 5.97382C13.0958 6.00465 12.9848 6.09097 12.917 6.16496C12.7999 6.29444 12.7937 6.39925 12.7752 8.14413L12.7567 9.98766H10.2658C8.46543 9.98766 7.73172 10.0062 7.61457 10.0616C7.27546 10.2158 7.27546 10.2096 7.27546 13.5946V16.7082H6.59724H5.91902V16.2458C5.91902 15.4751 5.68472 15.2285 4.97568 15.2285H4.64273L4.59957 14.9818C4.42693 13.8967 4.43926 12.2443 4.6304 11.1838C4.74138 10.5364 5.00034 9.61772 5.25313 8.97649C5.6354 7.98999 5.64157 7.98382 5.54908 7.76803C5.40727 7.42892 4.92635 7.29327 4.6304 7.49674C4.47626 7.60772 4.29745 7.97149 3.99534 8.78536C3.41577 10.3514 3.13831 12.3306 3.26779 14.0015C3.29862 14.4639 3.34795 14.9263 3.36644 15.0312L3.40344 15.2223L1.88052 15.2408L0.357607 15.2593L0.178804 15.4628L0 15.6601V21.24C0 25.4326 0.0184969 26.8569 0.0739877 26.974C0.221963 27.307 0.277454 27.3131 2.98417 27.3131H5.48742L5.68472 27.1343C5.86353 26.9802 5.88203 26.9185 5.90669 26.5486L5.93135 26.1417H7.10899H8.28046L9.79721 26.7336C10.6296 27.0603 12.6149 27.8434 14.2118 28.4661C17.7632 29.8657 18.2873 30.0568 18.9039 30.1678C20.1678 30.4083 21.0927 30.359 22.6402 29.9644C27.9859 28.6202 29.7986 28.1393 30.0883 28.0037C30.7419 27.7016 31.3276 26.9432 31.5003 26.1971C31.7777 24.9887 31.1365 23.7124 29.9774 23.1636C29.6814 23.028 29.4718 22.9787 29.0833 22.954C28.6271 22.9232 28.4236 22.9602 26.913 23.2993C26.0005 23.5089 25.1867 23.7001 25.1127 23.7186C24.9709 23.7494 24.9709 23.7432 24.9709 23.0773V22.4053L25.2545 22.134C25.4148 21.9798 25.7477 21.6037 26.0067 21.3016C27.5173 19.5074 28.5099 17.2076 28.8306 14.7784C29.0094 13.4096 28.8614 10.8508 28.5716 10.2836C28.3866 9.926 27.9119 9.87051 27.6098 10.1788C27.4001 10.3884 27.4001 10.3453 27.5913 11.6216C27.7084 12.4169 27.7084 13.798 27.5913 14.6982C27.3385 16.6281 26.5616 18.5456 25.4086 20.0808L25.0017 20.6234L24.9709 17.0658L24.94 13.5021L24.7674 13.3356L24.6009 13.163L22.0422 13.1445L19.4834 13.126V9.73487V6.3376L19.3108 6.17112L19.1443 5.99849L17.27 5.96149C14.853 5.906 13.3178 5.91217 13.1637 5.97382ZM17.0357 7.19462L18.2503 7.23162V13.2678C18.2503 16.5849 18.2318 19.2978 18.2071 19.2978C18.1763 19.2978 17.2268 18.9093 16.0923 18.4408L14.0268 17.5837L14.0083 12.3676L13.996 7.15146H14.9085C15.4141 7.15146 16.3698 7.16996 17.0357 7.19462ZM12.7629 14.1433V17.0658L12.3498 16.887L11.9305 16.7144L10.2226 16.7082H8.50859V13.9645V11.2208H10.6357H12.7629V14.1433ZM23.7377 19.1991V24.033L23.2938 24.1378C21.8202 24.4769 21.4133 24.5386 20.7166 24.5324C20.3281 24.5324 19.8965 24.5139 19.7609 24.4893L19.5143 24.4461L19.4958 24.0022C19.4834 23.6322 19.5019 23.5089 19.6252 23.2623C19.8595 22.806 19.9767 22.3374 19.9767 21.8812C19.9767 21.4311 19.8102 20.8022 19.6068 20.5001C19.4896 20.3213 19.4834 20.2165 19.4834 17.3803C19.4834 15.7649 19.5019 14.4269 19.5266 14.4084C19.5451 14.3838 20.5069 14.3653 21.6537 14.3653H23.7377V19.1991ZM4.67356 21.2831L4.68589 26.08H2.95951H1.23313V21.2708V16.4616L2.94718 16.4739L4.65506 16.4924L4.67356 21.2831ZM14.7791 19.23C16.4869 19.939 17.9975 20.5926 18.127 20.6789C18.4599 20.8947 18.6881 21.3078 18.7251 21.7579C18.8114 22.7197 18.1208 23.4904 17.159 23.4904C16.826 23.4904 16.6041 23.4226 15.4018 22.9602C12.2265 21.7332 12.2758 21.7517 12.0477 21.8257C11.7764 21.9182 11.6531 22.1032 11.6531 22.4176C11.6531 22.6087 11.6901 22.7136 11.7949 22.8184C11.9737 22.9848 18.09 25.3463 18.9285 25.5682C19.3725 25.6854 19.7301 25.7286 20.4083 25.7532C21.4688 25.7902 21.7339 25.7594 23.6761 25.3093C24.4714 25.1305 25.9204 24.7975 26.8945 24.5756C27.8626 24.3536 28.7812 24.1686 28.9292 24.1686C29.5458 24.1686 30.1993 24.7297 30.3041 25.3463C30.4028 25.9074 30.15 26.5054 29.6876 26.8137C29.404 27.0048 21.8449 28.9409 20.9694 29.0395C20.2973 29.1258 19.6746 29.0827 18.9409 28.91C18.6634 28.8484 17.1528 28.2935 15.5806 27.6769C14.0145 27.0603 11.7825 26.191 10.6234 25.7347L8.51476 24.9085H7.21997H5.91902V21.4249V17.9413H8.79221H11.6654L14.7791 19.23Z" fill="white"></path><path d="M25.8709 6.56573C25.5688 6.67054 25.1742 7.04665 25.0262 7.36726C24.8906 7.66321 24.8721 8.29827 24.9954 8.59423C25.1126 8.88401 25.4455 9.23545 25.7353 9.38959C26.0867 9.57456 26.7526 9.57456 27.0979 9.38959C27.6528 9.09364 27.9549 8.61272 27.9549 8.01465C27.9549 6.92334 26.9068 6.19579 25.8709 6.56573ZM26.6663 7.82969C26.7588 7.9345 26.765 7.97766 26.7095 8.10714C26.617 8.30444 26.4813 8.35993 26.2902 8.27361C26.1854 8.22429 26.1422 8.1503 26.1422 8.02699C26.1422 7.70637 26.4505 7.58922 26.6663 7.82969Z" fill="white"></path></svg> 