<?xml version="1.0" encoding="UTF-8"?> <svg xmlns="http://www.w3.org/2000/svg" width="32" height="30" viewBox="0 0 32 30" fill="none"><path d="M14.7975 0.061665C12.9293 0.2528 10.8823 0.949518 9.31625 1.92369C8.53321 2.41078 7.49738 3.22464 7.35557 3.47127C7.1521 3.81654 7.35557 4.2728 7.74401 4.34679C8.02763 4.39611 8.16327 4.33446 8.74284 3.85354C10.1301 2.71289 11.9798 1.82504 13.7185 1.47976C15.8272 1.0605 17.7077 1.16532 19.7485 1.82504C20.4884 2.05933 20.698 2.05933 20.9015 1.80038C21.0618 1.59074 21.0618 1.23314 20.9015 1.02351C20.8028 0.900193 20.5809 0.801542 20.0198 0.616573C18.3736 0.0801619 16.5301 -0.110973 14.7975 0.061665Z" fill="white"></path><path d="M22.6588 1.71412C21.9312 1.90526 21.4873 2.47866 21.4873 3.23087C21.4935 3.73645 21.6291 4.05707 21.9867 4.37152C22.3073 4.64897 22.5601 4.74146 23.0102 4.74146C23.5035 4.74146 23.8241 4.59348 24.1447 4.22971C24.6441 3.66247 24.6749 2.86093 24.2125 2.2567C23.9042 1.85593 23.1459 1.58464 22.6588 1.71412ZM23.1952 2.99658C23.4172 3.19388 23.3 3.50833 22.9979 3.50833C22.6834 3.50833 22.5725 3.16922 22.8252 2.99041C22.9979 2.8671 23.0534 2.8671 23.1952 2.99658Z" fill="white"></path><path d="M27.1166 1.92371C26.907 2.0162 21.8388 7.84273 21.7217 8.12019C21.6477 8.30516 21.6477 8.35448 21.7463 8.55178C21.882 8.82924 22.1286 8.95872 22.4122 8.90939C22.5972 8.8724 22.9548 8.48396 25.2238 5.87589C26.6542 4.22967 27.8627 2.79924 27.912 2.70059C28.1463 2.232 27.5975 1.69559 27.1166 1.92371Z" fill="white"></path><path d="M5.85112 5.16684C5.3887 5.63543 5.87579 6.40614 6.48002 6.15951C6.72665 6.05469 6.85613 5.85123 6.85613 5.56144C6.85613 5.38264 6.81297 5.29632 6.66499 5.16068C6.39987 4.92021 6.09775 4.92638 5.85112 5.16684Z" fill="white"></path><path d="M13.1637 5.6601C13.0958 5.69093 12.9848 5.77725 12.917 5.85124C12.7999 5.98072 12.7937 6.08553 12.7752 7.83041L12.7567 9.67394H10.2658C8.46543 9.67394 7.73172 9.69243 7.61457 9.74793C7.27546 9.90207 7.27546 9.8959 7.27546 13.2808V16.3945H6.59724H5.91902V15.9321C5.91902 15.1614 5.68472 14.9147 4.97568 14.9147H4.64273L4.59957 14.6681C4.42693 13.583 4.43926 11.9306 4.6304 10.8701C4.74138 10.2227 5.00034 9.304 5.25313 8.66277C5.6354 7.67627 5.64157 7.6701 5.54908 7.45431C5.40727 7.11519 4.92635 6.97955 4.6304 7.18302C4.47626 7.294 4.29745 7.65777 3.99534 8.47164C3.41577 10.0377 3.13831 12.0169 3.26779 13.6878C3.29862 14.1502 3.34795 14.6126 3.36644 14.7174L3.40344 14.9086L1.88052 14.9271L0.357607 14.9456L0.178804 15.149L0 15.3463V20.9262C0 25.1189 0.0184969 26.5431 0.0739877 26.6603C0.221963 26.9932 0.277454 26.9994 2.98417 26.9994H5.48742L5.68472 26.8206C5.86353 26.6665 5.88203 26.6048 5.90669 26.2349L5.93135 25.8279H7.10899H8.28046L9.79721 26.4198C10.6296 26.7466 12.6149 27.5296 14.2118 28.1524C17.7632 29.552 18.2873 29.7431 18.9039 29.8541C20.1678 30.0946 21.0927 30.0452 22.6402 29.6506C27.9859 28.3065 29.7986 27.8256 30.0883 27.69C30.7419 27.3878 31.3276 26.6295 31.5003 25.8834C31.7777 24.675 31.1365 23.3987 29.9774 22.8499C29.6814 22.7143 29.4718 22.665 29.0833 22.6403C28.6271 22.6095 28.4236 22.6465 26.913 22.9856C26.0005 23.1952 25.1867 23.3863 25.1127 23.4048C24.9709 23.4357 24.9709 23.4295 24.9709 22.7636V22.0915L25.2545 21.8203C25.4148 21.6661 25.7477 21.29 26.0067 20.9879C27.5173 19.1937 28.5099 16.8939 28.8306 14.4646C29.0094 13.0959 28.8614 10.5371 28.5716 9.96989C28.3866 9.61228 27.9119 9.55679 27.6098 9.86507C27.4001 10.0747 27.4001 10.0315 27.5913 11.3078C27.7084 12.1032 27.7084 13.4843 27.5913 14.3845C27.3385 16.3143 26.5616 18.2319 25.4086 19.7671L25.0017 20.3097L24.9709 16.7521L24.94 13.1884L24.7674 13.0219L24.6009 12.8492L22.0422 12.8307L19.4834 12.8123V9.42115V6.02388L19.3108 5.8574L19.1443 5.68477L17.27 5.64777C14.853 5.59228 13.3178 5.59845 13.1637 5.6601ZM17.0357 6.8809L18.2503 6.91789V12.9541C18.2503 16.2712 18.2318 18.9841 18.2071 18.9841C18.1763 18.9841 17.2268 18.5956 16.0923 18.127L14.0268 17.27L14.0083 12.0539L13.996 6.83774H14.9085C15.4141 6.83774 16.3698 6.85624 17.0357 6.8809ZM12.7629 13.8296V16.7521L12.3498 16.5733L11.9305 16.4007L10.2226 16.3945H8.50859V13.6508V10.9071H10.6357H12.7629V13.8296ZM23.7377 18.8854V23.7193L23.2938 23.8241C21.8202 24.1632 21.4133 24.2249 20.7166 24.2187C20.3281 24.2187 19.8965 24.2002 19.7609 24.1755L19.5143 24.1324L19.4958 23.6885C19.4834 23.3185 19.5019 23.1952 19.6252 22.9486C19.8595 22.4923 19.9767 22.0237 19.9767 21.5675C19.9767 21.1174 19.8102 20.4885 19.6068 20.1864C19.4896 20.0076 19.4834 19.9027 19.4834 17.0665C19.4834 15.4511 19.5019 14.1132 19.5266 14.0947C19.5451 14.07 20.5069 14.0515 21.6537 14.0515H23.7377V18.8854ZM4.67356 20.9694L4.68589 25.7663H2.95951H1.23313V20.9571V16.1479L2.94718 16.1602L4.65506 16.1787L4.67356 20.9694ZM14.7791 18.9162C16.4869 19.6253 17.9975 20.2788 18.127 20.3652C18.4599 20.581 18.6881 20.9941 18.7251 21.4442C18.8114 22.406 18.1208 23.1767 17.159 23.1767C16.826 23.1767 16.6041 23.1089 15.4018 22.6465C12.2265 21.4195 12.2758 21.438 12.0477 21.512C11.7764 21.6045 11.6531 21.7894 11.6531 22.1039C11.6531 22.295 11.6901 22.3998 11.7949 22.5046C11.9737 22.6711 18.09 25.0326 18.9285 25.2545C19.3725 25.3717 19.7301 25.4148 20.4083 25.4395C21.4688 25.4765 21.7339 25.4457 23.6761 24.9956C24.4714 24.8168 25.9204 24.4838 26.8945 24.2619C27.8626 24.0399 28.7812 23.8549 28.9292 23.8549C29.5458 23.8549 30.1993 24.416 30.3041 25.0326C30.4028 25.5936 30.15 26.1917 29.6876 26.5C29.404 26.6911 21.8449 28.6271 20.9694 28.7258C20.2973 28.8121 19.6746 28.7689 18.9409 28.5963C18.6634 28.5346 17.1528 27.9797 15.5806 27.3632C14.0145 26.7466 11.7825 25.8773 10.6234 25.421L8.51476 24.5948H7.21997H5.91902V21.1112V17.6276H8.79221H11.6654L14.7791 18.9162Z" fill="white"></path><path d="M25.8709 6.25201C25.5688 6.35682 25.1742 6.73293 25.0262 7.05354C24.8906 7.34949 24.8721 7.98455 24.9954 8.2805C25.1126 8.57029 25.4455 8.92173 25.7353 9.07587C26.0867 9.26084 26.7526 9.26084 27.0979 9.07587C27.6528 8.77992 27.9549 8.299 27.9549 7.70093C27.9549 6.60961 26.9068 5.88207 25.8709 6.25201ZM26.6663 7.51596C26.7588 7.62078 26.765 7.66394 26.7095 7.79342C26.617 7.99072 26.4813 8.04621 26.2902 7.95989C26.1854 7.91057 26.1422 7.83658 26.1422 7.71327C26.1422 7.39265 26.4505 7.2755 26.6663 7.51596Z" fill="white"></path></svg> 