<svg width="38" height="38" fill="none" xmlns="http://www.w3.org/2000/svg"><path d="M14.25 27.55L27.55 19l-13.3-8.55v17.1zM19 38c-2.628 0-5.098-.5-7.41-1.497-2.312-.998-4.322-2.352-6.032-4.06-1.71-1.71-3.064-3.721-4.06-6.033C.5 24.098 0 21.628 0 19s.5-5.098 1.497-7.41c.998-2.312 2.352-4.322 4.06-6.032 1.71-1.71 3.721-3.064 6.033-4.06C13.902.5 16.372 0 19 0s5.098.5 7.41 1.497c2.312.998 4.323 2.352 6.033 4.06 1.71 1.71 3.064 3.721 4.062 6.033C37.503 13.902 38 16.372 38 19s-.5 5.098-1.497 7.41c-.998 2.312-2.352 4.323-4.06 6.033-1.71 1.71-3.721 3.064-6.033 4.062C24.098 37.503 21.628 38 19 38z" fill="#fff"/></svg>