<?xml version="1.0" encoding="UTF-8"?> <svg xmlns="http://www.w3.org/2000/svg" width="68" height="69" viewBox="0 0 68 69" fill="none"><path d="M24.2534 1.20943C23.1616 1.48646 15.1992 5.37808 13.7745 6.3279C13.2685 6.6577 12.4563 7.33049 11.9503 7.81859C11.0316 8.72884 1.01871 22.0923 0.486112 23.1476C0.0999767 23.8732 0.0999767 25.0869 0.472797 25.8916C0.619262 26.2082 2.25701 28.3453 4.10779 30.6275C8.04904 35.4689 8.16887 35.5745 9.81993 35.5745C11.4577 35.5745 11.6041 35.4557 15.0927 31.2211L15.4255 30.8254L15.3723 34.9149C15.3323 38.7537 15.319 39.0571 15.0261 39.9278C14.0408 42.9224 12.3098 44.4263 9.39385 44.7956C8.27539 44.9407 7.99577 45.0199 7.79605 45.2705C7.43654 45.7191 7.4898 46.2863 7.94251 46.7348C8.27539 47.0515 8.44849 47.1174 8.98108 47.1174C9.34059 47.1174 9.97971 47.2098 10.3925 47.3153C12.6693 47.9089 14.1473 49.4128 15.0261 52.0644C15.319 52.9615 15.3323 53.1593 15.4122 59.4519L15.4788 65.9159L15.8383 66.5887C16.038 66.9713 16.4242 67.4594 16.7038 67.6837C17.7557 68.5411 16.1179 68.4884 40.8572 68.4884C62.9601 68.4884 63.3329 68.4884 64.1585 68.2245C67.0878 67.3143 68.5391 64.0427 67.2342 61.3252C67.0212 60.8766 66.6217 60.283 66.3554 59.9928L65.8761 59.4783L66.3155 59.0034C67.5671 57.6314 68.0065 55.9692 67.5538 54.307C67.3141 53.41 67.0212 52.8691 66.3821 52.1831L65.8362 51.6027L66.4087 50.9958C66.7149 50.6661 67.1277 50.0592 67.3141 49.6503C67.6204 49.0039 67.6736 48.7268 67.6736 47.6451C67.6736 46.4974 67.6337 46.3127 67.2475 45.5212C66.7283 44.4658 65.7696 43.5424 64.7044 43.0543L63.9454 42.6981L57.927 42.6585L51.8953 42.619V36.7222V30.8254L52.2149 31.2211C55.4771 35.2447 55.8765 35.5745 57.4743 35.5745C58.6194 35.5745 59.2585 35.3106 59.9642 34.5587C61.1759 33.2791 66.7948 26.1158 66.9413 25.6673C67.2076 24.889 67.1543 23.7677 66.8215 23.1476C66.2889 22.0923 56.276 8.72884 55.3572 7.81859C54.0124 6.4994 53.0671 5.94534 48.1671 3.53121C44.7718 1.85583 43.4803 1.28857 42.7746 1.14346C42.0156 0.985161 40.258 0.945587 33.5206 0.958778C25.8512 0.958778 25.1189 0.985161 24.2534 1.20943ZM42.4284 3.3861C42.5216 3.47844 42.4417 3.79505 42.1621 4.3755C41.5895 5.58915 40.1781 6.92154 38.7135 7.6471C36.9559 8.50457 35.7842 8.75522 33.6538 8.75522C31.5234 8.75522 30.3517 8.50457 28.5941 7.6471C27.2626 6.9875 25.758 5.61554 25.2254 4.57337C24.746 3.62355 24.7327 3.42567 25.1322 3.30695C25.6648 3.14864 42.2686 3.22779 42.4284 3.3861ZM23.1882 5.47042C24.1602 7.51518 26.5169 9.41482 29.1799 10.3251C30.3783 10.734 32.4821 11.1034 33.6538 11.1034C34.8255 11.1034 36.9293 10.734 38.1276 10.3251C40.7906 9.42801 43.1074 7.52837 44.1194 5.47042C44.399 4.87679 44.6786 4.38869 44.7452 4.3755C44.7985 4.3755 45.2645 4.58657 45.7704 4.83721C46.6359 5.27254 46.6892 5.31212 46.5693 5.62873C45.9036 7.34368 44.4389 9.17736 42.708 10.4306C37.8081 13.9924 30.9775 14.2826 25.6648 11.1562C23.4811 9.86335 21.5238 7.67348 20.7382 5.62873C20.6184 5.32531 20.6717 5.27254 21.5105 4.8504C22.0032 4.59976 22.4692 4.38869 22.5358 4.38869C22.6157 4.38869 22.8953 4.8636 23.1882 5.47042ZM18.8874 7.04027C20.8048 11.143 24.999 14.1639 30.3384 15.2852C31.7098 15.5623 35.2516 15.6018 36.6497 15.3512C41.8292 14.4146 46.0767 11.5123 48.1805 7.4756C48.4867 6.89516 48.753 6.40705 48.7663 6.38067C48.8462 6.28833 51.629 7.75263 52.3614 8.26712C52.8008 8.58372 53.5331 9.21694 53.9725 9.67866C54.8779 10.5889 61.9215 20.0343 61.8417 20.2454C61.8283 20.3114 60.1107 22.554 58.0336 25.232L54.2654 30.0866L53.6662 29.4402C53.0005 28.7015 52.4013 28.4508 51.5358 28.5563C50.5905 28.6619 49.8582 29.3347 49.6318 30.3109C49.5652 30.5879 49.4986 33.4769 49.4986 36.7222V42.619L41.7493 42.6585L33.9867 42.6981L33.2543 43.0411C31.7098 43.7667 30.6313 45.165 30.325 46.8272C30.0721 48.2519 30.5114 49.769 31.5367 50.9827L32.0826 51.6159L31.6033 52.1304C29.8324 54.0828 29.8457 57.1301 31.6432 58.9638L32.1625 59.4915L31.6033 60.0323L31.0441 60.5732H24.4265H17.8089V57.2225C17.8089 53.5155 17.9155 52.6712 18.6078 51.0354C19.5532 48.7664 21.4173 47.3681 23.7208 47.1702C24.9058 47.0646 25.0922 47.0119 25.3985 46.6953C25.7713 46.2995 25.7447 45.6003 25.3585 45.2178C25.1189 44.9803 24.8393 44.9012 24.027 44.822C21.0711 44.5582 19.2603 43.0015 18.1951 39.7959C17.9155 38.9384 17.8888 38.5822 17.8222 34.5191C17.729 29.6908 17.729 29.6645 16.8103 28.9653C16.2644 28.5563 15.3856 28.4112 14.6932 28.6487C14.4136 28.741 13.9875 29.0708 13.6413 29.4534L13.0555 30.113L9.28733 25.232C7.19687 22.554 5.47924 20.3114 5.46592 20.2454C5.38603 20.0343 12.4297 10.5889 13.3351 9.67866C14.4402 8.55734 15.1992 8.00328 16.9435 7.11942C17.7424 6.69728 18.4481 6.36748 18.488 6.35429C18.5279 6.35429 18.701 6.67089 18.8874 7.04027ZM7.70284 26.881C9.71341 29.4666 11.4044 31.6696 11.4577 31.762C11.5908 31.9994 10.712 33.068 10.2061 33.2791C9.99303 33.3582 9.68678 33.3978 9.50037 33.345C9.28733 33.2923 8.11561 31.9335 5.83874 29.1236C1.95076 24.3085 2.09723 24.6515 3.18906 23.1344C3.56188 22.62 3.90807 22.1846 3.96133 22.1846C4.00127 22.1846 5.69228 24.2953 7.70284 26.881ZM64.1185 23.1344C65.2237 24.6383 65.3568 24.3349 61.5487 29.0444C59.7512 31.2607 58.1667 33.1471 58.0202 33.2527C57.5542 33.5693 56.9284 33.3318 56.3026 32.6063C55.9298 32.1709 55.7833 31.8939 55.8499 31.762C56.1029 31.353 63.2664 22.1846 63.3462 22.1846C63.3995 22.1846 63.7457 22.6068 64.1185 23.1344ZM17.1432 43.0279C17.6225 43.859 18.9274 45.2574 19.5665 45.6399C19.7662 45.7586 19.9393 45.8906 19.9393 45.9433C19.9393 45.9829 19.5798 46.2995 19.1404 46.6293C18.3548 47.2493 17.303 48.5026 16.9035 49.3205C16.7837 49.5579 16.6638 49.7558 16.6239 49.7558C16.584 49.7558 16.3709 49.4128 16.1446 49.0039C15.7584 48.2651 14.387 46.748 13.6413 46.2467L13.2685 45.9829L14.0807 45.3365C14.9063 44.6769 15.9448 43.4501 16.3177 42.6585C16.4375 42.4343 16.5573 42.2364 16.5973 42.2364C16.6372 42.2364 16.8902 42.5926 17.1432 43.0279ZM63.8256 45.1254C64.7443 45.5476 65.4766 46.6425 65.4766 47.6451C65.4766 48.6477 64.8109 49.6767 63.8655 50.1648C63.3729 50.4022 62.9468 50.4154 48.966 50.4154C33.3076 50.4154 34.2397 50.455 33.4141 49.703C32.0294 48.463 32.3889 45.9829 34.0799 45.1518L34.6524 44.8748H48.966C62.6006 44.8748 63.3063 44.888 63.8256 45.1254ZM64.2384 53.2649C65.6631 54.3994 65.8628 56.0748 64.731 57.3939C63.8522 58.3965 64.8642 58.3438 48.7397 58.3042L34.3462 58.2646L33.7736 57.8689C32.3223 56.8663 32.1359 54.6368 33.4141 53.5023C34.2397 52.7504 33.241 52.79 49.1258 52.8295L63.7191 52.8559L64.2384 53.2649ZM64.0386 61.0085C65.2636 61.7209 65.7829 63.2248 65.2237 64.478C64.8375 65.3223 64.6112 65.5598 63.8123 65.9291L63.1465 66.2457H49.0992C39.5257 66.2457 34.8921 66.193 34.5326 66.1006C33.8801 65.9291 32.9081 65.0453 32.7217 64.4516C32.1891 62.8818 33.0147 61.2196 34.5459 60.7447C34.9187 60.626 38.6336 60.5996 49.2323 60.6128L63.4128 60.6392L64.0386 61.0085ZM30.2851 63.172C30.1786 63.7261 30.4182 64.9134 30.7644 65.6257L31.084 66.2589L24.7061 66.2194L18.3149 66.1798L18.0619 65.8632C17.8489 65.6125 17.8089 65.3355 17.8089 64.1878V62.8158H24.0803H30.3517L30.2851 63.172Z" fill="white"></path><path d="M29.7439 23.9923C29.5018 24.1941 29.4615 24.3353 29.3808 25.112C29.2597 26.3023 29.0479 27.0891 28.6041 27.9969C27.8274 29.5806 26.2941 30.6095 24.6802 30.6195C23.8429 30.6195 23.4495 30.9121 23.4395 31.5375C23.4395 32.0519 23.7421 32.294 24.4986 32.3747C26.052 32.5462 26.8388 32.8892 27.6962 33.7566C28.6343 34.7149 29.1891 36.0969 29.3808 37.9125C29.4211 38.3765 29.4917 38.8204 29.5321 38.8809C29.6632 39.0927 30.1978 39.3046 30.4298 39.234C30.9241 39.0927 31.0754 38.8204 31.1561 38.0033C31.4184 35.1386 32.7398 33.1615 34.737 32.6067C35.0396 32.5159 35.6045 32.4151 35.9878 32.3848C36.5225 32.3344 36.7343 32.2638 36.9159 32.0822C37.2286 31.7695 37.2286 31.3156 36.9259 30.9726C36.7242 30.7305 36.583 30.6902 35.8365 30.6095C34.4142 30.4682 33.5669 30.0748 32.77 29.1872C31.9227 28.239 31.4285 27.0184 31.2065 25.3137C31.0552 24.1436 31.025 24.0831 30.7022 23.9116C30.2987 23.6998 30.0566 23.72 29.7439 23.9923ZM30.6114 29.167C30.9846 29.8227 31.9832 30.9222 32.4775 31.2349C32.6692 31.3458 32.8205 31.477 32.8205 31.5173C32.8205 31.5577 32.6893 31.6585 32.528 31.7594C32.0236 32.062 31.0653 33.101 30.6517 33.797L30.2684 34.4627L29.9557 33.8777C29.6531 33.3229 28.4931 32.0418 27.9787 31.6989L27.7265 31.5375L28.0291 31.3156C28.6141 30.8919 29.5422 29.8428 29.8952 29.2275C30.0869 28.8846 30.2583 28.6021 30.2684 28.6021C30.2785 28.6021 30.4298 28.8543 30.6114 29.167Z" fill="white"></path></svg> 